<svg version="1.1" viewBox="0.0 0.0 960.0 440.0" fill="none" stroke="none" stroke-linecap="square" stroke-miterlimit="10" xmlns:xlink="http://www.w3.org/1999/xlink" xmlns="http://www.w3.org/2000/svg"><clipPath id="g37f1eb95570_0_5.0"><path d="m0 0l960.0 0l0 540.0l-960.0 0l0 -540.0z" clip-rule="nonzero"/></clipPath><g clip-path="url(#g37f1eb95570_0_5.0)"><path fill="#ffffff" d="m0 0l960.0 0l0 540.0l-960.0 0z" fill-rule="evenodd"/><path fill="#000000" fill-opacity="0.0" d="m396.27823 332.62726l135.40158 0l0 69.79529l-135.40158 0z" fill-rule="evenodd"/><path stroke="#000000" stroke-width="1.0" stroke-linejoin="round" stroke-linecap="butt" d="m396.27823 332.62726l135.40158 0l0 69.79529l-135.40158 0z" fill-rule="evenodd"/><path fill="#595959" d="m456.87393 350.82602q-0.765625 -0.40625 -1.578125 -0.625q-0.796875 -0.21875 -1.734375 -0.21875q-1.09375 0 -1.9375 0.390625q-0.84375 0.375 -1.421875 1.078125q-0.578125 0.703125 -0.890625 1.6875q-0.296875 0.984375 -0.296875 2.1875q0 1.25 0.25 2.25q0.25 0.984375 0.78125 1.671875q0.53125 0.6875 1.359375 1.046875q0.828125 0.359375 1.984375 0.359375q0.203125 0 0.421875 -0.015625q0.234375 -0.015625 0.453125 -0.046875q0.234375 -0.046875 0.453125 -0.09375q0.21875 -0.0625 0.375 -0.125l0 -4.328125l-2.78125 0l0 -1.53125l4.625 0l0 6.953125q-0.4375 0.203125 -0.90625 0.359375q-0.46875 0.15625 -0.96875 0.265625q-0.5 0.09375 -0.984375 0.140625q-0.484375 0.0625 -0.953125 0.0625q-1.390625 0 -2.515625 -0.4375q-1.109375 -0.4375 -1.90625 -1.296875q-0.78125 -0.859375 -1.203125 -2.140625q-0.421875 -1.28125 -0.421875 -2.96875q0 -1.671875 0.46875 -3.0q0.46875 -1.328125 1.3125 -2.25q0.859375 -0.921875 2.046875 -1.40625q1.1875 -0.484375 2.625 -0.484375q0.921875 0 1.75 0.171875q0.828125 0.15625 1.59375 0.5l0 1.84375zm11.741913 11.28125l-2.421875 0l-3.96875 -8.484375l-1.140625 -2.734375l0 6.859375l0 4.359375l-1.734375 0l0 -13.609375l2.390625 0l3.78125 8.03125l1.359375 3.125l0 -7.296875l0 -3.859375l1.734375 0l0 13.609375zm12.445068 0l-1.8125 0l-0.265625 -8.484375l-0.125 -3.265625l-0.625 1.890625l-2.015625 5.421875l-1.28125 0l-1.921875 -5.203125l-0.625 -2.109375l-0.046875 3.40625l-0.234375 8.34375l-1.75 0l0.65625 -13.609375l2.203125 0l1.828125 5.125l0.59375 1.71875l0.578125 -1.71875l1.921875 -5.125l2.265625 0l0.65625 13.609375z" fill-rule="nonzero"/><path fill="#595959" d="m439.30008 381.92603q0 0.390625 -0.015625 0.65625q0 0.25 -0.03125 0.484375l-7.34375 0q0 1.59375 0.890625 2.453125q0.90625 0.859375 2.59375 0.859375q0.453125 0 0.90625 -0.03125q0.46875 -0.03125 0.890625 -0.09375q0.4375 -0.0625 0.828125 -0.140625q0.390625 -0.078125 0.71875 -0.171875l0 1.484375q-0.734375 0.203125 -1.671875 0.328125q-0.9375 0.140625 -1.9375 0.140625q-1.34375 0 -2.3125 -0.359375q-0.96875 -0.375 -1.59375 -1.0625q-0.609375 -0.6875 -0.90625 -1.6875q-0.296875 -1.015625 -0.296875 -2.28125q0 -1.109375 0.3125 -2.09375q0.328125 -0.984375 0.9375 -1.71875q0.609375 -0.75 1.484375 -1.1875q0.890625 -0.4375 2.015625 -0.4375q1.09375 0 1.9375 0.34375q0.84375 0.34375 1.421875 0.96875q0.578125 0.625 0.875 1.53125q0.296875 0.90625 0.296875 2.015625zm-1.890625 -0.265625q0.03125 -0.6875 -0.140625 -1.265625q-0.15625 -0.578125 -0.515625 -1.0q-0.34375 -0.421875 -0.859375 -0.65625q-0.515625 -0.234375 -1.203125 -0.234375q-0.59375 0 -1.09375 0.234375q-0.484375 0.234375 -0.84375 0.65625q-0.34375 0.40625 -0.5625 1.0q-0.21875 0.578125 -0.28125 1.265625l5.5 0zm4.7888184 -4.40625l1.609375 0l0.078125 1.6875q0.453125 -0.546875 0.875 -0.90625q0.4375 -0.359375 0.84375 -0.578125q0.40625 -0.21875 0.828125 -0.296875q0.4375 -0.09375 0.890625 -0.09375q1.625 0 2.453125 0.953125q0.828125 0.953125 0.828125 2.859375l0 6.828125l-1.8125 0l0 -6.671875q0 -1.234375 -0.46875 -1.8125q-0.453125 -0.59375 -1.359375 -0.59375q-0.328125 0 -0.65625 0.09375q-0.3125 0.09375 -0.65625 0.34375q-0.34375 0.25 -0.75 0.671875q-0.390625 0.40625 -0.890625 1.03125l0 6.9375l-1.8125 0l0 -10.453125zm19.257568 1.46875q0.28125 0.375 0.4375 0.859375q0.171875 0.484375 0.171875 1.046875q0 0.8125 -0.296875 1.484375q-0.296875 0.671875 -0.84375 1.15625q-0.53125 0.46875 -1.2969055 0.734375q-0.75 0.265625 -1.65625 0.265625q-0.65625 0 -1.234375 -0.140625q-0.5625 -0.140625 -0.90625 -0.34375q-0.1875 0.28125 -0.328125 0.546875q-0.140625 0.265625 -0.140625 0.578125q0 0.40625 0.375 0.671875q0.390625 0.25 1.015625 0.265625l2.75 0.109375q0.7812805 0.015625 1.4375305 0.203125q0.671875 0.171875 1.140625 0.515625q0.46875 0.328125 0.734375 0.8125q0.265625 0.484375 0.265625 1.140625q0 0.6875 -0.296875 1.3125q-0.296875 0.625 -0.9375 1.09375q-0.625 0.484375 -1.5937805 0.765625q-0.96875 0.28125 -2.296875 0.28125q-1.28125 0 -2.171875 -0.203125q-0.890625 -0.203125 -1.46875 -0.5625q-0.5625 -0.359375 -0.828125 -0.859375q-0.25 -0.484375 -0.25 -1.078125q0 -0.765625 0.34375 -1.34375q0.359375 -0.5625 1.09375 -1.09375q-0.265625 -0.125 -0.46875 -0.3125q-0.1875 -0.1875 -0.3125 -0.40625q-0.125 -0.234375 -0.1875 -0.484375q-0.0625 -0.25 -0.0625 -0.484375q0 -0.6875 0.3125 -1.25q0.3125 -0.5625 0.75 -1.0625q-0.1875 -0.234375 -0.34375 -0.453125q-0.15625 -0.234375 -0.265625 -0.5q-0.109375 -0.265625 -0.171875 -0.578125q-0.046875 -0.3125 -0.046875 -0.703125q0 -0.8125 0.296875 -1.484375q0.296875 -0.671875 0.828125 -1.140625q0.546875 -0.484375 1.296875 -0.75q0.75 -0.265625 1.671875 -0.265625q0.390625 0 0.734375 0.046875q0.359375 0.046875 0.625 0.140625l3.7969055 0l0 1.46875l-1.671875 0zm-6.2969055 10.5q0 0.734375 0.765625 1.0625q0.78125 0.34375 2.15625 0.34375q0.859375 0 1.4375 -0.15625q0.59375 -0.15625 0.9531555 -0.40625q0.359375 -0.25 0.515625 -0.578125q0.15625 -0.328125 0.15625 -0.671875q0 -0.640625 -0.515625 -0.953125q-0.5156555 -0.296875 -1.5937805 -0.34375l-2.734375 -0.09375q-0.34375 0.234375 -0.5625 0.453125q-0.21875 0.21875 -0.34375 0.4375q-0.125 0.21875 -0.1875 0.4375q-0.046875 0.234375 -0.046875 0.46875zm0.546875 -8.5625q0 0.5 0.171875 0.921875q0.171875 0.421875 0.46875 0.71875q0.296875 0.28125 0.703125 0.453125q0.421875 0.15625 0.921875 0.15625q0.546875 0 0.96875 -0.1875q0.421875 -0.1875 0.703125 -0.5q0.28125 -0.3125 0.4375 -0.71875q0.15625 -0.40625 0.15625 -0.84375q0 -0.5 -0.171875 -0.90625q-0.171875 -0.421875 -0.46875 -0.703125q-0.296875 -0.296875 -0.71875 -0.453125q-0.40625 -0.171875 -0.90625 -0.171875q-0.546875 0 -0.96875 0.1875q-0.421875 0.1875 -0.703125 0.5q-0.28125 0.296875 -0.4375 0.703125q-0.15625 0.40625 -0.15625 0.84375zm13.507568 -1.90625l-3.09375 0l0 -1.5l4.921875 0l0 8.9375l3.109375 0l0 1.515625l-8.375 0l0 -1.515625l3.4375 0l0 -7.4375zm0.625 -5.890625q0.3125 0 0.5625 0.109375q0.265625 0.109375 0.453125 0.3125q0.203125 0.203125 0.3125 0.453125q0.109375 0.25 0.109375 0.5625q0 0.28125 -0.109375 0.546875q-0.109375 0.265625 -0.3125 0.46875q-0.1875 0.1875 -0.453125 0.296875q-0.25 0.109375 -0.5625 0.109375q-0.296875 0 -0.5625 -0.109375q-0.25 -0.109375 -0.453125 -0.296875q-0.1875 -0.203125 -0.296875 -0.46875q-0.109375 -0.265625 -0.109375 -0.546875q0 -0.3125 0.109375 -0.5625q0.109375 -0.25 0.296875 -0.453125q0.203125 -0.203125 0.453125 -0.3125q0.265625 -0.109375 0.5625 -0.109375zm7.5388184 4.390625l1.609375 0l0.078125 1.6875q0.453125 -0.546875 0.875 -0.90625q0.4375 -0.359375 0.84375 -0.578125q0.40625 -0.21875 0.828125 -0.296875q0.4375 -0.09375 0.890625 -0.09375q1.625 0 2.453125 0.953125q0.828125 0.953125 0.828125 2.859375l0 6.828125l-1.8125 0l0 -6.671875q0 -1.234375 -0.46875 -1.8125q-0.453125 -0.59375 -1.359375 -0.59375q-0.328125 0 -0.65625 0.09375q-0.3125 0.09375 -0.65625 0.34375q-0.34375 0.25 -0.75 0.671875q-0.390625 0.40625 -0.890625 1.03125l0 6.9375l-1.8125 0l0 -10.453125zm20.554413 4.671875q0 0.390625 -0.015625 0.65625q0 0.25 -0.03125 0.484375l-7.34375 0q0 1.59375 0.890625 2.453125q0.90625 0.859375 2.59375 0.859375q0.453125 0 0.90625 -0.03125q0.46875 -0.03125 0.890625 -0.09375q0.4375 -0.0625 0.828125 -0.140625q0.390625 -0.078125 0.71875 -0.171875l0 1.484375q-0.734375 0.203125 -1.671875 0.328125q-0.9375 0.140625 -1.9375 0.140625q-1.34375 0 -2.3125 -0.359375q-0.96875 -0.375 -1.59375 -1.0625q-0.609375 -0.6875 -0.90625 -1.6875q-0.296875 -1.015625 -0.296875 -2.28125q0 -1.109375 0.3125 -2.09375q0.328125 -0.984375 0.9375 -1.71875q0.609375 -0.75 1.484375 -1.1875q0.890625 -0.4375 2.015625 -0.4375q1.09375 0 1.9375 0.34375q0.84375 0.34375 1.421875 0.96875q0.578125 0.625 0.875 1.53125q0.296875 0.90625 0.296875 2.015625zm-1.890625 -0.265625q0.03125 -0.6875 -0.140625 -1.265625q-0.15625 -0.578125 -0.515625 -1.0q-0.34375 -0.421875 -0.859375 -0.65625q-0.515625 -0.234375 -1.203125 -0.234375q-0.59375 0 -1.09375 0.234375q-0.484375 0.234375 -0.84375 0.65625q-0.34375 0.40625 -0.5625 1.0q-0.21875 0.578125 -0.28125 1.265625l5.5 0z" fill-rule="nonzero"/><path fill="#000000" fill-opacity="0.0" d="m488.09448 127.0236l135.40155 0l0 69.79528l-135.40155 0z" fill-rule="evenodd"/><path stroke="#000000" stroke-width="1.0" stroke-linejoin="round" stroke-linecap="butt" d="m488.09448 127.0236l135.40155 0l0 69.79528l-135.40155 0z" fill-rule="evenodd"/><path fill="#595959" d="m512.98004 153.64423q0 0.5625 -0.1875 1.0q-0.1875 0.4375 -0.515625 0.78125q-0.328125 0.328125 -0.75 0.578125q-0.421875 0.234375 -0.90625 0.390625q-0.484375 0.15625 -1.0 0.21875q-0.515625 0.078125 -1.0 0.078125q-1.0625 0 -1.953125 -0.09375q-0.890625 -0.09375 -1.75 -0.296875l0 -1.671875q0.921875 0.265625 1.828125 0.40625q0.90625 0.125 1.796875 0.125q1.3125 0 1.9375 -0.34375q0.625 -0.359375 0.625 -1.015625q0 -0.28125 -0.109375 -0.5q-0.09375 -0.234375 -0.359375 -0.4375q-0.25 -0.203125 -0.796875 -0.421875q-0.546875 -0.21875 -1.5 -0.5q-0.703125 -0.203125 -1.3125 -0.46875q-0.59375 -0.265625 -1.03125 -0.625q-0.4375 -0.375 -0.6875 -0.859375q-0.25 -0.5 -0.25 -1.15625q0 -0.4375 0.203125 -0.953125q0.203125 -0.53125 0.6875 -0.96875q0.5 -0.453125 1.328125 -0.75q0.828125 -0.296875 2.078125 -0.296875q0.625 0 1.375 0.0625q0.75 0.0625 1.5625 0.234375l0 1.609375q-0.859375 -0.203125 -1.625 -0.296875q-0.765625 -0.109375 -1.328125 -0.109375q-0.671875 0 -1.140625 0.109375q-0.46875 0.109375 -0.75 0.296875q-0.28125 0.171875 -0.40625 0.421875q-0.125 0.234375 -0.125 0.515625q0 0.28125 0.109375 0.515625q0.109375 0.234375 0.40625 0.453125q0.296875 0.203125 0.828125 0.421875q0.53125 0.203125 1.375 0.453125q0.9375 0.28125 1.5625 0.578125q0.640625 0.296875 1.03125 0.65625q0.40625 0.359375 0.578125 0.828125q0.171875 0.453125 0.171875 1.03125zm11.851318 2.859375l-1.8125 0l0 -6.671875q0 -1.21875 -0.453125 -1.8125q-0.453125 -0.59375 -1.296875 -0.59375q-0.375 0 -0.6875 0.09375q-0.3125 0.09375 -0.65625 0.34375q-0.34375 0.25 -0.75 0.671875q-0.40625 0.40625 -0.9375 1.03125l0 6.9375l-1.8125 0l0 -14.71875l1.8125 0l0 4.265625l-0.0625 1.640625q0.421875 -0.515625 0.828125 -0.859375q0.421875 -0.34375 0.828125 -0.5625q0.40625 -0.21875 0.828125 -0.3125q0.4375 -0.09375 0.890625 -0.09375q1.5625 0 2.421875 0.953125q0.859375 0.953125 0.859375 2.859375l0 6.828125zm12.413757 -5.3125q0 1.21875 -0.34375 2.234375q-0.34375 1.015625 -0.984375 1.75q-0.640625 0.71875 -1.578125 1.125q-0.921875 0.390625 -2.09375 0.390625q-1.125 0 -2.015625 -0.34375q-0.890625 -0.359375 -1.515625 -1.03125q-0.625 -0.671875 -0.953125 -1.671875q-0.328125 -1.0 -0.328125 -2.3125q0 -1.21875 0.34375 -2.21875q0.34375 -1.0 0.984375 -1.71875q0.65625 -0.734375 1.578125 -1.125q0.9375 -0.40625 2.109375 -0.40625q1.125 0 2.015625 0.34375q0.890625 0.34375 1.5 1.015625q0.625 0.671875 0.953125 1.671875q0.328125 1.0 0.328125 2.296875zm-1.84375 0.078125q0 -0.96875 -0.21875 -1.6875q-0.21875 -0.71875 -0.609375 -1.203125q-0.390625 -0.484375 -0.96875 -0.734375q-0.5625 -0.25 -1.265625 -0.25q-0.8125 0 -1.390625 0.328125q-0.578125 0.3125 -0.953125 0.84375q-0.359375 0.53125 -0.53125 1.234375q-0.171875 0.703125 -0.171875 1.46875q0 0.96875 0.203125 1.703125q0.21875 0.734375 0.609375 1.21875q0.40625 0.484375 0.96875 0.734375q0.5625 0.234375 1.265625 0.234375q0.8125 0 1.390625 -0.3125q0.578125 -0.328125 0.953125 -0.859375q0.375 -0.53125 0.546875 -1.234375q0.171875 -0.703125 0.171875 -1.484375zm4.8981934 -5.21875l1.65625 0l0.046875 1.921875q0.9375 -1.109375 1.828125 -1.609375q0.90625 -0.5 1.828125 -0.5q1.625 0 2.453125 1.046875q0.84375 1.046875 0.78125 3.125l-1.828125 0q0.03125 -1.375 -0.40625 -1.984375q-0.4375 -0.625 -1.265625 -0.625q-0.359375 0 -0.734375 0.125q-0.375 0.125 -0.765625 0.421875q-0.390625 0.28125 -0.828125 0.734375q-0.4375 0.4375 -0.9375 1.078125l0 6.71875l-1.828125 0l0 -10.453125zm19.726318 10.3125q-0.609375 0.15625 -1.265625 0.21875q-0.65625 0.0625 -1.34375 0.0625q-1.96875 0 -2.9375 -0.890625q-0.96875 -0.890625 -0.96875 -2.734375l0 -5.453125l-2.921875 0l0 -1.515625l2.921875 0l0 -2.875l1.8125 -0.46875l0 3.34375l4.703125 0l0 1.515625l-4.703125 0l0 5.3125q0 1.125 0.59375 1.6875q0.609375 0.546875 1.78125 0.546875q0.5 0 1.09375 -0.078125q0.59375 -0.078125 1.234375 -0.234375l0 1.5625zm11.710693 0.140625l-1.8125 0l0 -6.671875q0 -1.21875 -0.453125 -1.8125q-0.453125 -0.59375 -1.296875 -0.59375q-0.375 0 -0.6875 0.09375q-0.3125 0.09375 -0.65625 0.34375q-0.34375 0.25 -0.75 0.671875q-0.40625 0.40625 -0.9375 1.03125l0 6.9375l-1.8125 0l0 -14.71875l1.8125 0l0 4.265625l-0.0625 1.640625q0.421875 -0.515625 0.828125 -0.859375q0.421875 -0.34375 0.828125 -0.5625q0.40625 -0.21875 0.828125 -0.3125q0.4375 -0.09375 0.890625 -0.09375q1.5625 0 2.421875 0.953125q0.859375 0.953125 0.859375 2.859375l0 6.828125zm10.038757 0l-0.046875 -1.40625q-0.859375 0.84375 -1.734375 1.21875q-0.875 0.375 -1.84375 0.375q-0.90625 0 -1.546875 -0.21875q-0.625 -0.234375 -1.046875 -0.640625q-0.40625 -0.40625 -0.59375 -0.9375q-0.1875 -0.546875 -0.1875 -1.1875q0 -1.5625 1.171875 -2.453125q1.171875 -0.890625 3.453125 -0.890625l2.171875 0l0 -0.921875q0 -0.921875 -0.59375 -1.484375q-0.59375 -0.5625 -1.8125 -0.5625q-0.890625 0 -1.75 0.203125q-0.859375 0.203125 -1.765625 0.5625l0 -1.640625q0.34375 -0.125 0.765625 -0.234375q0.421875 -0.125 0.890625 -0.21875q0.46875 -0.09375 0.96875 -0.140625q0.515625 -0.0625 1.03125 -0.0625q0.953125 0 1.703125 0.203125q0.765625 0.203125 1.296875 0.640625q0.53125 0.421875 0.8125 1.078125q0.28125 0.640625 0.28125 1.515625l0 7.203125l-1.625 0zm-0.203125 -4.765625l-2.296875 0q-0.6875 0 -1.171875 0.140625q-0.484375 0.140625 -0.796875 0.390625q-0.3125 0.25 -0.46875 0.59375q-0.15625 0.34375 -0.15625 0.78125q0 0.3125 0.09375 0.59375q0.09375 0.265625 0.296875 0.484375q0.21875 0.203125 0.546875 0.328125q0.34375 0.125 0.8125 0.125q0.625 0 1.4375 -0.375q0.8125 -0.375 1.703125 -1.203125l0 -1.859375zm5.2106934 -5.6875l1.609375 0l0.078125 1.6875q0.453125 -0.546875 0.875 -0.90625q0.4375 -0.359375 0.84375 -0.578125q0.40625 -0.21875 0.828125 -0.296875q0.4375 -0.09375 0.890625 -0.09375q1.625 0 2.453125 0.953125q0.828125 0.953125 0.828125 2.859375l0 6.828125l-1.8125 0l0 -6.671875q0 -1.234375 -0.46875 -1.8125q-0.453125 -0.59375 -1.359375 -0.59375q-0.328125 0 -0.65625 0.09375q-0.3125 0.09375 -0.65625 0.34375q-0.34375 0.25 -0.75 0.671875q-0.390625 0.40625 -0.890625 1.03125l0 6.9375l-1.8125 0l0 -10.453125zm11.195068 5.4375q0 -1.328125 0.359375 -2.359375q0.359375 -1.046875 1.03125 -1.75q0.671875 -0.71875 1.609375 -1.078125q0.953125 -0.375 2.109375 -0.375q0.5 0 0.984375 0.0625q0.484375 0.0625 0.953125 0.1875l0 -4.390625l1.828125 0l0 14.71875l-1.625 0l-0.0625 -1.984375q-0.765625 1.109375 -1.65625 1.640625q-0.875 0.53125 -1.90625 0.53125q-0.90625 0 -1.59375 -0.375q-0.671875 -0.375 -1.125 -1.046875q-0.453125 -0.6875 -0.6875 -1.640625q-0.21875 -0.96875 -0.21875 -2.140625zm1.84375 -0.109375q0 1.890625 0.5625 2.828125q0.5625 0.9375 1.578125 0.9375q0.6875 0 1.453125 -0.609375q0.765625 -0.625 1.609375 -1.828125l0 -4.859375q-0.453125 -0.203125 -1.0 -0.3125q-0.53125 -0.109375 -1.0625 -0.109375q-1.484375 0 -2.3125 0.953125q-0.828125 0.953125 -0.828125 3.0z" fill-rule="nonzero"/><path fill="#595959" d="m510.56195 171.65047l1.609375 0l0.078125 1.6875q0.453125 -0.546875 0.875 -0.90625q0.4375 -0.359375 0.84375 -0.578125q0.40625 -0.21875 0.828125 -0.296875q0.4375 -0.09375 0.890625 -0.09375q1.625 0 2.453125 0.953125q0.828125 0.953125 0.828125 2.859375l0 6.828125l-1.8125 0l0 -6.671875q0 -1.234375 -0.46875 -1.8125q-0.453125 -0.59375 -1.359375 -0.59375q-0.328125 0 -0.65625 0.09375q-0.3125 0.09375 -0.65625 0.34375q-0.34375 0.25 -0.75 0.671875q-0.390625 0.40625 -0.890625 1.03125l0 6.9375l-1.8125 0l0 -10.453125zm20.820068 5.140625q0 1.21875 -0.34375 2.234375q-0.34375 1.015625 -0.984375 1.75q-0.640625 0.71875 -1.578125 1.125q-0.921875 0.390625 -2.09375 0.390625q-1.125 0 -2.015625 -0.34375q-0.890625 -0.359375 -1.515625 -1.03125q-0.625 -0.671875 -0.953125 -1.671875q-0.328125 -1.0 -0.328125 -2.3125q0 -1.21875 0.34375 -2.21875q0.34375 -1.0 0.984375 -1.71875q0.65625 -0.734375 1.578125 -1.125q0.9375 -0.40625 2.109375 -0.40625q1.125 0 2.015625 0.34375q0.890625 0.34375 1.5 1.015625q0.625 0.671875 0.953125 1.671875q0.328125 1.0 0.328125 2.296875zm-1.84375 0.078125q0 -0.96875 -0.21875 -1.6875q-0.21875 -0.71875 -0.609375 -1.203125q-0.390625 -0.484375 -0.96875 -0.734375q-0.5625 -0.25 -1.265625 -0.25q-0.8125 0 -1.390625 0.328125q-0.578125 0.3125 -0.953125 0.84375q-0.359375 0.53125 -0.53125 1.234375q-0.171875 0.703125 -0.171875 1.46875q0 0.96875 0.203125 1.703125q0.21875 0.734375 0.609375 1.21875q0.40625 0.484375 0.96875 0.734375q0.5625 0.234375 1.265625 0.234375q0.8125 0 1.390625 -0.3125q0.578125 -0.328125 0.953125 -0.859375q0.375 -0.53125 0.546875 -1.234375q0.171875 -0.703125 0.171875 -1.484375zm12.898132 5.09375q-0.609375 0.15625 -1.265625 0.21875q-0.65625 0.0625 -1.34375 0.0625q-1.96875 0 -2.9375 -0.890625q-0.96875 -0.890625 -0.96875 -2.734375l0 -5.453125l-2.921875 0l0 -1.515625l2.921875 0l0 -2.875l1.8125 -0.46875l0 3.34375l4.703125 0l0 1.515625l-4.703125 0l0 5.3125q0 1.125 0.59375 1.6875q0.609375 0.546875 1.78125 0.546875q0.5 0 1.09375 -0.078125q0.59375 -0.078125 1.234375 -0.234375l0 1.5625zm10.023193 0.140625l-0.046875 -1.40625q-0.859375 0.84375 -1.734375 1.21875q-0.875 0.375 -1.84375 0.375q-0.90625 0 -1.546875 -0.21875q-0.625 -0.234375 -1.046875 -0.640625q-0.40625 -0.40625 -0.59375 -0.9375q-0.1875 -0.546875 -0.1875 -1.1875q0 -1.5625 1.171875 -2.453125q1.171875 -0.890625 3.453125 -0.890625l2.171875 0l0 -0.921875q0 -0.921875 -0.59375 -1.484375q-0.59375 -0.5625 -1.8125 -0.5625q-0.890625 0 -1.75 0.203125q-0.859375 0.203125 -1.765625 0.5625l0 -1.640625q0.34375 -0.125 0.765625 -0.234375q0.421875 -0.125 0.890625 -0.21875q0.46875 -0.09375 0.96875 -0.140625q0.515625 -0.0625 1.03125 -0.0625q0.953125 0 1.703125 0.203125q0.765625 0.203125 1.296875 0.640625q0.53125 0.421875 0.8125 1.078125q0.28125 0.640625 0.28125 1.515625l0 7.203125l-1.625 0zm-0.203125 -4.765625l-2.296875 0q-0.6875 0 -1.171875 0.140625q-0.484375 0.140625 -0.796875 0.390625q-0.3125 0.25 -0.46875 0.59375q-0.15625 0.34375 -0.15625 0.78125q0 0.3125 0.09375 0.59375q0.09375 0.265625 0.296875 0.484375q0.21875 0.203125 0.546875 0.328125q0.34375 0.125 0.8125 0.125q0.625 0 1.4375 -0.375q0.8125 -0.375 1.703125 -1.203125l0 -1.859375zm13.632568 4.625q-0.609375 0.15625 -1.265625 0.21875q-0.65625 0.0625 -1.34375 0.0625q-1.96875 0 -2.9375 -0.890625q-0.96875 -0.890625 -0.96875 -2.734375l0 -5.453125l-2.921875 0l0 -1.515625l2.921875 0l0 -2.875l1.8125 -0.46875l0 3.34375l4.703125 0l0 1.515625l-4.703125 0l0 5.3125q0 1.125 0.59375 1.6875q0.609375 0.546875 1.78125 0.546875q0.5 0 1.09375 -0.078125q0.59375 -0.078125 1.234375 -0.234375l0 1.5625zm6.8669434 -8.8125l-3.09375 0l0 -1.5l4.921875 0l0 8.9375l3.109375 0l0 1.515625l-8.375 0l0 -1.515625l3.4375 0l0 -7.4375zm0.625 -5.890625q0.3125 0 0.5625 0.109375q0.265625 0.109375 0.453125 0.3125q0.203125 0.203125 0.3125 0.453125q0.109375 0.25 0.109375 0.5625q0 0.28125 -0.109375 0.546875q-0.109375 0.265625 -0.3125 0.46875q-0.1875 0.1875 -0.453125 0.296875q-0.25 0.109375 -0.5625 0.109375q-0.296875 0 -0.5625 -0.109375q-0.25 -0.109375 -0.453125 -0.296875q-0.1875 -0.203125 -0.296875 -0.46875q-0.109375 -0.265625 -0.109375 -0.546875q0 -0.3125 0.109375 -0.5625q0.109375 -0.25 0.296875 -0.453125q0.203125 -0.203125 0.453125 -0.3125q0.265625 -0.109375 0.5625 -0.109375zm16.632507 9.53125q0 1.21875 -0.34375 2.234375q-0.34375 1.015625 -0.984375 1.75q-0.640625 0.71875 -1.578125 1.125q-0.921875 0.390625 -2.09375 0.390625q-1.125 0 -2.015625 -0.34375q-0.890625 -0.359375 -1.515625 -1.03125q-0.625 -0.671875 -0.953125 -1.671875q-0.328125 -1.0 -0.328125 -2.3125q0 -1.21875 0.34375 -2.21875q0.34375 -1.0 0.984375 -1.71875q0.65625 -0.734375 1.578125 -1.125q0.9375 -0.40625 2.109375 -0.40625q1.125 0 2.015625 0.34375q0.890625 0.34375 1.5 1.015625q0.625 0.671875 0.953125 1.671875q0.328125 1.0 0.328125 2.296875zm-1.84375 0.078125q0 -0.96875 -0.21875 -1.6875q-0.21875 -0.71875 -0.609375 -1.203125q-0.390625 -0.484375 -0.96875 -0.734375q-0.5625 -0.25 -1.265625 -0.25q-0.8125 0 -1.390625 0.328125q-0.578125 0.3125 -0.953125 0.84375q-0.359375 0.53125 -0.53125 1.234375q-0.171875 0.703125 -0.171875 1.46875q0 0.96875 0.203125 1.703125q0.21875 0.734375 0.609375 1.21875q0.40625 0.484375 0.96875 0.734375q0.5625 0.234375 1.265625 0.234375q0.8125 0 1.390625 -0.3125q0.578125 -0.328125 0.953125 -0.859375q0.375 -0.53125 0.546875 -1.234375q0.171875 -0.703125 0.171875 -1.484375zm4.4763184 -5.21875l1.609375 0l0.078125 1.6875q0.453125 -0.546875 0.875 -0.90625q0.4375 -0.359375 0.84375 -0.578125q0.40625 -0.21875 0.828125 -0.296875q0.4375 -0.09375 0.890625 -0.09375q1.625 0 2.453125 0.953125q0.828125 0.953125 0.828125 2.859375l0 6.828125l-1.8125 0l0 -6.671875q0 -1.234375 -0.46875 -1.8125q-0.453125 -0.59375 -1.359375 -0.59375q-0.328125 0 -0.65625 0.09375q-0.3125 0.09375 -0.65625 0.34375q-0.34375 0.25 -0.75 0.671875q-0.390625 0.40625 -0.890625 1.03125l0 6.9375l-1.8125 0l0 -10.453125z" fill-rule="nonzero"/><path fill="#000000" fill-opacity="0.0" d="m488.09448 227.9396l135.40155 0l0 69.79529l-135.40155 0z" fill-rule="evenodd"/><path stroke="#000000" stroke-width="1.0" stroke-linejoin="round" stroke-linecap="butt" d="m488.09448 227.9396l135.40155 0l0 69.79529l-135.40155 0z" fill-rule="evenodd"/><path fill="#595959" d="m536.8701 263.73212q0 0.96875 -0.40625 1.703125q-0.390625 0.71875 -1.109375 1.203125q-0.703125 0.484375 -1.703125 0.734375q-0.984375 0.234375 -2.1875 0.234375q-0.53125 0 -1.078125 -0.046875q-0.53125 -0.03125 -1.03125 -0.09375q-0.484375 -0.0625 -0.921875 -0.140625q-0.4375 -0.09375 -0.796875 -0.1875l0 -1.796875q0.78125 0.296875 1.75 0.46875q0.984375 0.15625 2.21875 0.15625q0.890625 0 1.515625 -0.140625q0.640625 -0.140625 1.03125 -0.40625q0.40625 -0.28125 0.59375 -0.671875q0.1875 -0.40625 0.1875 -0.90625q0 -0.5625 -0.3125 -0.953125q-0.3125 -0.390625 -0.8125 -0.6875q-0.5 -0.3125 -1.140625 -0.5625q-0.640625 -0.265625 -1.3125 -0.53125q-0.65625 -0.265625 -1.296875 -0.578125q-0.640625 -0.328125 -1.140625 -0.75q-0.5 -0.4375 -0.8125 -1.015625q-0.296875 -0.59375 -0.296875 -1.390625q0 -0.703125 0.28125 -1.3750153q0.296875 -0.671875 0.90625 -1.203125q0.625 -0.53125 1.578125 -0.84375q0.96875 -0.328125 2.296875 -0.328125q0.34375 0 0.75 0.03125q0.40625 0.03125 0.8125 0.09375q0.40625 0.046875 0.8125 0.125q0.40625 0.078125 0.75 0.15625l0 1.671875q-0.8125 -0.234375 -1.609375 -0.34375q-0.796875 -0.125 -1.546875 -0.125q-1.59375 0 -2.34375 0.53125q-0.75 0.53126526 -0.75 1.4218903q0 0.546875 0.296875 0.953125q0.3125 0.390625 0.8125 0.703125q0.5 0.3125 1.140625 0.5625q0.640625 0.25 1.296875 0.53125q0.671875 0.265625 1.3125 0.59375q0.640625 0.3125 1.140625 0.765625q0.5 0.4375 0.8125 1.03125q0.3125 0.59375 0.3125 1.40625zm11.132568 3.296875q-0.71875 0.28125 -1.46875 0.40625q-0.734375 0.125 -1.53125 0.125q-2.46875 0 -3.8125 -1.34375q-1.34375 -1.34375 -1.34375 -3.921875q0 -1.234375 0.390625 -2.25q0.390625 -1.015625 1.078125 -1.734375q0.703125 -0.71875 1.671875 -1.109375q0.96875 -0.390625 2.140625 -0.390625q0.8125 0 1.515625 0.125q0.703125 0.109375 1.359375 0.375l0 1.71875q-0.6875 -0.34375 -1.390625 -0.5q-0.703125 -0.171875 -1.453125 -0.171875q-0.6875 0 -1.3125 0.265625q-0.625 0.265625 -1.09375 0.765625q-0.46875 0.5 -0.734375 1.21875q-0.265625 0.71875 -0.265625 1.625q0 1.890625 0.921875 2.84375q0.921875 0.9375 2.546875 0.9375q0.75 0 1.4375 -0.15625q0.6875 -0.171875 1.34375 -0.515625l0 1.6875zm12.695068 -4.921875q0 1.21875 -0.34375 2.234375q-0.34375 1.015625 -0.984375 1.75q-0.640625 0.71875 -1.578125 1.125q-0.921875 0.390625 -2.09375 0.390625q-1.125 0 -2.015625 -0.34375q-0.890625 -0.359375 -1.515625 -1.03125q-0.625 -0.671875 -0.953125 -1.671875q-0.328125 -1.0 -0.328125 -2.3125q0 -1.21875 0.34375 -2.21875q0.34375 -1.0 0.984375 -1.71875q0.65625 -0.734375 1.578125 -1.125q0.9375 -0.40625 2.109375 -0.40625q1.125 0 2.015625 0.34375q0.890625 0.34375 1.5 1.015625q0.625 0.671875 0.953125 1.671875q0.328125 1.0 0.328125 2.296875zm-1.84375 0.078125q0 -0.96875 -0.21875 -1.6875q-0.21875 -0.71875 -0.609375 -1.203125q-0.390625 -0.484375 -0.96875 -0.734375q-0.5625 -0.25 -1.265625 -0.25q-0.8125 0 -1.390625 0.328125q-0.578125 0.3125 -0.953125 0.84375q-0.359375 0.53125 -0.53125 1.234375q-0.171875 0.703125 -0.171875 1.46875q0 0.96875 0.203125 1.703125q0.21875 0.734375 0.609375 1.21875q0.40625 0.484375 0.96875 0.734375q0.5625 0.234375 1.265625 0.234375q0.8125 0 1.390625 -0.3125q0.578125 -0.328125 0.953125 -0.859375q0.375 -0.53125 0.546875 -1.234375q0.171875 -0.703125 0.171875 -1.484375zm4.8981934 -5.21875l1.65625 0l0.046875 1.921875q0.9375 -1.109375 1.828125 -1.609375q0.90625 -0.5 1.828125 -0.5q1.625 0 2.453125 1.046875q0.84375 1.046875 0.78125 3.125l-1.828125 0q0.03125 -1.375 -0.40625 -1.984375q-0.4375 -0.625 -1.265625 -0.625q-0.359375 0 -0.734375 0.125q-0.375 0.125 -0.765625 0.421875q-0.390625 0.28125 -0.828125 0.734375q-0.4375 0.4375 -0.9375 1.078125l0 6.71875l-1.828125 0l0 -10.453125zm20.132507 4.671875q0 0.390625 -0.015625 0.65625q0 0.25 -0.03125 0.484375l-7.34375 0q0 1.59375 0.890625 2.453125q0.90625 0.859375 2.59375 0.859375q0.453125 0 0.90625 -0.03125q0.46875 -0.03125 0.890625 -0.09375q0.4375 -0.0625 0.828125 -0.140625q0.390625 -0.078125 0.71875 -0.171875l0 1.484375q-0.734375 0.203125 -1.671875 0.328125q-0.9375 0.140625 -1.9375 0.140625q-1.34375 0 -2.3125 -0.359375q-0.96875 -0.375 -1.59375 -1.0625q-0.609375 -0.6875 -0.90625 -1.6875q-0.296875 -1.015625 -0.296875 -2.28125q0 -1.109375 0.3125 -2.09375q0.328125 -0.984375 0.9375 -1.71875q0.609375 -0.75 1.484375 -1.1875q0.890625 -0.4375 2.015625 -0.4375q1.09375 0 1.9375 0.34375q0.84375 0.34375 1.421875 0.96875q0.578125 0.625 0.875 1.53125q0.296875 0.90625 0.296875 2.015625zm-1.890625 -0.265625q0.03125 -0.6875 -0.140625 -1.265625q-0.15625 -0.578125 -0.515625 -1.0q-0.34375 -0.421875 -0.859375 -0.65625q-0.515625 -0.234375 -1.203125 -0.234375q-0.59375 0 -1.09375 0.234375q-0.484375 0.234375 -0.84375 0.65625q-0.34375 0.40625 -0.5625 1.0q-0.21875 0.578125 -0.28125 1.265625l5.5 0z" fill-rule="nonzero"/><path fill="#000000" fill-opacity="0.0" d="m288.70865 227.9396l149.10239 0l0 69.79529l-149.10239 0z" fill-rule="evenodd"/><path stroke="#000000" stroke-width="1.0" stroke-linejoin="round" stroke-linecap="butt" d="m288.70865 227.9396l149.10239 0l0 69.79529l-149.10239 0z" fill-rule="evenodd"/><path fill="#595959" d="m329.7528 246.96648l1.609375 0l0.078125 1.6875q0.453125 -0.546875 0.875 -0.90625q0.4375 -0.359375 0.84375 -0.578125q0.40625 -0.21875 0.828125 -0.296875q0.4375 -0.09375 0.890625 -0.09375q1.625 0 2.453125 0.953125q0.828125 0.953125 0.828125 2.859375l0 6.8281403l-1.8125 0l0 -6.6718903q0 -1.234375 -0.46875 -1.8125q-0.453125 -0.59375 -1.359375 -0.59375q-0.328125 0 -0.65625 0.09375q-0.3125 0.09375 -0.65625 0.34375q-0.34375 0.25 -0.75 0.671875q-0.390625 0.40625 -0.890625 1.03125l0 6.9375153l-1.8125 0l0 -10.45314zm20.132538 10.45314l-1.625 0l-0.0625 -1.6875153q-0.46875 0.54689026 -0.890625 0.90626526q-0.421875 0.359375 -0.84375 0.578125q-0.421875 0.21875 -0.84375 0.296875q-0.421875 0.09375 -0.890625 0.09375q-1.609375 0 -2.4375 -0.9375q-0.8125 -0.95314026 -0.8125 -2.8750153l0 -6.828125l1.8125 0l0 6.6875q0 2.4062653 1.8125 2.4062653q0.328125 0 0.640625 -0.09376526q0.328125 -0.109375 0.671875 -0.34375q0.34375 -0.25 0.75 -0.671875q0.40625 -0.421875 0.90625 -1.046875l0 -6.9375l1.8125 0l0 10.45314zm10.038818 0l-0.046875 -1.40625q-0.859375 0.84375 -1.734375 1.21875q-0.875 0.375 -1.84375 0.375q-0.90625 0 -1.546875 -0.21875q-0.625 -0.234375 -1.046875 -0.640625q-0.40625 -0.40625 -0.59375 -0.93751526q-0.1875 -0.546875 -0.1875 -1.1875q0 -1.5625 1.171875 -2.453125q1.171875 -0.890625 3.453125 -0.890625l2.171875 0l0 -0.921875q0 -0.921875 -0.59375 -1.484375q-0.59375 -0.5625 -1.8125 -0.5625q-0.890625 0 -1.75 0.203125q-0.859375 0.203125 -1.765625 0.5625l0 -1.640625q0.34375 -0.125 0.765625 -0.234375q0.421875 -0.125 0.890625 -0.21875q0.46875 -0.09375 0.96875 -0.140625q0.515625 -0.0625 1.03125 -0.0625q0.953125 0 1.703125 0.203125q0.765625 0.203125 1.296875 0.640625q0.53125 0.421875 0.8125 1.078125q0.28125 0.640625 0.28125 1.515625l0 7.2031403l-1.625 0zm-0.203125 -4.7656403l-2.296875 0q-0.6875 0 -1.171875 0.140625q-0.484375 0.140625 -0.796875 0.390625q-0.3125 0.25 -0.46875 0.59375q-0.15625 0.34375 -0.15625 0.78125q0 0.3125 0.09375 0.59375q0.09375 0.265625 0.296875 0.484375q0.21875 0.203125 0.546875 0.328125q0.34375 0.12501526 0.8125 0.12501526q0.625 0 1.4375 -0.37501526q0.8125 -0.375 1.703125 -1.203125l0 -1.859375zm5.210663 -5.6875l1.609375 0l0.078125 1.6875q0.453125 -0.546875 0.875 -0.90625q0.4375 -0.359375 0.84375 -0.578125q0.40625 -0.21875 0.828125 -0.296875q0.4375 -0.09375 0.890625 -0.09375q1.625 0 2.453125 0.953125q0.828125 0.953125 0.828125 2.859375l0 6.8281403l-1.8125 0l0 -6.6718903q0 -1.234375 -0.46875 -1.8125q-0.453125 -0.59375 -1.359375 -0.59375q-0.328125 0 -0.65625 0.09375q-0.3125 0.09375 -0.65625 0.34375q-0.34375 0.25 -0.75 0.671875q-0.390625 0.40625 -0.890625 1.03125l0 6.9375153l-1.8125 0l0 -10.45314zm19.851318 10.062515q-0.71875 0.28125 -1.46875 0.40625q-0.734375 0.125 -1.53125 0.125q-2.46875 0 -3.8125 -1.34375q-1.34375 -1.3437653 -1.34375 -3.9218903q0 -1.234375 0.390625 -2.25q0.390625 -1.015625 1.078125 -1.734375q0.703125 -0.71875 1.671875 -1.109375q0.96875 -0.390625 2.140625 -0.390625q0.8125 0 1.515625 0.125q0.703125 0.109375 1.359375 0.375l0 1.71875q-0.6875 -0.34375 -1.390625 -0.5q-0.703125 -0.171875 -1.453125 -0.171875q-0.6875 0 -1.3125 0.265625q-0.625 0.265625 -1.09375 0.765625q-0.46875 0.5 -0.734375 1.21875q-0.265625 0.71875 -0.265625 1.625q0 1.890625 0.921875 2.84375q0.921875 0.93751526 2.546875 0.93751526q0.75 0 1.4375 -0.15626526q0.6875 -0.171875 1.34375 -0.515625l0 1.6875153zm12.429413 -5.3906403q0 0.390625 -0.015625 0.65625q0 0.25 -0.03125 0.484375l-7.34375 0q0 1.59375 0.890625 2.453125q0.90625 0.85939026 2.59375 0.85939026q0.453125 0 0.90625 -0.03125q0.46875 -0.03125 0.890625 -0.09376526q0.4375 -0.0625 0.828125 -0.140625q0.390625 -0.078125 0.71875 -0.171875l0 1.4843903q-0.734375 0.203125 -1.671875 0.328125q-0.9375 0.140625 -1.9375 0.140625q-1.34375 0 -2.3125 -0.359375q-0.96875 -0.375 -1.59375 -1.0625q-0.609375 -0.68751526 -0.90625 -1.6875153q-0.296875 -1.015625 -0.296875 -2.28125q0 -1.109375 0.3125 -2.09375q0.328125 -0.984375 0.9375 -1.71875q0.609375 -0.75 1.484375 -1.1875q0.890625 -0.4375 2.015625 -0.4375q1.09375 0 1.9375 0.34375q0.84375 0.34375 1.421875 0.96875q0.578125 0.625 0.875 1.53125q0.296875 0.90625 0.296875 2.015625zm-1.890625 -0.265625q0.03125 -0.6875 -0.140625 -1.265625q-0.15625 -0.578125 -0.515625 -1.0q-0.34375 -0.421875 -0.859375 -0.65625q-0.515625 -0.234375 -1.203125 -0.234375q-0.59375 0 -1.09375 0.234375q-0.484375 0.234375 -0.84375 0.65625q-0.34375 0.40625 -0.5625 1.0q-0.21875 0.578125 -0.28125 1.265625l5.5 0z" fill-rule="nonzero"/><path fill="#595959" d="m299.9058 278.00397q0 -1.328125 0.359375 -2.359375q0.359375 -1.046875 1.03125 -1.75q0.671875 -0.71875 1.609375 -1.078125q0.953125 -0.375 2.109375 -0.375q0.5 0 0.984375 0.0625q0.484375 0.0625 0.953125 0.1875l0 -4.390625l1.828125 0l0 14.71875l-1.625 0l-0.0625 -1.984375q-0.765625 1.109375 -1.65625 1.640625q-0.875 0.53125 -1.90625 0.53125q-0.90625 0 -1.59375 -0.375q-0.671875 -0.375 -1.125 -1.046875q-0.453125 -0.6875 -0.6875 -1.640625q-0.21875 -0.96875 -0.21875 -2.140625zm1.84375 -0.109375q0 1.890625 0.5625 2.828125q0.5625 0.9375 1.578125 0.9375q0.6875 0 1.453125 -0.609375q0.765625 -0.625 1.609375 -1.828125l0 -4.859375q-0.453125 -0.203125 -1.0 -0.3125q-0.53125 -0.109375 -1.0625 -0.109375q-1.484375 0 -2.3125 0.953125q-0.828125 0.953125 -0.828125 3.0zm19.241943 -0.65625q0 0.390625 -0.015625 0.65625q0 0.25 -0.03125 0.484375l-7.34375 0q0 1.59375 0.890625 2.453125q0.90625 0.859375 2.59375 0.859375q0.453125 0 0.90625 -0.03125q0.46875 -0.03125 0.890625 -0.09375q0.4375 -0.0625 0.828125 -0.140625q0.390625 -0.078125 0.71875 -0.171875l0 1.484375q-0.734375 0.203125 -1.671875 0.328125q-0.9375 0.140625 -1.9375 0.140625q-1.34375 0 -2.3125 -0.359375q-0.96875 -0.375 -1.59375 -1.0625q-0.609375 -0.6875 -0.90625 -1.6875q-0.296875 -1.015625 -0.296875 -2.28125q0 -1.109375 0.3125 -2.09375q0.328125 -0.984375 0.9375 -1.71875q0.609375 -0.75 1.484375 -1.1875q0.890625 -0.4375 2.015625 -0.4375q1.09375 0 1.9375 0.34375q0.84375 0.34375 1.421875 0.96875q0.578125 0.625 0.875 1.53125q0.296875 0.90625 0.296875 2.015625zm-1.890625 -0.265625q0.03125 -0.6875 -0.140625 -1.265625q-0.15625 -0.578125 -0.515625 -1.0q-0.34375 -0.421875 -0.859375 -0.65625q-0.515625 -0.234375 -1.203125 -0.234375q-0.59375 0 -1.09375 0.234375q-0.484375 0.234375 -0.84375 0.65625q-0.34375 0.40625 -0.5625 1.0q-0.21875 0.578125 -0.28125 1.265625l5.5 0zm13.070038 3.1875q0 0.5625 -0.1875 1.0q-0.1875 0.4375 -0.515625 0.78125q-0.328125 0.328125 -0.75 0.578125q-0.421875 0.234375 -0.90625 0.390625q-0.484375 0.15625 -1.0 0.21875q-0.515625 0.078125 -1.0 0.078125q-1.0625 0 -1.953125 -0.09375q-0.890625 -0.09375 -1.75 -0.296875l0 -1.671875q0.921875 0.265625 1.828125 0.40625q0.90625 0.125 1.796875 0.125q1.3125 0 1.9375 -0.34375q0.625 -0.359375 0.625 -1.015625q0 -0.28125 -0.109375 -0.5q-0.09375 -0.234375 -0.359375 -0.4375q-0.25 -0.203125 -0.796875 -0.421875q-0.546875 -0.21875 -1.5 -0.5q-0.703125 -0.203125 -1.3125 -0.46875q-0.59375 -0.265625 -1.03125 -0.625q-0.4375 -0.375 -0.6875 -0.859375q-0.25 -0.5 -0.25 -1.15625q0 -0.4375 0.203125 -0.953125q0.203125 -0.53125 0.6875 -0.96875q0.5 -0.453125 1.328125 -0.75q0.828125 -0.296875 2.078125 -0.296875q0.625 0 1.375 0.0625q0.75 0.0625 1.5625 0.234375l0 1.609375q-0.859375 -0.203125 -1.625 -0.296875q-0.765625 -0.109375 -1.328125 -0.109375q-0.671875 0 -1.140625 0.109375q-0.46875 0.109375 -0.75 0.296875q-0.28125 0.171875 -0.40625 0.421875q-0.125 0.234375 -0.125 0.515625q0 0.28125 0.109375 0.515625q0.109375 0.234375 0.40625 0.453125q0.296875 0.203125 0.828125 0.421875q0.53125 0.203125 1.375 0.453125q0.9375 0.28125 1.5625 0.578125q0.640625 0.296875 1.03125 0.65625q0.40625 0.359375 0.578125 0.828125q0.171875 0.453125 0.171875 1.03125zm11.570068 2.46875q-0.71875 0.28125 -1.46875 0.40625q-0.734375 0.125 -1.53125 0.125q-2.46875 0 -3.8125 -1.34375q-1.34375 -1.34375 -1.34375 -3.921875q0 -1.234375 0.390625 -2.25q0.390625 -1.015625 1.078125 -1.734375q0.703125 -0.71875 1.671875 -1.109375q0.96875 -0.390625 2.140625 -0.390625q0.8125 0 1.515625 0.125q0.703125 0.109375 1.359375 0.375l0 1.71875q-0.6875 -0.34375 -1.390625 -0.5q-0.703125 -0.171875 -1.453125 -0.171875q-0.6875 0 -1.3125 0.265625q-0.625 0.265625 -1.09375 0.765625q-0.46875 0.5 -0.734375 1.21875q-0.265625 0.71875 -0.265625 1.625q0 1.890625 0.921875 2.84375q0.921875 0.9375 2.546875 0.9375q0.75 0 1.4375 -0.15625q0.6875 -0.171875 1.34375 -0.515625l0 1.6875zm4.023163 -10.0625l1.65625 0l0.046875 1.921875q0.9375 -1.109375 1.828125 -1.609375q0.90625 -0.5 1.828125 -0.5q1.625 0 2.453125 1.046875q0.84375 1.046875 0.78125 3.125l-1.828125 0q0.03125 -1.375 -0.40625 -1.984375q-0.4375 -0.625 -1.265625 -0.625q-0.359375 0 -0.734375 0.125q-0.375 0.125 -0.765625 0.421875q-0.390625 0.28125 -0.828125 0.734375q-0.4375 0.4375 -0.9375 1.078125l0 6.71875l-1.828125 0l0 -10.453125zm14.866943 1.5l-3.09375 0l0 -1.5l4.921875 0l0 8.9375l3.109375 0l0 1.515625l-8.375 0l0 -1.515625l3.4375 0l0 -7.4375zm0.625 -5.890625q0.3125 0 0.5625 0.109375q0.265625 0.109375 0.453125 0.3125q0.203125 0.203125 0.3125 0.453125q0.109375 0.25 0.109375 0.5625q0 0.28125 -0.109375 0.546875q-0.109375 0.265625 -0.3125 0.46875q-0.1875 0.1875 -0.453125 0.296875q-0.25 0.109375 -0.5625 0.109375q-0.296875 0 -0.5625 -0.109375q-0.25 -0.109375 -0.453125 -0.296875q-0.1875 -0.203125 -0.296875 -0.46875q-0.109375 -0.265625 -0.109375 -0.546875q0 -0.3125 0.109375 -0.5625q0.109375 -0.25 0.296875 -0.453125q0.203125 -0.203125 0.453125 -0.3125q0.265625 -0.109375 0.5625 -0.109375zm16.476288 9.421875q0 1.40625 -0.390625 2.453125q-0.390625 1.03125 -1.078125 1.71875q-0.6875 0.6875 -1.625 1.03125q-0.9375 0.34375 -2.03125 0.34375q-0.5 0 -1.0 -0.0625q-0.5 -0.046875 -1.0 -0.171875l0 4.375l-1.8125 0l0 -14.71875l1.609375 0l0.109375 1.75q0.78125 -1.078125 1.671875 -1.5q0.890625 -0.4375 1.921875 -0.4375q0.890625 0 1.5625 0.375q0.6875 0.375 1.140625 1.0625q0.453125 0.671875 0.6875 1.640625q0.234375 0.953125 0.234375 2.140625zm-1.859375 0.09375q0 -0.828125 -0.125 -1.515625q-0.109375 -0.6875 -0.375 -1.171875q-0.265625 -0.5 -0.671875 -0.765625q-0.40625 -0.28125 -0.96875 -0.28125q-0.34375 0 -0.703125 0.109375q-0.34375 0.109375 -0.734375 0.375q-0.375 0.25 -0.796875 0.671875q-0.421875 0.421875 -0.890625 1.046875l0 5.0625q0.5 0.21875 1.046875 0.34375q0.546875 0.109375 1.078125 0.109375q1.46875 0 2.296875 -0.984375q0.84375 -1.0 0.84375 -3.0zm13.070068 5.1875q-0.609375 0.15625 -1.265625 0.21875q-0.65625 0.0625 -1.34375 0.0625q-1.96875 0 -2.9375 -0.890625q-0.96875 -0.890625 -0.96875 -2.734375l0 -5.453125l-2.921875 0l0 -1.515625l2.921875 0l0 -2.875l1.8125 -0.46875l0 3.34375l4.703125 0l0 1.515625l-4.703125 0l0 5.3125q0 1.125 0.59375 1.6875q0.609375 0.546875 1.78125 0.546875q0.5 0 1.09375 -0.078125q0.59375 -0.078125 1.234375 -0.234375l0 1.5625zm6.866913 -8.8125l-3.09375 0l0 -1.5l4.921875 0l0 8.9375l3.109375 0l0 1.515625l-8.375 0l0 -1.515625l3.4375 0l0 -7.4375zm0.625 -5.890625q0.3125 0 0.5625 0.109375q0.265625 0.109375 0.453125 0.3125q0.203125 0.203125 0.3125 0.453125q0.109375 0.25 0.109375 0.5625q0 0.28125 -0.109375 0.546875q-0.109375 0.265625 -0.3125 0.46875q-0.1875 0.1875 -0.453125 0.296875q-0.25 0.109375 -0.5625 0.109375q-0.296875 0 -0.5625 -0.109375q-0.25 -0.109375 -0.453125 -0.296875q-0.1875 -0.203125 -0.296875 -0.46875q-0.109375 -0.265625 -0.109375 -0.546875q0 -0.3125 0.109375 -0.5625q0.109375 -0.25 0.296875 -0.453125q0.203125 -0.203125 0.453125 -0.3125q0.265625 -0.109375 0.5625 -0.109375zm16.632568 9.53125q0 1.21875 -0.34375 2.234375q-0.34375 1.015625 -0.984375 1.75q-0.640625 0.71875 -1.578125 1.125q-0.921875 0.390625 -2.09375 0.390625q-1.125 0 -2.015625 -0.34375q-0.890625 -0.359375 -1.515625 -1.03125q-0.625 -0.671875 -0.953125 -1.671875q-0.328125 -1.0 -0.328125 -2.3125q0 -1.21875 0.34375 -2.21875q0.34375 -1.0 0.984375 -1.71875q0.65625 -0.734375 1.578125 -1.125q0.9375 -0.40625 2.109375 -0.40625q1.125 0 2.015625 0.34375q0.890625 0.34375 1.5 1.015625q0.625 0.671875 0.953125 1.671875q0.328125 1.0 0.328125 2.296875zm-1.84375 0.078125q0 -0.96875 -0.21875 -1.6875q-0.21875 -0.71875 -0.609375 -1.203125q-0.390625 -0.484375 -0.96875 -0.734375q-0.5625 -0.25 -1.265625 -0.25q-0.8125 0 -1.390625 0.328125q-0.578125 0.3125 -0.953125 0.84375q-0.359375 0.53125 -0.53125 1.234375q-0.171875 0.703125 -0.171875 1.46875q0 0.96875 0.203125 1.703125q0.21875 0.734375 0.609375 1.21875q0.40625 0.484375 0.96875 0.734375q0.5625 0.234375 1.265625 0.234375q0.8125 0 1.390625 -0.3125q0.578125 -0.328125 0.953125 -0.859375q0.375 -0.53125 0.546875 -1.234375q0.171875 -0.703125 0.171875 -1.484375zm4.476288 -5.21875l1.609375 0l0.078125 1.6875q0.453125 -0.546875 0.875 -0.90625q0.4375 -0.359375 0.84375 -0.578125q0.40625 -0.21875 0.828125 -0.296875q0.4375 -0.09375 0.890625 -0.09375q1.625 0 2.453125 0.953125q0.828125 0.953125 0.828125 2.859375l0 6.828125l-1.8125 0l0 -6.671875q0 -1.234375 -0.46875 -1.8125q-0.453125 -0.59375 -1.359375 -0.59375q-0.328125 0 -0.65625 0.09375q-0.3125 0.09375 -0.65625 0.34375q-0.34375 0.25 -0.75 0.671875q-0.390625 0.40625 -0.890625 1.03125l0 6.9375l-1.8125 0l0 -10.453125z" fill-rule="nonzero"/><path fill="#000000" fill-opacity="0.0" d="m288.70865 127.0236l149.10239 0l0 69.79528l-149.10239 0z" fill-rule="evenodd"/><path stroke="#000000" stroke-width="1.0" stroke-linejoin="round" stroke-linecap="butt" d="m288.70865 127.0236l149.10239 0l0 69.79528l-149.10239 0z" fill-rule="evenodd"/><path fill="#595959" d="m320.4446 153.64423q0 0.5625 -0.1875 1.0q-0.1875 0.4375 -0.515625 0.78125q-0.328125 0.328125 -0.75 0.578125q-0.421875 0.234375 -0.90625 0.390625q-0.484375 0.15625 -1.0 0.21875q-0.515625 0.078125 -1.0 0.078125q-1.0625 0 -1.953125 -0.09375q-0.890625 -0.09375 -1.75 -0.296875l0 -1.671875q0.921875 0.265625 1.828125 0.40625q0.90625 0.125 1.796875 0.125q1.3125 0 1.9375 -0.34375q0.625 -0.359375 0.625 -1.015625q0 -0.28125 -0.109375 -0.5q-0.09375 -0.234375 -0.359375 -0.4375q-0.25 -0.203125 -0.796875 -0.421875q-0.546875 -0.21875 -1.5 -0.5q-0.703125 -0.203125 -1.3125 -0.46875q-0.59375 -0.265625 -1.03125 -0.625q-0.4375 -0.375 -0.6875 -0.859375q-0.25 -0.5 -0.25 -1.15625q0 -0.4375 0.203125 -0.953125q0.203125 -0.53125 0.6875 -0.96875q0.5 -0.453125 1.328125 -0.75q0.828125 -0.296875 2.078125 -0.296875q0.625 0 1.375 0.0625q0.75 0.0625 1.5625 0.234375l0 1.609375q-0.859375 -0.203125 -1.625 -0.296875q-0.765625 -0.109375 -1.328125 -0.109375q-0.671875 0 -1.140625 0.109375q-0.46875 0.109375 -0.75 0.296875q-0.28125 0.171875 -0.40625 0.421875q-0.125 0.234375 -0.125 0.515625q0 0.28125 0.109375 0.515625q0.109375 0.234375 0.40625 0.453125q0.296875 0.203125 0.828125 0.421875q0.53125 0.203125 1.375 0.453125q0.9375 0.28125 1.5625 0.578125q0.640625 0.296875 1.03125 0.65625q0.40625 0.359375 0.578125 0.828125q0.171875 0.453125 0.171875 1.03125zm11.851288 2.859375l-1.8125 0l0 -6.671875q0 -1.21875 -0.453125 -1.8125q-0.453125 -0.59375 -1.296875 -0.59375q-0.375 0 -0.6875 0.09375q-0.3125 0.09375 -0.65625 0.34375q-0.34375 0.25 -0.75 0.671875q-0.40625 0.40625 -0.9375 1.03125l0 6.9375l-1.8125 0l0 -14.71875l1.8125 0l0 4.265625l-0.0625 1.640625q0.421875 -0.515625 0.828125 -0.859375q0.421875 -0.34375 0.828125 -0.5625q0.40625 -0.21875 0.828125 -0.3125q0.4375 -0.09375 0.890625 -0.09375q1.5625 0 2.421875 0.953125q0.859375 0.953125 0.859375 2.859375l0 6.828125zm12.413818 -5.3125q0 1.21875 -0.34375 2.234375q-0.34375 1.015625 -0.984375 1.75q-0.640625 0.71875 -1.578125 1.125q-0.921875 0.390625 -2.09375 0.390625q-1.125 0 -2.015625 -0.34375q-0.890625 -0.359375 -1.515625 -1.03125q-0.625 -0.671875 -0.953125 -1.671875q-0.328125 -1.0 -0.328125 -2.3125q0 -1.21875 0.34375 -2.21875q0.34375 -1.0 0.984375 -1.71875q0.65625 -0.734375 1.578125 -1.125q0.9375 -0.40625 2.109375 -0.40625q1.125 0 2.015625 0.34375q0.890625 0.34375 1.5 1.015625q0.625 0.671875 0.953125 1.671875q0.328125 1.0 0.328125 2.296875zm-1.84375 0.078125q0 -0.96875 -0.21875 -1.6875q-0.21875 -0.71875 -0.609375 -1.203125q-0.390625 -0.484375 -0.96875 -0.734375q-0.5625 -0.25 -1.265625 -0.25q-0.8125 0 -1.390625 0.328125q-0.578125 0.3125 -0.953125 0.84375q-0.359375 0.53125 -0.53125 1.234375q-0.171875 0.703125 -0.171875 1.46875q0 0.96875 0.203125 1.703125q0.21875 0.734375 0.609375 1.21875q0.40625 0.484375 0.96875 0.734375q0.5625 0.234375 1.265625 0.234375q0.8125 0 1.390625 -0.3125q0.578125 -0.328125 0.953125 -0.859375q0.375 -0.53125 0.546875 -1.234375q0.171875 -0.703125 0.171875 -1.484375zm4.898163 -5.21875l1.65625 0l0.046875 1.921875q0.9375 -1.109375 1.828125 -1.609375q0.90625 -0.5 1.828125 -0.5q1.625 0 2.453125 1.046875q0.84375 1.046875 0.78125 3.125l-1.828125 0q0.03125 -1.375 -0.40625 -1.984375q-0.4375 -0.625 -1.265625 -0.625q-0.359375 0 -0.734375 0.125q-0.375 0.125 -0.765625 0.421875q-0.390625 0.28125 -0.828125 0.734375q-0.4375 0.4375 -0.9375 1.078125l0 6.71875l-1.828125 0l0 -10.453125zm19.726318 10.3125q-0.609375 0.15625 -1.265625 0.21875q-0.65625 0.0625 -1.34375 0.0625q-1.96875 0 -2.9375 -0.890625q-0.96875 -0.890625 -0.96875 -2.734375l0 -5.453125l-2.921875 0l0 -1.515625l2.921875 0l0 -2.875l1.8125 -0.46875l0 3.34375l4.703125 0l0 1.515625l-4.703125 0l0 5.3125q0 1.125 0.59375 1.6875q0.609375 0.546875 1.78125 0.546875q0.5 0 1.09375 -0.078125q0.59375 -0.078125 1.234375 -0.234375l0 1.5625zm11.710663 0.140625l-1.8125 0l0 -6.671875q0 -1.21875 -0.453125 -1.8125q-0.453125 -0.59375 -1.296875 -0.59375q-0.375 0 -0.6875 0.09375q-0.3125 0.09375 -0.65625 0.34375q-0.34375 0.25 -0.75 0.671875q-0.40625 0.40625 -0.9375 1.03125l0 6.9375l-1.8125 0l0 -14.71875l1.8125 0l0 4.265625l-0.0625 1.640625q0.421875 -0.515625 0.828125 -0.859375q0.421875 -0.34375 0.828125 -0.5625q0.40625 -0.21875 0.828125 -0.3125q0.4375 -0.09375 0.890625 -0.09375q1.5625 0 2.421875 0.953125q0.859375 0.953125 0.859375 2.859375l0 6.828125zm10.038818 0l-0.046875 -1.40625q-0.859375 0.84375 -1.734375 1.21875q-0.875 0.375 -1.84375 0.375q-0.90625 0 -1.546875 -0.21875q-0.625 -0.234375 -1.046875 -0.640625q-0.40625 -0.40625 -0.59375 -0.9375q-0.1875 -0.546875 -0.1875 -1.1875q0 -1.5625 1.171875 -2.453125q1.171875 -0.890625 3.453125 -0.890625l2.171875 0l0 -0.921875q0 -0.921875 -0.59375 -1.484375q-0.59375 -0.5625 -1.8125 -0.5625q-0.890625 0 -1.75 0.203125q-0.859375 0.203125 -1.765625 0.5625l0 -1.640625q0.34375 -0.125 0.765625 -0.234375q0.421875 -0.125 0.890625 -0.21875q0.46875 -0.09375 0.96875 -0.140625q0.515625 -0.0625 1.03125 -0.0625q0.953125 0 1.703125 0.203125q0.765625 0.203125 1.296875 0.640625q0.53125 0.421875 0.8125 1.078125q0.28125 0.640625 0.28125 1.515625l0 7.203125l-1.625 0zm-0.203125 -4.765625l-2.296875 0q-0.6875 0 -1.171875 0.140625q-0.484375 0.140625 -0.796875 0.390625q-0.3125 0.25 -0.46875 0.59375q-0.15625 0.34375 -0.15625 0.78125q0 0.3125 0.09375 0.59375q0.09375 0.265625 0.296875 0.484375q0.21875 0.203125 0.546875 0.328125q0.34375 0.125 0.8125 0.125q0.625 0 1.4375 -0.375q0.8125 -0.375 1.703125 -1.203125l0 -1.859375zm5.210663 -5.6875l1.609375 0l0.078125 1.6875q0.453125 -0.546875 0.875 -0.90625q0.4375 -0.359375 0.84375 -0.578125q0.40625 -0.21875 0.828125 -0.296875q0.4375 -0.09375 0.890625 -0.09375q1.625 0 2.453125 0.953125q0.828125 0.953125 0.828125 2.859375l0 6.828125l-1.8125 0l0 -6.671875q0 -1.234375 -0.46875 -1.8125q-0.453125 -0.59375 -1.359375 -0.59375q-0.328125 0 -0.65625 0.09375q-0.3125 0.09375 -0.65625 0.34375q-0.34375 0.25 -0.75 0.671875q-0.390625 0.40625 -0.890625 1.03125l0 6.9375l-1.8125 0l0 -10.453125zm11.195068 5.4375q0 -1.328125 0.359375 -2.359375q0.359375 -1.046875 1.03125 -1.75q0.671875 -0.71875 1.609375 -1.078125q0.953125 -0.375 2.109375 -0.375q0.5 0 0.984375 0.0625q0.484375 0.0625 0.953125 0.1875l0 -4.390625l1.828125 0l0 14.71875l-1.625 0l-0.0625 -1.984375q-0.765625 1.109375 -1.65625 1.640625q-0.875 0.53125 -1.90625 0.53125q-0.90625 0 -1.59375 -0.375q-0.671875 -0.375 -1.125 -1.046875q-0.453125 -0.6875 -0.6875 -1.640625q-0.21875 -0.96875 -0.21875 -2.140625zm1.84375 -0.109375q0 1.890625 0.5625 2.828125q0.5625 0.9375 1.578125 0.9375q0.6875 0 1.453125 -0.609375q0.765625 -0.625 1.609375 -1.828125l0 -4.859375q-0.453125 -0.203125 -1.0 -0.3125q-0.53125 -0.109375 -1.0625 -0.109375q-1.484375 0 -2.3125 0.953125q-0.828125 0.953125 -0.828125 3.0z" fill-rule="nonzero"/><path fill="#595959" d="m312.16336 171.65047l1.609375 0l0.078125 1.6875q0.453125 -0.546875 0.875 -0.90625q0.4375 -0.359375 0.84375 -0.578125q0.40625 -0.21875 0.828125 -0.296875q0.4375 -0.09375 0.890625 -0.09375q1.625 0 2.453125 0.953125q0.828125 0.953125 0.828125 2.859375l0 6.828125l-1.8125 0l0 -6.671875q0 -1.234375 -0.46875 -1.8125q-0.453125 -0.59375 -1.359375 -0.59375q-0.328125 0 -0.65625 0.09375q-0.3125 0.09375 -0.65625 0.34375q-0.34375 0.25 -0.75 0.671875q-0.390625 0.40625 -0.890625 1.03125l0 6.9375l-1.8125 0l0 -10.453125zm20.820038 5.140625q0 1.21875 -0.34375 2.234375q-0.34375 1.015625 -0.984375 1.75q-0.640625 0.71875 -1.578125 1.125q-0.921875 0.390625 -2.09375 0.390625q-1.125 0 -2.015625 -0.34375q-0.890625 -0.359375 -1.515625 -1.03125q-0.625 -0.671875 -0.953125 -1.671875q-0.328125 -1.0 -0.328125 -2.3125q0 -1.21875 0.34375 -2.21875q0.34375 -1.0 0.984375 -1.71875q0.65625 -0.734375 1.578125 -1.125q0.9375 -0.40625 2.109375 -0.40625q1.125 0 2.015625 0.34375q0.890625 0.34375 1.5 1.015625q0.625 0.671875 0.953125 1.671875q0.328125 1.0 0.328125 2.296875zm-1.84375 0.078125q0 -0.96875 -0.21875 -1.6875q-0.21875 -0.71875 -0.609375 -1.203125q-0.390625 -0.484375 -0.96875 -0.734375q-0.5625 -0.25 -1.265625 -0.25q-0.8125 0 -1.390625 0.328125q-0.578125 0.3125 -0.953125 0.84375q-0.359375 0.53125 -0.53125 1.234375q-0.171875 0.703125 -0.171875 1.46875q0 0.96875 0.203125 1.703125q0.21875 0.734375 0.609375 1.21875q0.40625 0.484375 0.96875 0.734375q0.5625 0.234375 1.265625 0.234375q0.8125 0 1.390625 -0.3125q0.578125 -0.328125 0.953125 -0.859375q0.375 -0.53125 0.546875 -1.234375q0.171875 -0.703125 0.171875 -1.484375zm12.898193 5.09375q-0.609375 0.15625 -1.265625 0.21875q-0.65625 0.0625 -1.34375 0.0625q-1.96875 0 -2.9375 -0.890625q-0.96875 -0.890625 -0.96875 -2.734375l0 -5.453125l-2.921875 0l0 -1.515625l2.921875 0l0 -2.875l1.8125 -0.46875l0 3.34375l4.703125 0l0 1.515625l-4.703125 0l0 5.3125q0 1.125 0.59375 1.6875q0.609375 0.546875 1.78125 0.546875q0.5 0 1.09375 -0.078125q0.59375 -0.078125 1.234375 -0.234375l0 1.5625zm10.023163 0.140625l-0.046875 -1.40625q-0.859375 0.84375 -1.734375 1.21875q-0.875 0.375 -1.84375 0.375q-0.90625 0 -1.546875 -0.21875q-0.625 -0.234375 -1.046875 -0.640625q-0.40625 -0.40625 -0.59375 -0.9375q-0.1875 -0.546875 -0.1875 -1.1875q0 -1.5625 1.171875 -2.453125q1.171875 -0.890625 3.453125 -0.890625l2.171875 0l0 -0.921875q0 -0.921875 -0.59375 -1.484375q-0.59375 -0.5625 -1.8125 -0.5625q-0.890625 0 -1.75 0.203125q-0.859375 0.203125 -1.765625 0.5625l0 -1.640625q0.34375 -0.125 0.765625 -0.234375q0.421875 -0.125 0.890625 -0.21875q0.46875 -0.09375 0.96875 -0.140625q0.515625 -0.0625 1.03125 -0.0625q0.953125 0 1.703125 0.203125q0.765625 0.203125 1.296875 0.640625q0.53125 0.421875 0.8125 1.078125q0.28125 0.640625 0.28125 1.515625l0 7.203125l-1.625 0zm-0.203125 -4.765625l-2.296875 0q-0.6875 0 -1.171875 0.140625q-0.484375 0.140625 -0.796875 0.390625q-0.3125 0.25 -0.46875 0.59375q-0.15625 0.34375 -0.15625 0.78125q0 0.3125 0.09375 0.59375q0.09375 0.265625 0.296875 0.484375q0.21875 0.203125 0.546875 0.328125q0.34375 0.125 0.8125 0.125q0.625 0 1.4375 -0.375q0.8125 -0.375 1.703125 -1.203125l0 -1.859375zm13.632568 4.625q-0.609375 0.15625 -1.265625 0.21875q-0.65625 0.0625 -1.34375 0.0625q-1.96875 0 -2.9375 -0.890625q-0.96875 -0.890625 -0.96875 -2.734375l0 -5.453125l-2.921875 0l0 -1.515625l2.921875 0l0 -2.875l1.8125 -0.46875l0 3.34375l4.703125 0l0 1.515625l-4.703125 0l0 5.3125q0 1.125 0.59375 1.6875q0.609375 0.546875 1.78125 0.546875q0.5 0 1.09375 -0.078125q0.59375 -0.078125 1.234375 -0.234375l0 1.5625zm6.866913 -8.8125l-3.09375 0l0 -1.5l4.921875 0l0 8.9375l3.109375 0l0 1.515625l-8.375 0l0 -1.515625l3.4375 0l0 -7.4375zm0.625 -5.890625q0.3125 0 0.5625 0.109375q0.265625 0.109375 0.453125 0.3125q0.203125 0.203125 0.3125 0.453125q0.109375 0.25 0.109375 0.5625q0 0.28125 -0.109375 0.546875q-0.109375 0.265625 -0.3125 0.46875q-0.1875 0.1875 -0.453125 0.296875q-0.25 0.109375 -0.5625 0.109375q-0.296875 0 -0.5625 -0.109375q-0.25 -0.109375 -0.453125 -0.296875q-0.1875 -0.203125 -0.296875 -0.46875q-0.109375 -0.265625 -0.109375 -0.546875q0 -0.3125 0.109375 -0.5625q0.109375 -0.25 0.296875 -0.453125q0.203125 -0.203125 0.453125 -0.3125q0.265625 -0.109375 0.5625 -0.109375zm16.632568 9.53125q0 1.21875 -0.34375 2.234375q-0.34375 1.015625 -0.984375 1.75q-0.640625 0.71875 -1.578125 1.125q-0.921875 0.390625 -2.09375 0.390625q-1.125 0 -2.015625 -0.34375q-0.890625 -0.359375 -1.515625 -1.03125q-0.625 -0.671875 -0.953125 -1.671875q-0.328125 -1.0 -0.328125 -2.3125q0 -1.21875 0.34375 -2.21875q0.34375 -1.0 0.984375 -1.71875q0.65625 -0.734375 1.578125 -1.125q0.9375 -0.40625 2.109375 -0.40625q1.125 0 2.015625 0.34375q0.890625 0.34375 1.5 1.015625q0.625 0.671875 0.953125 1.671875q0.328125 1.0 0.328125 2.296875zm-1.84375 0.078125q0 -0.96875 -0.21875 -1.6875q-0.21875 -0.71875 -0.609375 -1.203125q-0.390625 -0.484375 -0.96875 -0.734375q-0.5625 -0.25 -1.265625 -0.25q-0.8125 0 -1.390625 0.328125q-0.578125 0.3125 -0.953125 0.84375q-0.359375 0.53125 -0.53125 1.234375q-0.171875 0.703125 -0.171875 1.46875q0 0.96875 0.203125 1.703125q0.21875 0.734375 0.609375 1.21875q0.40625 0.484375 0.96875 0.734375q0.5625 0.234375 1.265625 0.234375q0.8125 0 1.390625 -0.3125q0.578125 -0.328125 0.953125 -0.859375q0.375 -0.53125 0.546875 -1.234375q0.171875 -0.703125 0.171875 -1.484375zm4.476288 -5.21875l1.609375 0l0.078125 1.6875q0.453125 -0.546875 0.875 -0.90625q0.4375 -0.359375 0.84375 -0.578125q0.40625 -0.21875 0.828125 -0.296875q0.4375 -0.09375 0.890625 -0.09375q1.625 0 2.453125 0.953125q0.828125 0.953125 0.828125 2.859375l0 6.828125l-1.8125 0l0 -6.671875q0 -1.234375 -0.46875 -1.8125q-0.453125 -0.59375 -1.359375 -0.59375q-0.328125 0 -0.65625 0.09375q-0.3125 0.09375 -0.65625 0.34375q-0.34375 0.25 -0.75 0.671875q-0.390625 0.40625 -0.890625 1.03125l0 6.9375l-1.8125 0l0 -10.453125zm20.007568 7.59375q0 0.5625 -0.1875 1.0q-0.1875 0.4375 -0.515625 0.78125q-0.328125 0.328125 -0.75 0.578125q-0.421875 0.234375 -0.90625 0.390625q-0.484375 0.15625 -1.0 0.21875q-0.515625 0.078125 -1.0 0.078125q-1.0625 0 -1.953125 -0.09375q-0.890625 -0.09375 -1.75 -0.296875l0 -1.671875q0.921875 0.265625 1.828125 0.40625q0.90625 0.125 1.796875 0.125q1.3125 0 1.9375 -0.34375q0.625 -0.359375 0.625 -1.015625q0 -0.28125 -0.109375 -0.5q-0.09375 -0.234375 -0.359375 -0.4375q-0.25 -0.203125 -0.796875 -0.421875q-0.546875 -0.21875 -1.5 -0.5q-0.703125 -0.203125 -1.3125 -0.46875q-0.59375 -0.265625 -1.03125 -0.625q-0.4375 -0.375 -0.6875 -0.859375q-0.25 -0.5 -0.25 -1.15625q0 -0.4375 0.203125 -0.953125q0.203125 -0.53125 0.6875 -0.96875q0.5 -0.453125 1.328125 -0.75q0.828125 -0.296875 2.078125 -0.296875q0.625 0 1.375 0.0625q0.75 0.0625 1.5625 0.234375l0 1.609375q-0.859375 -0.203125 -1.625 -0.296875q-0.765625 -0.109375 -1.328125 -0.109375q-0.671875 0 -1.140625 0.109375q-0.46875 0.109375 -0.75 0.296875q-0.28125 0.171875 -0.40625 0.421875q-0.125 0.234375 -0.125 0.515625q0 0.28125 0.109375 0.515625q0.109375 0.234375 0.40625 0.453125q0.296875 0.203125 0.828125 0.421875q0.53125 0.203125 1.375 0.453125q0.9375 0.28125 1.5625 0.578125q0.640625 0.296875 1.03125 0.65625q0.40625 0.359375 0.578125 0.828125q0.171875 0.453125 0.171875 1.03125z" fill-rule="nonzero"/><path fill="#000000" fill-opacity="0.0" d="m79.57218 127.0236l149.10236 0l0 93.66929l-149.10236 0z" fill-rule="evenodd"/><path stroke="#000000" stroke-width="1.0" stroke-linejoin="round" stroke-linecap="butt" d="m79.57218 127.0236l149.10236 0l0 93.66929l-149.10236 0z" fill-rule="evenodd"/><path fill="#595959" d="m94.86307 147.55048l-3.09375 0l0 -1.5l4.921875 0l0 8.9375l3.109375 0l0 1.515625l-8.375 0l0 -1.515625l3.4375 0l0 -7.4375zm0.625 -5.890625q0.3125 0 0.5625 0.109375q0.265625 0.109375 0.453125 0.3125q0.203125 0.203125 0.3125 0.453125q0.109375 0.25 0.109375 0.5625q0 0.28125 -0.109375 0.546875q-0.109375 0.265625 -0.3125 0.46875q-0.1875 0.1875 -0.453125 0.296875q-0.25 0.109375 -0.5625 0.109375q-0.296875 0 -0.5625 -0.109375q-0.25 -0.109375 -0.453125 -0.296875q-0.1875 -0.203125 -0.296875 -0.46875q-0.109375 -0.265625 -0.109375 -0.546875q0 -0.3125 0.109375 -0.5625q0.109375 -0.25 0.296875 -0.453125q0.203125 -0.203125 0.453125 -0.3125q0.265625 -0.109375 0.5625 -0.109375zm7.538803 4.390625l1.609375 0l0.078125 1.6875q0.453125 -0.546875 0.875 -0.90625q0.4375 -0.359375 0.84375 -0.578125q0.40625 -0.21875 0.828125 -0.296875q0.4375 -0.09375 0.890625 -0.09375q1.625 0 2.453125 0.953125q0.828125 0.953125 0.828125 2.859375l0 6.828125l-1.8125 0l0 -6.671875q0 -1.234375 -0.46875 -1.8125q-0.453125 -0.59375 -1.359375 -0.59375q-0.328125 0 -0.65625 0.09375q-0.3125 0.09375 -0.65625 0.34375q-0.34375 0.25 -0.75 0.671875q-0.390625 0.40625 -0.890625 1.03125l0 6.9375l-1.8125 0l0 -10.453125zm20.148178 10.3125q-0.609375 0.15625 -1.265625 0.21875q-0.65625 0.0625 -1.34375 0.0625q-1.96875 0 -2.9375 -0.890625q-0.96875 -0.890625 -0.96875 -2.734375l0 -5.453125l-2.921875 0l0 -1.515625l2.921875 0l0 -2.875l1.8125 -0.46875l0 3.34375l4.703125 0l0 1.515625l-4.703125 0l0 5.3125q0 1.125 0.59375 1.6875q0.609375 0.546875 1.78125 0.546875q0.5 0 1.09375 -0.078125q0.59375 -0.078125 1.234375 -0.234375l0 1.5625zm12.132553 -5.640625q0 0.390625 -0.015625 0.65625q0 0.25 -0.03125 0.484375l-7.34375 0q0 1.59375 0.890625 2.453125q0.90625 0.859375 2.59375 0.859375q0.453125 0 0.90625 -0.03125q0.46875 -0.03125 0.890625 -0.09375q0.4375 -0.0625 0.828125 -0.140625q0.390625 -0.078125 0.71875 -0.171875l0 1.484375q-0.734375 0.203125 -1.671875 0.328125q-0.9375 0.140625 -1.9375 0.140625q-1.34375 0 -2.3125 -0.359375q-0.96875 -0.375 -1.59375 -1.0625q-0.609375 -0.6875 -0.90625 -1.6875q-0.296875 -1.015625 -0.296875 -2.28125q0 -1.109375 0.3125 -2.09375q0.328125 -0.984375 0.9375 -1.71875q0.609375 -0.75 1.484375 -1.1875q0.890625 -0.4375 2.015625 -0.4375q1.09375 0 1.9375 0.34375q0.84375 0.34375 1.421875 0.96875q0.578125 0.625 0.875 1.53125q0.296875 0.90625 0.296875 2.015625zm-1.890625 -0.265625q0.03125 -0.6875 -0.140625 -1.265625q-0.15625 -0.578125 -0.515625 -1.0q-0.34375 -0.421875 -0.859375 -0.65625q-0.515625 -0.234375 -1.203125 -0.234375q-0.59375 0 -1.09375 0.234375q-0.484375 0.234375 -0.84375 0.65625q-0.34375 0.40625 -0.5625 1.0q-0.21875 0.578125 -0.28125 1.265625l5.5 0zm5.210678 -4.40625l1.65625 0l0.046875 1.921875q0.9375 -1.109375 1.828125 -1.609375q0.90625 -0.5 1.828125 -0.5q1.625 0 2.453125 1.046875q0.84375 1.046875 0.78125 3.125l-1.828125 0q0.03125 -1.375 -0.40625 -1.984375q-0.4375 -0.625 -1.265625 -0.625q-0.359375 0 -0.734375 0.125q-0.375 0.125 -0.765625 0.421875q-0.390625 0.28125 -0.828125 0.734375q-0.4375 0.4375 -0.9375 1.078125l0 6.71875l-1.828125 0l0 -10.453125zm18.023178 10.453125l-0.046875 -1.40625q-0.859375 0.84375 -1.734375 1.21875q-0.875 0.375 -1.84375 0.375q-0.90625 0 -1.546875 -0.21875q-0.625 -0.234375 -1.046875 -0.640625q-0.40625 -0.40625 -0.59375 -0.9375q-0.1875 -0.546875 -0.1875 -1.1875q0 -1.5625 1.171875 -2.453125q1.171875 -0.890625 3.453125 -0.890625l2.171875 0l0 -0.921875q0 -0.921875 -0.59375 -1.484375q-0.59375 -0.5625 -1.8125 -0.5625q-0.890625 0 -1.75 0.203125q-0.859375 0.203125 -1.765625 0.5625l0 -1.640625q0.34375 -0.125 0.765625 -0.234375q0.421875 -0.125 0.890625 -0.21875q0.46875 -0.09375 0.96875 -0.140625q0.515625 -0.0625 1.03125 -0.0625q0.953125 0 1.703125 0.203125q0.765625 0.203125 1.296875 0.640625q0.53125 0.421875 0.8125 1.078125q0.28125 0.640625 0.28125 1.515625l0 7.203125l-1.625 0zm-0.203125 -4.765625l-2.296875 0q-0.6875 0 -1.171875 0.140625q-0.484375 0.140625 -0.796875 0.390625q-0.3125 0.25 -0.46875 0.59375q-0.15625 0.34375 -0.15625 0.78125q0 0.3125 0.09375 0.59375q0.09375 0.265625 0.296875 0.484375q0.21875 0.203125 0.546875 0.328125q0.34375 0.125 0.8125 0.125q0.625 0 1.4375 -0.375q0.8125 -0.375 1.703125 -1.203125l0 -1.859375zm13.335678 4.375q-0.71875 0.28125 -1.46875 0.40625q-0.734375 0.125 -1.53125 0.125q-2.46875 0 -3.8125 -1.34375q-1.34375 -1.34375 -1.34375 -3.921875q0 -1.234375 0.390625 -2.25q0.390625 -1.015625 1.078125 -1.734375q0.703125 -0.71875 1.671875 -1.109375q0.96875 -0.390625 2.140625 -0.390625q0.8125 0 1.515625 0.125q0.703125 0.109375 1.359375 0.375l0 1.71875q-0.6875 -0.34375 -1.390625 -0.5q-0.703125 -0.171875 -1.453125 -0.171875q-0.6875 0 -1.3125 0.265625q-0.625 0.265625 -1.09375 0.765625q-0.46875 0.5 -0.734375 1.21875q-0.265625 0.71875 -0.265625 1.625q0 1.890625 0.921875 2.84375q0.921875 0.9375 2.546875 0.9375q0.75 0 1.4375 -0.15625q0.6875 -0.171875 1.34375 -0.515625l0 1.6875zm12.023178 0.25q-0.609375 0.15625 -1.265625 0.21875q-0.65625 0.0625 -1.34375 0.0625q-1.96875 0 -2.9375 -0.890625q-0.96875 -0.890625 -0.96875 -2.734375l0 -5.453125l-2.921875 0l0 -1.515625l2.921875 0l0 -2.875l1.8125 -0.46875l0 3.34375l4.703125 0l0 1.515625l-4.703125 0l0 5.3125q0 1.125 0.59375 1.6875q0.609375 0.546875 1.78125 0.546875q0.5 0 1.09375 -0.078125q0.59375 -0.078125 1.234375 -0.234375l0 1.5625zm6.866928 -8.8125l-3.09375 0l0 -1.5l4.921875 0l0 8.9375l3.109375 0l0 1.515625l-8.375 0l0 -1.515625l3.4375 0l0 -7.4375zm0.625 -5.890625q0.3125 0 0.5625 0.109375q0.265625 0.109375 0.453125 0.3125q0.203125 0.203125 0.3125 0.453125q0.109375 0.25 0.109375 0.5625q0 0.28125 -0.109375 0.546875q-0.109375 0.265625 -0.3125 0.46875q-0.1875 0.1875 -0.453125 0.296875q-0.25 0.109375 -0.5625 0.109375q-0.296875 0 -0.5625 -0.109375q-0.25 -0.109375 -0.453125 -0.296875q-0.1875 -0.203125 -0.296875 -0.46875q-0.109375 -0.265625 -0.109375 -0.546875q0 -0.3125 0.109375 -0.5625q0.109375 -0.25 0.296875 -0.453125q0.203125 -0.203125 0.453125 -0.3125q0.265625 -0.109375 0.5625 -0.109375zm6.554428 4.390625l2.0625 0l2.5625 6.90625l0.546875 1.6875l0.578125 -1.71875l2.546875 -6.875l1.984375 0l-4.109375 10.453125l-2.078125 0l-4.09375 -10.453125zm21.538803 4.671875q0 0.390625 -0.015625 0.65625q0 0.25 -0.03125 0.484375l-7.34375 0q0 1.59375 0.890625 2.453125q0.90625 0.859375 2.59375 0.859375q0.453125 0 0.90625 -0.03125q0.46875 -0.03125 0.890625 -0.09375q0.4375 -0.0625 0.828125 -0.140625q0.390625 -0.078125 0.71875 -0.171875l0 1.484375q-0.734375 0.203125 -1.671875 0.328125q-0.9375 0.140625 -1.9375 0.140625q-1.34375 0 -2.3125 -0.359375q-0.96875 -0.375 -1.59375 -1.0625q-0.609375 -0.6875 -0.90625 -1.6875q-0.296875 -1.015625 -0.296875 -2.28125q0 -1.109375 0.3125 -2.09375q0.328125 -0.984375 0.9375 -1.71875q0.609375 -0.75 1.484375 -1.1875q0.890625 -0.4375 2.015625 -0.4375q1.09375 0 1.9375 0.34375q0.84375 0.34375 1.421875 0.96875q0.578125 0.625 0.875 1.53125q0.296875 0.90625 0.296875 2.015625zm-1.890625 -0.265625q0.03125 -0.6875 -0.140625 -1.265625q-0.15625 -0.578125 -0.515625 -1.0q-0.34375 -0.421875 -0.859375 -0.65625q-0.515625 -0.234375 -1.203125 -0.234375q-0.59375 0 -1.09375 0.234375q-0.484375 0.234375 -0.84375 0.65625q-0.34375 0.40625 -0.5625 1.0q-0.21875 0.578125 -0.28125 1.265625l5.5 0z" fill-rule="nonzero"/><path fill="#595959" d="m111.96437 176.68172q0 1.40625 -0.390625 2.453125q-0.390625 1.03125 -1.078125 1.71875q-0.6875 0.6875 -1.625 1.03125q-0.9375 0.34375 -2.03125 0.34375q-0.5 0 -1.0 -0.0625q-0.5 -0.046875 -1.0 -0.171875l0 4.375l-1.8125 0l0 -14.71875l1.609375 0l0.109375 1.75q0.78125 -1.078125 1.671875 -1.5q0.890625 -0.4375 1.921875 -0.4375q0.890625 0 1.5625 0.375q0.6875 0.375 1.140625 1.0625q0.453125 0.671875 0.6875 1.640625q0.234375 0.953125 0.234375 2.140625zm-1.859375 0.09375q0 -0.828125 -0.125 -1.515625q-0.109375 -0.6875 -0.375 -1.171875q-0.265625 -0.5 -0.671875 -0.765625q-0.40625 -0.28125 -0.96875 -0.28125q-0.34375 0 -0.703125 0.109375q-0.34375 0.109375 -0.734375 0.375q-0.375 0.25 -0.796875 0.671875q-0.421875 0.421875 -0.890625 1.046875l0 5.0625q0.5 0.21875 1.046875 0.34375q0.546875 0.109375 1.078125 0.109375q1.46875 0 2.296875 -0.984375q0.84375 -1.0 0.84375 -3.0zm11.366928 5.328125l-0.046875 -1.40625q-0.859375 0.84375 -1.734375 1.21875q-0.875 0.375 -1.84375 0.375q-0.90625 0 -1.546875 -0.21875q-0.625 -0.234375 -1.046875 -0.640625q-0.40625 -0.40625 -0.59375 -0.9375q-0.1875 -0.546875 -0.1875 -1.1875q0 -1.5625 1.171875 -2.453125q1.171875 -0.890625 3.453125 -0.890625l2.171875 0l0 -0.921875q0 -0.921875 -0.59375 -1.484375q-0.59375 -0.5625 -1.8125 -0.5625q-0.890625 0 -1.75 0.203125q-0.859375 0.203125 -1.765625 0.5625l0 -1.640625q0.34375 -0.125 0.765625 -0.234375q0.421875 -0.125 0.890625 -0.21875q0.46875 -0.09375 0.96875 -0.140625q0.515625 -0.0625 1.03125 -0.0625q0.953125 0 1.703125 0.203125q0.765625 0.203125 1.296875 0.640625q0.53125 0.421875 0.8125 1.078125q0.28125 0.640625 0.28125 1.515625l0 7.203125l-1.625 0zm-0.203125 -4.765625l-2.296875 0q-0.6875 0 -1.171875 0.140625q-0.484375 0.140625 -0.796875 0.390625q-0.3125 0.25 -0.46875 0.59375q-0.15625 0.34375 -0.15625 0.78125q0 0.3125 0.09375 0.59375q0.09375 0.265625 0.296875 0.484375q0.21875 0.203125 0.546875 0.328125q0.34375 0.125 0.8125 0.125q0.625 0 1.4375 -0.375q0.8125 -0.375 1.703125 -1.203125l0 -1.859375zm5.632553 -5.6875l1.65625 0l0.046875 1.921875q0.9375 -1.109375 1.828125 -1.609375q0.90625 -0.5 1.828125 -0.5q1.625 0 2.453125 1.046875q0.84375 1.046875 0.78125 3.125l-1.828125 0q0.03125 -1.375 -0.40625 -1.984375q-0.4375 -0.625 -1.265625 -0.625q-0.359375 0 -0.734375 0.125q-0.375 0.125 -0.765625 0.421875q-0.390625 0.28125 -0.828125 0.734375q-0.4375 0.4375 -0.9375 1.078125l0 6.71875l-1.828125 0l0 -10.453125zm18.023178 10.453125l-0.046875 -1.40625q-0.859375 0.84375 -1.734375 1.21875q-0.875 0.375 -1.84375 0.375q-0.90625 0 -1.546875 -0.21875q-0.625 -0.234375 -1.046875 -0.640625q-0.40625 -0.40625 -0.59375 -0.9375q-0.1875 -0.546875 -0.1875 -1.1875q0 -1.5625 1.171875 -2.453125q1.171875 -0.890625 3.453125 -0.890625l2.171875 0l0 -0.921875q0 -0.921875 -0.59375 -1.484375q-0.59375 -0.5625 -1.8125 -0.5625q-0.890625 0 -1.75 0.203125q-0.859375 0.203125 -1.765625 0.5625l0 -1.640625q0.34375 -0.125 0.765625 -0.234375q0.421875 -0.125 0.890625 -0.21875q0.46875 -0.09375 0.96875 -0.140625q0.515625 -0.0625 1.03125 -0.0625q0.953125 0 1.703125 0.203125q0.765625 0.203125 1.296875 0.640625q0.53125 0.421875 0.8125 1.078125q0.28125 0.640625 0.28125 1.515625l0 7.203125l-1.625 0zm-0.203125 -4.765625l-2.296875 0q-0.6875 0 -1.171875 0.140625q-0.484375 0.140625 -0.796875 0.390625q-0.3125 0.25 -0.46875 0.59375q-0.15625 0.34375 -0.15625 0.78125q0 0.3125 0.09375 0.59375q0.09375 0.265625 0.296875 0.484375q0.21875 0.203125 0.546875 0.328125q0.34375 0.125 0.8125 0.125q0.625 0 1.4375 -0.375q0.8125 -0.375 1.703125 -1.203125l0 -1.859375zm12.663803 4.765625l0 -7.515625q0 -0.484375 -0.046875 -0.796875q-0.03125 -0.3125 -0.109375 -0.484375q-0.078125 -0.1875 -0.203125 -0.265625q-0.109375 -0.078125 -0.28125 -0.078125q-0.21875 0 -0.390625 0.125q-0.171875 0.125 -0.375 0.40625q-0.203125 0.28125 -0.453125 0.75q-0.25 0.46875 -0.578125 1.140625l0 6.71875l-1.65625 0l0 -7.3125q0 -0.578125 -0.046875 -0.921875q-0.03125 -0.359375 -0.109375 -0.546875q-0.078125 -0.203125 -0.203125 -0.28125q-0.125 -0.078125 -0.296875 -0.078125q-0.1875 0 -0.359375 0.109375q-0.15625 0.109375 -0.359375 0.375q-0.203125 0.265625 -0.453125 0.734375q-0.25 0.46875 -0.59375 1.203125l0 6.71875l-1.671875 0l0 -10.453125l1.390625 0l0.078125 1.984375q0.265625 -0.59375 0.515625 -1.0q0.265625 -0.421875 0.53125 -0.671875q0.28125 -0.265625 0.578125 -0.375q0.3125 -0.125 0.6875 -0.125q0.84375 0 1.28125 0.546875q0.4375 0.546875 0.4375 1.703125q0.25 -0.53125 0.484375 -0.953125q0.25 -0.421875 0.515625 -0.703125q0.28125 -0.296875 0.609375 -0.4375q0.34375 -0.15625 0.78125 -0.15625q1.953125 0 1.953125 3.03125l0 7.609375l-1.65625 0zm13.101303 -5.78125q0 0.390625 -0.015625 0.65625q0 0.25 -0.03125 0.484375l-7.34375 0q0 1.59375 0.890625 2.453125q0.90625 0.859375 2.59375 0.859375q0.453125 0 0.90625 -0.03125q0.46875 -0.03125 0.890625 -0.09375q0.4375 -0.0625 0.828125 -0.140625q0.390625 -0.078125 0.71875 -0.171875l0 1.484375q-0.734375 0.203125 -1.671875 0.328125q-0.9375 0.140625 -1.9375 0.140625q-1.34375 0 -2.3125 -0.359375q-0.96875 -0.375 -1.59375 -1.0625q-0.609375 -0.6875 -0.90625 -1.6875q-0.296875 -1.015625 -0.296875 -2.28125q0 -1.109375 0.3125 -2.09375q0.328125 -0.984375 0.9375 -1.71875q0.609375 -0.75 1.484375 -1.1875q0.890625 -0.4375 2.015625 -0.4375q1.09375 0 1.9375 0.34375q0.84375 0.34375 1.421875 0.96875q0.578125 0.625 0.875 1.53125q0.296875 0.90625 0.296875 2.015625zm-1.890625 -0.265625q0.03125 -0.6875 -0.140625 -1.265625q-0.15625 -0.578125 -0.515625 -1.0q-0.34375 -0.421875 -0.859375 -0.65625q-0.515625 -0.234375 -1.203125 -0.234375q-0.59375 0 -1.09375 0.234375q-0.484375 0.234375 -0.84375 0.65625q-0.34375 0.40625 -0.5625 1.0q-0.21875 0.578125 -0.28125 1.265625l5.5 0zm13.210678 5.90625q-0.609375 0.15625 -1.265625 0.21875q-0.65625 0.0625 -1.34375 0.0625q-1.96875 0 -2.9375 -0.890625q-0.96875 -0.890625 -0.96875 -2.734375l0 -5.453125l-2.921875 0l0 -1.515625l2.921875 0l0 -2.875l1.8125 -0.46875l0 3.34375l4.703125 0l0 1.515625l-4.703125 0l0 5.3125q0 1.125 0.59375 1.6875q0.609375 0.546875 1.78125 0.546875q0.5 0 1.09375 -0.078125q0.59375 -0.078125 1.234375 -0.234375l0 1.5625zm12.132553 -5.640625q0 0.390625 -0.015625 0.65625q0 0.25 -0.03125 0.484375l-7.34375 0q0 1.59375 0.890625 2.453125q0.90625 0.859375 2.59375 0.859375q0.453125 0 0.90625 -0.03125q0.46875 -0.03125 0.890625 -0.09375q0.4375 -0.0625 0.828125 -0.140625q0.390625 -0.078125 0.71875 -0.171875l0 1.484375q-0.734375 0.203125 -1.671875 0.328125q-0.9375 0.140625 -1.9375 0.140625q-1.34375 0 -2.3125 -0.359375q-0.96875 -0.375 -1.59375 -1.0625q-0.609375 -0.6875 -0.90625 -1.6875q-0.296875 -1.015625 -0.296875 -2.28125q0 -1.109375 0.3125 -2.09375q0.328125 -0.984375 0.9375 -1.71875q0.609375 -0.75 1.484375 -1.1875q0.890625 -0.4375 2.015625 -0.4375q1.09375 0 1.9375 0.34375q0.84375 0.34375 1.421875 0.96875q0.578125 0.625 0.875 1.53125q0.296875 0.90625 0.296875 2.015625zm-1.890625 -0.265625q0.03125 -0.6875 -0.140625 -1.265625q-0.15625 -0.578125 -0.515625 -1.0q-0.34375 -0.421875 -0.859375 -0.65625q-0.515625 -0.234375 -1.203125 -0.234375q-0.59375 0 -1.09375 0.234375q-0.484375 0.234375 -0.84375 0.65625q-0.34375 0.40625 -0.5625 1.0q-0.21875 0.578125 -0.28125 1.265625l5.5 0zm5.210678 -4.40625l1.65625 0l0.046875 1.921875q0.9375 -1.109375 1.828125 -1.609375q0.90625 -0.5 1.828125 -0.5q1.625 0 2.453125 1.046875q0.84375 1.046875 0.78125 3.125l-1.828125 0q0.03125 -1.375 -0.40625 -1.984375q-0.4375 -0.625 -1.265625 -0.625q-0.359375 0 -0.734375 0.125q-0.375 0.125 -0.765625 0.421875q-0.390625 0.28125 -0.828125 0.734375q-0.4375 0.4375 -0.9375 1.078125l0 6.71875l-1.828125 0l0 -10.453125z" fill-rule="nonzero"/><path fill="#595959" d="m103.88247 207.70358l-0.046875 -1.40625q-0.859375 0.84375 -1.734375 1.21875q-0.875 0.375 -1.84375 0.375q-0.90625 0 -1.546875 -0.21875q-0.625 -0.234375 -1.046875 -0.640625q-0.40625 -0.40625 -0.59375 -0.9375q-0.1875 -0.546875 -0.1875 -1.1875q0 -1.5625 1.171875 -2.453125q1.171875 -0.890625 3.453125 -0.890625l2.171875 0l0 -0.921875q0 -0.921875 -0.59375 -1.484375q-0.59375 -0.5625 -1.8125 -0.5625q-0.890625 0 -1.75 0.203125q-0.859375 0.203125 -1.765625 0.5625l0 -1.640625q0.34375 -0.125 0.765625 -0.234375q0.421875 -0.125 0.890625 -0.21875q0.46875 -0.09375 0.96875 -0.140625q0.515625 -0.0625 1.03125 -0.0625q0.953125 0 1.703125 0.203125q0.765625 0.203125 1.296875 0.640625q0.53125 0.421875 0.8125 1.078125q0.28125 0.640625 0.28125 1.515625l0 7.203125l-1.625 0zm-0.203125 -4.765625l-2.296875 0q-0.6875 0 -1.171875 0.140625q-0.484375 0.140625 -0.796875 0.390625q-0.3125 0.25 -0.46875 0.59375q-0.15625 0.34375 -0.15625 0.78125q0 0.3125 0.09375 0.59375q0.09375 0.265625 0.296875 0.484375q0.21875 0.203125 0.546875 0.328125q0.34375 0.125 0.8125 0.125q0.625 0 1.4375 -0.375q0.8125 -0.375 1.703125 -1.203125l0 -1.859375zm4.679428 -0.25q0 -1.328125 0.359375 -2.359375q0.359375 -1.046875 1.03125 -1.75q0.671875 -0.71875 1.609375 -1.078125q0.953125 -0.375 2.109375 -0.375q0.5 0 0.984375 0.0625q0.484375 0.0625 0.953125 0.1875l0 -4.390625l1.828125 0l0 14.71875l-1.625 0l-0.0625 -1.984375q-0.765625 1.109375 -1.65625 1.640625q-0.875 0.53125 -1.90625 0.53125q-0.90625 0 -1.59375 -0.375q-0.671875 -0.375 -1.125 -1.046875q-0.453125 -0.6875 -0.6875 -1.640625q-0.21875 -0.96875 -0.21875 -2.140625zm1.84375 -0.109375q0 1.890625 0.5625 2.828125q0.5625 0.9375 1.578125 0.9375q0.6875 0 1.453125 -0.609375q0.765625 -0.625 1.609375 -1.828125l0 -4.859375q-0.453125 -0.203125 -1.0 -0.3125q-0.53125 -0.109375 -1.0625 -0.109375q-1.484375 0 -2.3125 0.953125q-0.828125 0.953125 -0.828125 3.0zm17.491928 -5.328125l0 10.265625q0 1.09375 -0.3125 1.9375q-0.3125 0.859375 -0.90625 1.4375q-0.578125 0.578125 -1.421875 0.875q-0.84375 0.3125 -1.90625 0.3125q-0.78125 0 -1.515625 -0.140625q-0.734375 -0.140625 -1.328125 -0.390625l0 -1.734375q0.328125 0.171875 0.6875 0.296875q0.375 0.140625 0.765625 0.234375q0.390625 0.09375 0.78125 0.140625q0.40625 0.046875 0.78125 0.046875q1.1875 0 1.859375 -0.75q0.6875 -0.75 0.6875 -2.203125l0 -8.828125l-5.125 0l0 -1.5l6.953125 0zm-1.09375 -4.390625q0.296875 0 0.5625 0.109375q0.265625 0.109375 0.453125 0.3125q0.1875 0.203125 0.296875 0.46875q0.10936737 0.25 0.10936737 0.546875q0 0.296875 -0.10936737 0.5625q-0.109375 0.25 -0.296875 0.453125q-0.1875 0.1875 -0.453125 0.296875q-0.265625 0.109375 -0.5625 0.109375q-0.296875 0 -0.5625 -0.109375q-0.265625 -0.109375 -0.453125 -0.296875q-0.1875 -0.203125 -0.296875 -0.453125q-0.109375 -0.265625 -0.109375 -0.5625q0 -0.296875 0.109375 -0.546875q0.109375 -0.265625 0.296875 -0.46875q0.1875 -0.203125 0.453125 -0.3125q0.265625 -0.109375 0.5625 -0.109375zm14.14817 14.84375l-1.625 0l-0.0625 -1.6875q-0.46875 0.546875 -0.890625 0.90625q-0.421875 0.359375 -0.84375 0.578125q-0.421875 0.21875 -0.84375 0.296875q-0.421875 0.09375 -0.890625 0.09375q-1.609375 0 -2.4375 -0.9375q-0.8125 -0.953125 -0.8125 -2.875l0 -6.828125l1.8125 0l0 6.6875q0 2.40625 1.8125 2.40625q0.328125 0 0.640625 -0.09375q0.328125 -0.109375 0.671875 -0.34375q0.34375 -0.25 0.75 -0.671875q0.40625 -0.421875 0.90625 -1.046875l0 -6.9375l1.8125 0l0 10.453125zm11.601303 -2.859375q0 0.5625 -0.1875 1.0q-0.1875 0.4375 -0.515625 0.78125q-0.328125 0.328125 -0.75 0.578125q-0.421875 0.234375 -0.90625 0.390625q-0.484375 0.15625 -1.0 0.21875q-0.515625 0.078125 -1.0 0.078125q-1.0625 0 -1.953125 -0.09375q-0.890625 -0.09375 -1.75 -0.296875l0 -1.671875q0.921875 0.265625 1.828125 0.40625q0.90625 0.125 1.796875 0.125q1.3125 0 1.9375 -0.34375q0.625 -0.359375 0.625 -1.015625q0 -0.28125 -0.109375 -0.5q-0.09375 -0.234375 -0.359375 -0.4375q-0.25 -0.203125 -0.796875 -0.421875q-0.546875 -0.21875 -1.5 -0.5q-0.703125 -0.203125 -1.3125 -0.46875q-0.59375 -0.265625 -1.03125 -0.625q-0.4375 -0.375 -0.6875 -0.859375q-0.25 -0.5 -0.25 -1.15625q0 -0.4375 0.203125 -0.953125q0.203125 -0.53125 0.6875 -0.96875q0.5 -0.453125 1.328125 -0.75q0.828125 -0.296875 2.078125 -0.296875q0.625 0 1.375 0.0625q0.75 0.0625 1.5625 0.234375l0 1.609375q-0.859375 -0.203125 -1.625 -0.296875q-0.765625 -0.109375 -1.328125 -0.109375q-0.671875 0 -1.140625 0.109375q-0.46875 0.109375 -0.75 0.296875q-0.28125 0.171875 -0.40625 0.421875q-0.125 0.234375 -0.125 0.515625q0 0.28125 0.109375 0.515625q0.109375 0.234375 0.40625 0.453125q0.296875 0.203125 0.828125 0.421875q0.53125 0.203125 1.375 0.453125q0.9375 0.28125 1.5625 0.578125q0.640625 0.296875 1.03125 0.65625q0.40625 0.359375 0.578125 0.828125q0.171875 0.453125 0.171875 1.03125zm11.866928 2.71875q-0.609375 0.15625 -1.265625 0.21875q-0.65625 0.0625 -1.34375 0.0625q-1.96875 0 -2.9375 -0.890625q-0.96875 -0.890625 -0.96875 -2.734375l0 -5.453125l-2.921875 0l0 -1.515625l2.921875 0l0 -2.875l1.8125 -0.46875l0 3.34375l4.703125 0l0 1.515625l-4.703125 0l0 5.3125q0 1.125 0.59375 1.6875q0.609375 0.546875 1.78125 0.546875q0.5 0 1.09375 -0.078125q0.59375 -0.078125 1.234375 -0.234375l0 1.5625zm10.757553 0.140625l0 -7.515625q0 -0.484375 -0.046875 -0.796875q-0.03125 -0.3125 -0.109375 -0.484375q-0.078125 -0.1875 -0.203125 -0.265625q-0.109375 -0.078125 -0.28125 -0.078125q-0.21875 0 -0.390625 0.125q-0.171875 0.125 -0.375 0.40625q-0.203125 0.28125 -0.453125 0.75q-0.25 0.46875 -0.578125 1.140625l0 6.71875l-1.65625 0l0 -7.3125q0 -0.578125 -0.046875 -0.921875q-0.03125 -0.359375 -0.109375 -0.546875q-0.078125 -0.203125 -0.203125 -0.28125q-0.125 -0.078125 -0.296875 -0.078125q-0.1875 0 -0.359375 0.109375q-0.15625 0.109375 -0.359375 0.375q-0.203125 0.265625 -0.453125 0.734375q-0.25 0.46875 -0.59375 1.203125l0 6.71875l-1.671875 0l0 -10.453125l1.390625 0l0.078125 1.984375q0.265625 -0.59375 0.515625 -1.0q0.265625 -0.421875 0.53125 -0.671875q0.28125 -0.265625 0.578125 -0.375q0.3125 -0.125 0.6875 -0.125q0.84375 0 1.28125 0.546875q0.4375 0.546875 0.4375 1.703125q0.25 -0.53125 0.484375 -0.953125q0.25 -0.421875 0.515625 -0.703125q0.28125 -0.296875 0.609375 -0.4375q0.34375 -0.15625 0.78125 -0.15625q1.953125 0 1.953125 3.03125l0 7.609375l-1.65625 0zm13.101303 -5.78125q0 0.390625 -0.015625 0.65625q0 0.25 -0.03125 0.484375l-7.34375 0q0 1.59375 0.890625 2.453125q0.90625 0.859375 2.59375 0.859375q0.453125 0 0.90625 -0.03125q0.46875 -0.03125 0.890625 -0.09375q0.4375 -0.0625 0.828125 -0.140625q0.390625 -0.078125 0.71875 -0.171875l0 1.484375q-0.734375 0.203125 -1.671875 0.328125q-0.9375 0.140625 -1.9375 0.140625q-1.34375 0 -2.3125 -0.359375q-0.96875 -0.375 -1.59375 -1.0625q-0.609375 -0.6875 -0.90625 -1.6875q-0.296875 -1.015625 -0.296875 -2.28125q0 -1.109375 0.3125 -2.09375q0.328125 -0.984375 0.9375 -1.71875q0.609375 -0.75 1.484375 -1.1875q0.890625 -0.4375 2.015625 -0.4375q1.09375 0 1.9375 0.34375q0.84375 0.34375 1.421875 0.96875q0.578125 0.625 0.875 1.53125q0.296875 0.90625 0.296875 2.015625zm-1.890625 -0.265625q0.03125 -0.6875 -0.140625 -1.265625q-0.15625 -0.578125 -0.515625 -1.0q-0.34375 -0.421875 -0.859375 -0.65625q-0.515625 -0.234375 -1.203125 -0.234375q-0.59375 0 -1.09375 0.234375q-0.484375 0.234375 -0.84375 0.65625q-0.34375 0.40625 -0.5625 1.0q-0.21875 0.578125 -0.28125 1.265625l5.5 0zm4.788803 -4.40625l1.609375 0l0.078125 1.6875q0.453125 -0.546875 0.875 -0.90625q0.4375 -0.359375 0.84375 -0.578125q0.40625 -0.21875 0.828125 -0.296875q0.4375 -0.09375 0.890625 -0.09375q1.625 0 2.453125 0.953125q0.828125 0.953125 0.828125 2.859375l0 6.828125l-1.8125 0l0 -6.671875q0 -1.234375 -0.46875 -1.8125q-0.453125 -0.59375 -1.359375 -0.59375q-0.328125 0 -0.65625 0.09375q-0.3125 0.09375 -0.65625 0.34375q-0.34375 0.25 -0.75 0.671875q-0.390625 0.40625 -0.890625 1.03125l0 6.9375l-1.8125 0l0 -10.453125zm20.148178 10.3125q-0.609375 0.15625 -1.265625 0.21875q-0.65625 0.0625 -1.34375 0.0625q-1.96875 0 -2.9375 -0.890625q-0.96875 -0.890625 -0.96875 -2.734375l0 -5.453125l-2.921875 0l0 -1.515625l2.921875 0l0 -2.875l1.8125 -0.46875l0 3.34375l4.703125 0l0 1.515625l-4.703125 0l0 5.3125q0 1.125 0.59375 1.6875q0.609375 0.546875 1.78125 0.546875q0.5 0 1.09375 -0.078125q0.59375 -0.078125 1.234375 -0.234375l0 1.5625z" fill-rule="nonzero"/><path fill="#000000" fill-opacity="0.0" d="m363.25986 196.81888l0 31.118103" fill-rule="evenodd"/><path stroke="#595959" stroke-width="1.0" stroke-linejoin="round" stroke-linecap="butt" d="m363.25986 196.81888l0 25.118103" fill-rule="evenodd"/><path fill="#595959" stroke="#595959" stroke-width="1.0" stroke-linecap="butt" d="m361.60812 221.93698l1.6517334 4.538101l1.6517029 -4.538101z" fill-rule="evenodd"/><path fill="#000000" fill-opacity="0.0" d="m555.7953 196.81888l0 31.118103" fill-rule="evenodd"/><path stroke="#595959" stroke-width="1.0" stroke-linejoin="round" stroke-linecap="butt" d="m555.7953 196.81888l0 25.118103" fill-rule="evenodd"/><path fill="#595959" stroke="#595959" stroke-width="1.0" stroke-linecap="butt" d="m554.14355 221.93698l1.6517334 4.538101l1.6517334 -4.538101z" fill-rule="evenodd"/><path fill="#000000" fill-opacity="0.0" d="m363.25986 297.7349l100.724396 34.897614" fill-rule="evenodd"/><path stroke="#595959" stroke-width="1.0" stroke-linejoin="round" stroke-linecap="butt" d="m363.25986 297.7349l95.05502 32.93338" fill-rule="evenodd"/><path fill="#595959" stroke="#595959" stroke-width="1.0" stroke-linecap="butt" d="m457.77414 332.229l4.828766 -0.07507324l-3.747284 -3.0463562z" fill-rule="evenodd"/><path fill="#000000" fill-opacity="0.0" d="m555.7953 297.7349l-91.811035 34.897614" fill-rule="evenodd"/><path stroke="#595959" stroke-width="1.0" stroke-linejoin="round" stroke-linecap="butt" d="m555.7953 297.7349l-86.202515 32.76584" fill-rule="evenodd"/><path fill="#595959" stroke="#595959" stroke-width="1.0" stroke-linecap="butt" d="m469.0059 328.95676l-3.6551208 3.1563416l4.8288574 -0.06842041z" fill-rule="evenodd"/><path fill="#000000" fill-opacity="0.0" d="m154.12335 220.69289l134.58267 42.14174" fill-rule="evenodd"/><path stroke="#595959" stroke-width="1.0" stroke-linejoin="round" stroke-linecap="butt" d="m154.12335 220.69289l128.85684 40.3488" fill-rule="evenodd"/><path fill="#595959" stroke="#595959" stroke-width="1.0" stroke-linecap="butt" d="m282.4866 262.61795l4.824341 -0.22018433l-3.8371887 -2.9323425z" fill-rule="evenodd"/><path fill="#000000" fill-opacity="0.0" d="m257.17322 43.561653l294.86615 0l0 38.519684l-294.86615 0z" fill-rule="evenodd"/><path fill="#595959" d="m276.25134 73.04165l-1.625 0l-0.0625 -1.6875q-0.46875 0.546875 -0.890625 0.90625q-0.421875 0.359375 -0.84375 0.578125q-0.421875 0.21875 -0.84375 0.296875q-0.421875 0.09375 -0.890625 0.09375q-1.609375 0 -2.4375 -0.9375q-0.8125 -0.953125 -0.8125 -2.875l0 -6.828121l1.8125 0l0 6.687496q0 2.40625 1.8125 2.40625q0.328125 0 0.640625 -0.09375q0.328125 -0.109375 0.671875 -0.34375q0.34375 -0.25 0.75 -0.671875q0.40625 -0.421875 0.90625 -1.046875l0 -6.937496l1.8125 0l0 10.453121zm11.601318 -2.859375q0 0.5625 -0.1875 1.0q-0.1875 0.4375 -0.515625 0.78125q-0.328125 0.328125 -0.75 0.578125q-0.421875 0.234375 -0.90625 0.390625q-0.484375 0.15625 -1.0 0.21875q-0.515625 0.078125 -1.0 0.078125q-1.0625 0 -1.953125 -0.09375q-0.890625 -0.09375 -1.75 -0.296875l0 -1.671875q0.921875 0.265625 1.828125 0.40625q0.90625 0.125 1.796875 0.125q1.3125 0 1.9375 -0.34375q0.625 -0.359375 0.625 -1.015625q0 -0.28125 -0.109375 -0.5q-0.09375 -0.234375 -0.359375 -0.4375q-0.25 -0.203125 -0.796875 -0.421875q-0.546875 -0.21875 -1.5 -0.5q-0.703125 -0.203125 -1.3125 -0.46875q-0.59375 -0.265625 -1.03125 -0.625q-0.4375 -0.375 -0.6875 -0.859375q-0.25 -0.5 -0.25 -1.15625q0 -0.4375 0.203125 -0.953125q0.203125 -0.5312462 0.6875 -0.9687462q0.5 -0.453125 1.328125 -0.75q0.828125 -0.296875 2.078125 -0.296875q0.625 0 1.375 0.0625q0.75 0.0625 1.5625 0.234375l0 1.6093712q-0.859375 -0.203125 -1.625 -0.296875q-0.765625 -0.109371185 -1.328125 -0.109371185q-0.671875 0 -1.140625 0.109371185q-0.46875 0.109375 -0.75 0.296875q-0.28125 0.171875 -0.40625 0.421875q-0.125 0.234375 -0.125 0.515625q0 0.28125 0.109375 0.515625q0.109375 0.234375 0.40625 0.453125q0.296875 0.203125 0.828125 0.421875q0.53125 0.203125 1.375 0.453125q0.9375 0.28125 1.5625 0.578125q0.640625 0.296875 1.03125 0.65625q0.40625 0.359375 0.578125 0.828125q0.171875 0.453125 0.171875 1.03125zm12.273163 -2.921875q0 0.390625 -0.015625 0.65625q0 0.25 -0.03125 0.484375l-7.34375 0q0 1.59375 0.890625 2.453125q0.90625 0.859375 2.59375 0.859375q0.453125 0 0.90625 -0.03125q0.46875 -0.03125 0.890625 -0.09375q0.4375 -0.0625 0.828125 -0.140625q0.390625 -0.078125 0.71875 -0.171875l0 1.484375q-0.734375 0.203125 -1.671875 0.328125q-0.9375 0.140625 -1.9375 0.140625q-1.34375 0 -2.3125 -0.359375q-0.96875 -0.375 -1.59375 -1.0625q-0.609375 -0.6875 -0.90625 -1.6875q-0.296875 -1.015625 -0.296875 -2.28125q0 -1.109375 0.3125 -2.09375q0.328125 -0.984375 0.9375 -1.71875q0.609375 -0.7499962 1.484375 -1.1874962q0.890625 -0.4375 2.015625 -0.4375q1.09375 0 1.9375 0.34375q0.84375 0.34375 1.421875 0.96875q0.578125 0.6249962 0.875 1.5312462q0.296875 0.90625 0.296875 2.015625zm-1.890625 -0.265625q0.03125 -0.6875 -0.140625 -1.265625q-0.15625 -0.578125 -0.515625 -1.0q-0.34375 -0.421875 -0.859375 -0.65625q-0.515625 -0.23437119 -1.203125 -0.23437119q-0.59375 0 -1.09375 0.23437119q-0.484375 0.234375 -0.84375 0.65625q-0.34375 0.40625 -0.5625 1.0q-0.21875 0.578125 -0.28125 1.265625l5.5 0zm5.2106934 -4.406246l1.65625 0l0.046875 1.9218712q0.9375 -1.1093712 1.828125 -1.6093712q0.90625 -0.5 1.828125 -0.5q1.625 0 2.453125 1.046875q0.84375 1.0468712 0.78125 3.1249962l-1.828125 0q0.03125 -1.375 -0.40625 -1.984375q-0.4375 -0.6249962 -1.265625 -0.6249962q-0.359375 0 -0.734375 0.124996185q-0.375 0.125 -0.765625 0.421875q-0.390625 0.28125 -0.828125 0.734375q-0.4375 0.4375 -0.9375 1.078125l0 6.71875l-1.828125 0l0 -10.453121zm26.593231 1.4999962l-3.09375 0l0 -1.4999962l4.921875 0l0 8.937496l3.109375 0l0 1.515625l-8.375 0l0 -1.515625l3.4375 0l0 -7.4375zm0.625 -5.890621q0.3125 0 0.5625 0.109375q0.265625 0.109375 0.453125 0.3125q0.203125 0.203125 0.3125 0.453125q0.109375 0.25 0.109375 0.5625q0 0.28125 -0.109375 0.546875q-0.109375 0.265625 -0.3125 0.46875q-0.1875 0.1875 -0.453125 0.296875q-0.25 0.109375 -0.5625 0.109375q-0.296875 0 -0.5625 -0.109375q-0.25 -0.109375 -0.453125 -0.296875q-0.1875 -0.203125 -0.296875 -0.46875q-0.109375 -0.265625 -0.109375 -0.546875q0 -0.3125 0.109375 -0.5625q0.109375 -0.25 0.296875 -0.453125q0.203125 -0.203125 0.453125 -0.3125q0.265625 -0.109375 0.5625 -0.109375zm7.538788 4.390625l1.609375 0l0.078125 1.6874962q0.453125 -0.5468712 0.875 -0.9062462q0.4375 -0.359375 0.84375 -0.578125q0.40625 -0.21875 0.828125 -0.296875q0.4375 -0.09375 0.890625 -0.09375q1.625 0 2.453125 0.953125q0.828125 0.9531212 0.828125 2.8593712l0 6.828125l-1.8125 0l0 -6.671875q0 -1.234375 -0.46875 -1.8125q-0.453125 -0.5937462 -1.359375 -0.5937462q-0.328125 0 -0.65625 0.093746185q-0.3125 0.09375 -0.65625 0.34375q-0.34375 0.25 -0.75 0.671875q-0.390625 0.40625 -0.890625 1.03125l0 6.9375l-1.8125 0l0 -10.453121zm20.148193 10.312496q-0.609375 0.15625 -1.265625 0.21875q-0.65625 0.0625 -1.34375 0.0625q-1.96875 0 -2.9375 -0.890625q-0.96875 -0.890625 -0.96875 -2.734375l0 -5.453125l-2.921875 0l0 -1.5156212l2.921875 0l0 -2.875l1.8125 -0.46875l0 3.34375l4.703125 0l0 1.5156212l-4.703125 0l0 5.3125q0 1.125 0.59375 1.6875q0.609375 0.546875 1.78125 0.546875q0.5 0 1.09375 -0.078125q0.59375 -0.078125 1.234375 -0.234375l0 1.5625zm12.132538 -5.640625q0 0.390625 -0.015625 0.65625q0 0.25 -0.03125 0.484375l-7.34375 0q0 1.59375 0.890625 2.453125q0.90625 0.859375 2.59375 0.859375q0.453125 0 0.90625 -0.03125q0.46875 -0.03125 0.890625 -0.09375q0.4375 -0.0625 0.828125 -0.140625q0.390625 -0.078125 0.71875 -0.171875l0 1.484375q-0.734375 0.203125 -1.671875 0.328125q-0.9375 0.140625 -1.9375 0.140625q-1.34375 0 -2.3125 -0.359375q-0.96875 -0.375 -1.59375 -1.0625q-0.609375 -0.6875 -0.90625 -1.6875q-0.296875 -1.015625 -0.296875 -2.28125q0 -1.109375 0.3125 -2.09375q0.328125 -0.984375 0.9375 -1.71875q0.609375 -0.7499962 1.484375 -1.1874962q0.890625 -0.4375 2.015625 -0.4375q1.09375 0 1.9375 0.34375q0.84375 0.34375 1.421875 0.96875q0.578125 0.6249962 0.875 1.5312462q0.296875 0.90625 0.296875 2.015625zm-1.890625 -0.265625q0.03125 -0.6875 -0.140625 -1.265625q-0.15625 -0.578125 -0.515625 -1.0q-0.34375 -0.421875 -0.859375 -0.65625q-0.515625 -0.23437119 -1.203125 -0.23437119q-0.59375 0 -1.09375 0.23437119q-0.484375 0.234375 -0.84375 0.65625q-0.34375 0.40625 -0.5625 1.0q-0.21875 0.578125 -0.28125 1.265625l5.5 0zm5.2106934 -4.406246l1.65625 0l0.046875 1.9218712q0.9375 -1.1093712 1.828125 -1.6093712q0.90625 -0.5 1.828125 -0.5q1.625 0 2.453125 1.046875q0.84375 1.0468712 0.78125 3.1249962l-1.828125 0q0.03125 -1.375 -0.40625 -1.984375q-0.4375 -0.6249962 -1.265625 -0.6249962q-0.359375 0 -0.734375 0.124996185q-0.375 0.125 -0.765625 0.421875q-0.390625 0.28125 -0.828125 0.734375q-0.4375 0.4375 -0.9375 1.078125l0 6.71875l-1.828125 0l0 -10.453121zm20.570038 -2.578125q-1.421875 -0.296875 -2.453125 -0.296875q-2.4375 0 -2.4375 2.5625l0 1.8281212l4.578125 0l0 1.515625l-4.578125 0l0 7.421875l-1.84375 0l0 -7.421875l-3.375 0l0 -1.515625l3.375 0l0 -1.7343712q0 -4.171875 4.34375 -4.171875q1.09375 0 2.390625 0.25l0 1.5625zm-10.9375 2.578125l0 0zm20.116943 10.453121l-0.046875 -1.40625q-0.859375 0.84375 -1.734375 1.21875q-0.875 0.375 -1.84375 0.375q-0.90625 0 -1.546875 -0.21875q-0.625 -0.234375 -1.046875 -0.640625q-0.40625 -0.40625 -0.59375 -0.9375q-0.1875 -0.546875 -0.1875 -1.1875q0 -1.5625 1.171875 -2.453125q1.171875 -0.890625 3.453125 -0.890625l2.171875 0l0 -0.921875q0 -0.921875 -0.59375 -1.484375q-0.59375 -0.5624962 -1.8125 -0.5624962q-0.890625 0 -1.75 0.20312119q-0.859375 0.203125 -1.765625 0.5625l0 -1.6406212q0.34375 -0.125 0.765625 -0.234375q0.421875 -0.125 0.890625 -0.21875q0.46875 -0.09375 0.96875 -0.140625q0.515625 -0.0625 1.03125 -0.0625q0.953125 0 1.703125 0.203125q0.765625 0.203125 1.296875 0.640625q0.53125 0.421875 0.8125 1.0781212q0.28125 0.640625 0.28125 1.515625l0 7.203125l-1.625 0zm-0.203125 -4.765625l-2.296875 0q-0.6875 0 -1.171875 0.140625q-0.484375 0.140625 -0.796875 0.390625q-0.3125 0.25 -0.46875 0.59375q-0.15625 0.34375 -0.15625 0.78125q0 0.3125 0.09375 0.59375q0.09375 0.265625 0.296875 0.484375q0.21875 0.203125 0.546875 0.328125q0.34375 0.125 0.8125 0.125q0.625 0 1.4375 -0.375q0.8125 -0.375 1.703125 -1.203125l0 -1.859375zm13.335663 4.375q-0.71875 0.28125 -1.46875 0.40625q-0.734375 0.125 -1.53125 0.125q-2.46875 0 -3.8125 -1.34375q-1.34375 -1.34375 -1.34375 -3.921875q0 -1.234375 0.390625 -2.25q0.390625 -1.015625 1.078125 -1.7343712q0.703125 -0.71875 1.671875 -1.109375q0.96875 -0.390625 2.140625 -0.390625q0.8125 0 1.515625 0.125q0.703125 0.109375 1.359375 0.375l0 1.7187462q-0.6875 -0.34375 -1.390625 -0.5q-0.703125 -0.17187119 -1.453125 -0.17187119q-0.6875 0 -1.3125 0.2656212q-0.625 0.265625 -1.09375 0.765625q-0.46875 0.5 -0.734375 1.21875q-0.265625 0.71875 -0.265625 1.625q0 1.890625 0.921875 2.84375q0.921875 0.9375 2.546875 0.9375q0.75 0 1.4375 -0.15625q0.6875 -0.171875 1.34375 -0.515625l0 1.6875zm12.429443 -5.390625q0 0.390625 -0.015625 0.65625q0 0.25 -0.03125 0.484375l-7.34375 0q0 1.59375 0.890625 2.453125q0.90625 0.859375 2.59375 0.859375q0.453125 0 0.90625 -0.03125q0.46875 -0.03125 0.890625 -0.09375q0.4375 -0.0625 0.828125 -0.140625q0.390625 -0.078125 0.71875 -0.171875l0 1.484375q-0.734375 0.203125 -1.671875 0.328125q-0.9375 0.140625 -1.9375 0.140625q-1.34375 0 -2.3125 -0.359375q-0.96875 -0.375 -1.59375 -1.0625q-0.609375 -0.6875 -0.90625 -1.6875q-0.296875 -1.015625 -0.296875 -2.28125q0 -1.109375 0.3125 -2.09375q0.328125 -0.984375 0.9375 -1.71875q0.609375 -0.7499962 1.484375 -1.1874962q0.890625 -0.4375 2.015625 -0.4375q1.09375 0 1.9375 0.34375q0.84375 0.34375 1.421875 0.96875q0.578125 0.6249962 0.875 1.5312462q0.296875 0.90625 0.296875 2.015625zm-1.890625 -0.265625q0.03125 -0.6875 -0.140625 -1.265625q-0.15625 -0.578125 -0.515625 -1.0q-0.34375 -0.421875 -0.859375 -0.65625q-0.515625 -0.23437119 -1.203125 -0.23437119q-0.59375 0 -1.09375 0.23437119q-0.484375 0.234375 -0.84375 0.65625q-0.34375 0.40625 -0.5625 1.0q-0.21875 0.578125 -0.28125 1.265625l5.5 0z" fill-rule="nonzero"/><path fill="#000000" fill-opacity="0.0" d="m80.419945 98.84774l542.83466 1.6692963" fill-rule="evenodd"/><path stroke="#595959" stroke-width="2.0" stroke-linejoin="round" stroke-linecap="butt" stroke-dasharray="8.0,6.0" d="m80.419945 98.84774l542.83466 1.6692963" fill-rule="evenodd"/><path fill="#000000" fill-opacity="0.0" d="m664.93176 227.9396l91.811035 0l0 69.79529l-91.811035 0z" fill-rule="evenodd"/><path stroke="#ffffff" stroke-width="1.0" stroke-linejoin="round" stroke-linecap="butt" d="m664.93176 227.9396l91.811035 0l0 69.79529l-91.811035 0z" fill-rule="evenodd"/><path fill="#595959" d="m698.6034 257.41962l-1.8125 0l-0.265625 -8.48439l-0.125 -3.265625l-0.625 1.890625l-2.015625 5.421875l-1.28125 0l-1.921875 -5.203125l-0.625 -2.109375l-0.046875 3.40625l-0.234375 8.343765l-1.75 0l0.65625 -13.60939l2.203125 0l1.828125 5.125l0.59375 1.71875l0.578125 -1.71875l1.921875 -5.125l2.265625 0l0.65625 13.60939zm5.4294434 -12.04689l-3.125 0l0 -1.5625l8.140625 0l0 1.5625l-3.140625 0l0 10.46875l3.140625 0l0 1.5781403l-8.140625 0l0 -1.5781403l3.125 0l0 -10.46875zm17.773193 5.09375q0 0.96875 -0.15625 1.875q-0.140625 0.890625 -0.484375 1.671875q-0.328125 0.765625 -0.859375 1.390625q-0.53125 0.62501526 -1.3125 1.0781403q-0.765625 0.453125 -1.78125 0.703125q-1.015625 0.234375 -2.328125 0.234375l-2.90625 0l0 -13.60939l3.5 0q3.1875 0 4.75 1.640625q1.578125 1.640625 1.578125 5.015625zm-1.953125 0.125q0 -1.4375 -0.265625 -2.4375q-0.265625 -1.0 -0.828125 -1.609375q-0.546875 -0.625 -1.390625 -0.890625q-0.828125 -0.28125 -1.953125 -0.28125l-1.59375 0l0 10.4375l1.390625 0q4.640625 0 4.640625 -5.21875zm7.6325684 -5.21875l-3.125 0l0 -1.5625l8.140625 0l0 1.5625l-3.140625 0l0 10.46875l3.140625 0l0 1.5781403l-8.140625 0l0 -1.5781403l3.125 0l0 -10.46875z" fill-rule="nonzero"/><path fill="#595959" d="m686.424 277.7071q0 1.21875 -0.34375 2.234375q-0.34375 1.015625 -0.984375 1.75q-0.640625 0.71875 -1.578125 1.125q-0.921875 0.390625 -2.09375 0.390625q-1.125 0 -2.015625 -0.34375q-0.890625 -0.359375 -1.515625 -1.03125q-0.625 -0.671875 -0.953125 -1.671875q-0.328125 -1.0 -0.328125 -2.3125q0 -1.21875 0.34375 -2.21875q0.34375 -1.0 0.984375 -1.71875q0.65625 -0.734375 1.578125 -1.125q0.9375 -0.40625 2.109375 -0.40625q1.125 0 2.015625 0.34375q0.890625 0.34375 1.5 1.015625q0.625 0.671875 0.953125 1.671875q0.328125 1.0 0.328125 2.296875zm-1.84375 0.078125q0 -0.96875 -0.21875 -1.6875q-0.21875 -0.71875 -0.609375 -1.203125q-0.390625 -0.484375 -0.96875 -0.734375q-0.5625 -0.25 -1.265625 -0.25q-0.8125 0 -1.390625 0.328125q-0.578125 0.3125 -0.953125 0.84375q-0.359375 0.53125 -0.53125 1.234375q-0.171875 0.703125 -0.171875 1.46875q0 0.96875 0.203125 1.703125q0.21875 0.734375 0.609375 1.21875q0.40625 0.484375 0.96875 0.734375q0.5625 0.234375 1.265625 0.234375q0.8125 0 1.390625 -0.3125q0.578125 -0.328125 0.953125 -0.859375q0.375 -0.53125 0.546875 -1.234375q0.171875 -0.703125 0.171875 -1.484375zm12.882507 5.234375l-1.625 0l-0.0625 -1.6875q-0.46875 0.546875 -0.890625 0.90625q-0.421875 0.359375 -0.84375 0.578125q-0.421875 0.21875 -0.84375 0.296875q-0.421875 0.09375 -0.890625 0.09375q-1.609375 0 -2.4375 -0.9375q-0.8125 -0.953125 -0.8125 -2.875l0 -6.828125l1.8125 0l0 6.6875q0 2.40625 1.8125 2.40625q0.328125 0 0.640625 -0.09375q0.328125 -0.109375 0.671875 -0.34375q0.34375 -0.25 0.75 -0.671875q0.40625 -0.421875 0.90625 -1.046875l0 -6.9375l1.8125 0l0 10.453125zm11.741943 -0.140625q-0.609375 0.15625 -1.265625 0.21875q-0.65625 0.0625 -1.34375 0.0625q-1.96875 0 -2.9375 -0.890625q-0.96875 -0.890625 -0.96875 -2.734375l0 -5.453125l-2.921875 0l0 -1.515625l2.921875 0l0 -2.875l1.8125 -0.46875l0 3.34375l4.703125 0l0 1.515625l-4.703125 0l0 5.3125q0 1.125 0.59375 1.6875q0.609375 0.546875 1.78125 0.546875q0.5 0 1.09375 -0.078125q0.59375 -0.078125 1.234375 -0.234375l0 1.5625zm12.241943 -5.28125q0 1.40625 -0.390625 2.453125q-0.390625 1.03125 -1.078125 1.71875q-0.6875 0.6875 -1.625 1.03125q-0.9375 0.34375 -2.03125 0.34375q-0.5 0 -1.0 -0.0625q-0.5 -0.046875 -1.0 -0.171875l0 4.375l-1.8125 0l0 -14.71875l1.609375 0l0.109375 1.75q0.78125 -1.078125 1.671875 -1.5q0.890625 -0.4375 1.921875 -0.4375q0.890625 0 1.5625 0.375q0.6875 0.375 1.140625 1.0625q0.453125 0.671875 0.6875 1.640625q0.234375 0.953125 0.234375 2.140625zm-1.859375 0.09375q0 -0.828125 -0.125 -1.515625q-0.109375 -0.6875 -0.375 -1.171875q-0.265625 -0.5 -0.671875 -0.765625q-0.40625 -0.28125 -0.96875 -0.28125q-0.34375 0 -0.703125 0.109375q-0.34375 0.109375 -0.734375 0.375q-0.375 0.25 -0.796875 0.671875q-0.421875 0.421875 -0.890625 1.046875l0 5.0625q0.5 0.21875 1.046875 0.34375q0.546875 0.109375 1.078125 0.109375q1.46875 0 2.296875 -0.984375q0.84375 -1.0 0.84375 -3.0zm13.054443 5.328125l-1.625 0l-0.0625 -1.6875q-0.46875 0.546875 -0.890625 0.90625q-0.421875 0.359375 -0.84375 0.578125q-0.421875 0.21875 -0.84375 0.296875q-0.421875 0.09375 -0.890625 0.09375q-1.609375 0 -2.4375 -0.9375q-0.8125 -0.953125 -0.8125 -2.875l0 -6.828125l1.8125 0l0 6.6875q0 2.40625 1.8125 2.40625q0.328125 0 0.640625 -0.09375q0.328125 -0.109375 0.671875 -0.34375q0.34375 -0.25 0.75 -0.671875q0.40625 -0.421875 0.90625 -1.046875l0 -6.9375l1.8125 0l0 10.453125zm11.741882 -0.140625q-0.609375 0.15625 -1.265625 0.21875q-0.65625 0.0625 -1.34375 0.0625q-1.96875 0 -2.9375 -0.890625q-0.96875 -0.890625 -0.96875 -2.734375l0 -5.453125l-2.921875 0l0 -1.515625l2.921875 0l0 -2.875l1.8125 -0.46875l0 3.34375l4.703125 0l0 1.515625l-4.703125 0l0 5.3125q0 1.125 0.59375 1.6875q0.609375 0.546875 1.78125 0.546875q0.5 0 1.09375 -0.078125q0.59375 -0.078125 1.234375 -0.234375l0 1.5625z" fill-rule="nonzero"/><path fill="#000000" fill-opacity="0.0" d="m623.49603 262.83725l41.448853 0" fill-rule="evenodd"/><path stroke="#595959" stroke-width="1.0" stroke-linejoin="round" stroke-linecap="butt" d="m623.49603 262.83725l35.448853 0" fill-rule="evenodd"/><path fill="#595959" stroke="#595959" stroke-width="1.0" stroke-linecap="butt" d="m658.9449 264.48898l4.538086 -1.6517334l-4.538086 -1.6517334z" fill-rule="evenodd"/></g></svg>
