<svg version="1.1" viewBox="0.0 0.0 960.0 540.0" fill="none" stroke="none" stroke-linecap="square" stroke-miterlimit="10" xmlns:xlink="http://www.w3.org/1999/xlink" xmlns="http://www.w3.org/2000/svg"><clipPath id="p.0"><path d="m0 0l960.0 0l0 540.0l-960.0 0l0 -540.0z" clip-rule="nonzero"/></clipPath><g clip-path="url(#p.0)"><path fill="#ffffff" d="m0 0l960.0 0l0 540.0l-960.0 0z" fill-rule="evenodd"/><path fill="#000000" fill-opacity="0.0" d="m192.6063 381.6929l586.61414 0.881897" fill-rule="evenodd"/><path stroke="#595959" stroke-width="1.0" stroke-linejoin="round" stroke-linecap="butt" d="m192.6063 381.6929l580.61414 0.8728943" fill-rule="evenodd"/><path fill="#595959" stroke="#595959" stroke-width="1.0" stroke-linecap="butt" d="m773.218 384.2175l4.5405273 -1.6448975l-4.5355835 -1.6585388z" fill-rule="evenodd"/><path fill="#000000" fill-opacity="0.0" d="m192.6063 381.6929l0 -332.44092" fill-rule="evenodd"/><path stroke="#595959" stroke-width="1.0" stroke-linejoin="round" stroke-linecap="butt" d="m192.6063 381.6929l0 -326.44092" fill-rule="evenodd"/><path fill="#595959" stroke="#595959" stroke-width="1.0" stroke-linecap="butt" d="m194.25803 55.25197l-1.6517334 -4.5380974l-1.6517334 4.5380974z" fill-rule="evenodd"/><path fill="#000000" fill-opacity="0.0" d="m194.36482 191.72966l578.7087 0.8818817" fill-rule="evenodd"/><path stroke="#595959" stroke-width="1.0" stroke-linejoin="round" stroke-linecap="butt" stroke-dasharray="1.0,3.0" d="m194.36482 191.72966l578.7087 0.8818817" fill-rule="evenodd"/><path fill="#000000" fill-opacity="0.0" d="m194.36482 286.71127l578.7087 0.881897" fill-rule="evenodd"/><path stroke="#595959" stroke-width="1.0" stroke-linejoin="round" stroke-linecap="butt" stroke-dasharray="1.0,3.0" d="m194.36482 286.71127l578.7087 0.881897" fill-rule="evenodd"/><path fill="#000000" fill-opacity="0.0" d="m196.55905 96.74803l578.7086 0.88188934" fill-rule="evenodd"/><path stroke="#595959" stroke-width="1.0" stroke-linejoin="round" stroke-linecap="butt" stroke-dasharray="1.0,3.0" d="m196.55905 96.74803l578.7086 0.88188934" fill-rule="evenodd"/><path fill="#000000" fill-opacity="0.0" d="m286.9475 379.3622l0 -327.77954" fill-rule="evenodd"/><path stroke="#595959" stroke-width="1.0" stroke-linejoin="round" stroke-linecap="butt" stroke-dasharray="1.0,3.0" d="m286.9475 379.3622l0 -327.77954" fill-rule="evenodd"/><path fill="#000000" fill-opacity="0.0" d="m673.8819 382.5748l0 -327.7795" fill-rule="evenodd"/><path stroke="#595959" stroke-width="1.0" stroke-linejoin="round" stroke-linecap="butt" stroke-dasharray="1.0,3.0" d="m673.8819 382.5748l0 -327.7795" fill-rule="evenodd"/><path fill="#000000" fill-opacity="0.0" d="m574.4042 382.5748l0 -327.7795" fill-rule="evenodd"/><path stroke="#595959" stroke-width="1.0" stroke-linejoin="round" stroke-linecap="butt" stroke-dasharray="1.0,3.0" d="m574.4042 382.5748l0 -327.7795" fill-rule="evenodd"/><path fill="#000000" fill-opacity="0.0" d="m480.0 382.5748l0 -327.7795" fill-rule="evenodd"/><path stroke="#595959" stroke-width="1.0" stroke-linejoin="round" stroke-linecap="butt" stroke-dasharray="1.0,3.0" d="m480.0 382.5748l0 -327.7795" fill-rule="evenodd"/><path fill="#000000" fill-opacity="0.0" d="m384.7743 382.5748l0 -327.7795" fill-rule="evenodd"/><path stroke="#595959" stroke-width="1.0" stroke-linejoin="round" stroke-linecap="butt" stroke-dasharray="1.0,3.0" d="m384.7743 382.5748l0 -327.7795" fill-rule="evenodd"/><path fill="#000000" fill-opacity="0.0" d="m178.5045 377.48715l31.496063 0l0 46.64569l-31.496063 0z" fill-rule="evenodd"/><path fill="#595959" d="m198.317 400.1703q0 1.5625 -0.3125 2.84375q-0.3125 1.28125 -0.953125 2.203125q-0.625 0.921875 -1.578125 1.4375q-0.9375 0.5 -2.203125 0.5q-1.09375 0 -2.0 -0.40625q-0.890625 -0.421875 -1.53125 -1.265625q-0.625 -0.859375 -0.96875 -2.171875q-0.34375 -1.328125 -0.34375 -3.140625q0 -1.5625 0.3125 -2.84375q0.3125 -1.296875 0.9375 -2.21875q0.640625 -0.921875 1.578125 -1.421875q0.953125 -0.515625 2.21875 -0.515625q1.09375 0 1.984375 0.421875q0.90625 0.40625 1.53125 1.265625q0.640625 0.859375 0.984375 2.1875q0.34375 1.3125 0.34375 3.125zm-1.828125 0.0625q0 -0.359375 -0.03125 -0.703125q-0.03125 -0.359375 -0.0625 -0.6875l-5.75 4.28125q0.15625 0.546875 0.390625 1.0q0.234375 0.453125 0.578125 0.78125q0.34375 0.328125 0.765625 0.515625q0.4375 0.1875 0.984375 0.1875q0.71875 0 1.296875 -0.34375q0.578125 -0.34375 0.984375 -1.015625q0.40625 -0.6875 0.625 -1.6875q0.21875 -1.015625 0.21875 -2.328125zm-6.234375 -0.125q0 0.3125 0 0.640625q0.015625 0.328125 0.046875 0.625l5.75 -4.265625q-0.15625 -0.53125 -0.390625 -0.953125q-0.234375 -0.4375 -0.578125 -0.75q-0.328125 -0.328125 -0.765625 -0.5q-0.421875 -0.1875 -0.953125 -0.1875q-0.703125 0 -1.28125 0.34375q-0.578125 0.34375 -0.984375 1.03125q-0.40625 0.671875 -0.625 1.6875q-0.21875 1.0 -0.21875 2.328125z" fill-rule="nonzero"/><path fill="#000000" fill-opacity="0.0" d="m272.3701 377.48715l31.496063 0l0 46.64569l-31.496063 0z" fill-rule="evenodd"/><path fill="#595959" d="m291.7607 406.96716l-8.5625 0l0 -1.6875l3.5 0l0 -9.9375l-3.25 1.765625l-0.671875 -1.53125l4.328125 -2.28125l1.609375 0l0 11.984375l3.046875 0l0 1.6875z" fill-rule="nonzero"/><path fill="#000000" fill-opacity="0.0" d="m367.8832 377.48715l31.496063 0l0 46.64569l-31.496063 0z" fill-rule="evenodd"/><path fill="#595959" d="m387.3832 406.96716l-8.96875 0l0 -1.625l3.515625 -3.5q0.875 -0.859375 1.40625 -1.484375q0.546875 -0.625 0.84375 -1.140625q0.3125 -0.515625 0.40625 -0.96875q0.109375 -0.453125 0.109375 -0.984375q0 -0.5 -0.140625 -0.953125q-0.125 -0.453125 -0.40625 -0.796875q-0.28125 -0.34375 -0.734375 -0.53125q-0.453125 -0.203125 -1.078125 -0.203125q-0.859375 0 -1.578125 0.390625q-0.703125 0.375 -1.296875 0.984375l-1.0 -1.1875q0.78125 -0.8125 1.78125 -1.296875q1.0 -0.5 2.34375 -0.5q0.90625 0 1.640625 0.28125q0.75 0.265625 1.28125 0.78125q0.546875 0.5 0.84375 1.25q0.296875 0.734375 0.296875 1.65625q0 0.78125 -0.203125 1.453125q-0.203125 0.65625 -0.625 1.328125q-0.421875 0.65625 -1.0625 1.359375q-0.640625 0.703125 -1.515625 1.546875l-2.46875 2.40625l6.609375 0l0 1.734375z" fill-rule="nonzero"/><path fill="#000000" fill-opacity="0.0" d="m463.39633 377.48715l31.496063 0l0 46.64569l-31.496063 0z" fill-rule="evenodd"/><path fill="#595959" d="m482.6307 402.82654q0 0.90625 -0.359375 1.6875q-0.359375 0.78125 -1.09375 1.375q-0.734375 0.59375 -1.84375 0.9375q-1.09375 0.328125 -2.5625 0.328125q-0.8125 0 -1.46875 -0.0625q-0.640625 -0.046875 -1.203125 -0.125l0 -1.625q0.65625 0.109375 1.375 0.171875q0.71875 0.0625 1.46875 0.0625q1.015625 0 1.734375 -0.171875q0.734375 -0.1875 1.1875 -0.53125q0.453125 -0.34375 0.65625 -0.828125q0.21875 -0.5 0.21875 -1.109375q0 -0.5625 -0.25 -0.96875q-0.25 -0.421875 -0.703125 -0.703125q-0.453125 -0.28125 -1.09375 -0.421875q-0.625 -0.140625 -1.375 -0.140625l-1.546875 0l0 -1.5l1.578125 0q0.609375 0 1.109375 -0.15625q0.515625 -0.15625 0.875 -0.453125q0.359375 -0.3125 0.546875 -0.75q0.1875 -0.453125 0.1875 -1.015625q0 -1.078125 -0.671875 -1.578125q-0.65625 -0.5 -1.953125 -0.5q-0.6875 0 -1.421875 0.140625q-0.71875 0.125 -1.546875 0.390625l0 -1.578125q0.34375 -0.125 0.75 -0.21875q0.40625 -0.109375 0.796875 -0.171875q0.40625 -0.0625 0.796875 -0.09375q0.40625 -0.046875 0.765625 -0.046875q1.078125 0 1.90625 0.234375q0.828125 0.234375 1.375 0.671875q0.546875 0.4375 0.828125 1.0625q0.28125 0.625 0.28125 1.40625q0 1.15625 -0.59375 1.953125q-0.59375 0.796875 -1.640625 1.265625q0.53125 0.078125 1.046875 0.328125q0.515625 0.25 0.921875 0.640625q0.421875 0.390625 0.671875 0.921875q0.25 0.53125 0.25 1.171875z" fill-rule="nonzero"/><path fill="#000000" fill-opacity="0.0" d="m558.90814 377.48715l31.496033 0l0 46.64569l-31.496033 0z" fill-rule="evenodd"/><path fill="#595959" d="m579.08 403.95154l-2.3125 0l0 3.015625l-1.859375 0l0 -3.015625l-6.546875 0l0 -1.59375l5.796875 -9.0l2.609375 0l0 9.0l2.3125 0l0 1.59375zm-4.171875 -8.84375l-4.734375 7.25l4.734375 0l0 -7.25z" fill-rule="nonzero"/><path fill="#000000" fill-opacity="0.0" d="m658.13385 377.48715l31.496094 0l0 46.64569l-31.496094 0z" fill-rule="evenodd"/><path fill="#595959" d="m677.2901 402.6078q0 1.015625 -0.4375 1.859375q-0.4375 0.828125 -1.203125 1.421875q-0.765625 0.59375 -1.8125 0.9375q-1.03125 0.328125 -2.25 0.328125q-0.296875 0 -0.65625 -0.015625q-0.34375 -0.015625 -0.6875 -0.046875q-0.34375 -0.015625 -0.671875 -0.046875q-0.328125 -0.03125 -0.578125 -0.078125l0 -1.640625q0.5625 0.125 1.28125 0.1875q0.71875 0.0625 1.46875 0.0625q0.828125 0 1.484375 -0.1875q0.671875 -0.203125 1.140625 -0.5625q0.46875 -0.375 0.71875 -0.90625q0.25 -0.53125 0.25 -1.1875q0 -1.265625 -0.90625 -1.84375q-0.90625 -0.578125 -2.625 -0.578125l-2.578125 0l0 -6.953125l7.328125 0l0 1.578125l-5.625 0l0 3.828125l1.1875 0q0.984375 0 1.90625 0.171875q0.9375 0.171875 1.65625 0.625q0.71875 0.4375 1.15625 1.1875q0.453125 0.734375 0.453125 1.859375z" fill-rule="nonzero"/><path fill="#000000" fill-opacity="0.0" d="m159.27353 343.32968l31.496063 0l0 46.64566l-31.496063 0z" fill-rule="evenodd"/><path fill="#595959" d="m179.08603 366.01282q0 1.5625 -0.3125 2.84375q-0.3125 1.28125 -0.953125 2.203125q-0.625 0.921875 -1.578125 1.4375q-0.9375 0.5 -2.203125 0.5q-1.09375 0 -2.0 -0.40625q-0.890625 -0.421875 -1.53125 -1.265625q-0.625 -0.859375 -0.96875 -2.171875q-0.34375 -1.328125 -0.34375 -3.140625q0 -1.5625 0.3125 -2.84375q0.3125 -1.296875 0.9375 -2.21875q0.640625 -0.921875 1.578125 -1.421875q0.953125 -0.515625 2.21875 -0.515625q1.09375 0 1.984375 0.421875q0.90625 0.40625 1.53125 1.265625q0.640625 0.859375 0.984375 2.1875q0.34375 1.3125 0.34375 3.125zm-1.828125 0.0625q0 -0.359375 -0.03125 -0.703125q-0.03125 -0.359375 -0.0625 -0.6875l-5.75 4.28125q0.15625 0.546875 0.390625 1.0q0.234375 0.453125 0.578125 0.78125q0.34375 0.328125 0.765625 0.515625q0.4375 0.1875 0.984375 0.1875q0.71875 0 1.296875 -0.34375q0.578125 -0.34375 0.984375 -1.015625q0.40625 -0.6875 0.625 -1.6875q0.21875 -1.015625 0.21875 -2.328125zm-6.234375 -0.125q0 0.3125 0 0.640625q0.015625 0.328125 0.046875 0.625l5.75 -4.265625q-0.15625 -0.53125 -0.390625 -0.953125q-0.234375 -0.4375 -0.578125 -0.75q-0.328125 -0.328125 -0.765625 -0.5q-0.421875 -0.1875 -0.953125 -0.1875q-0.703125 0 -1.28125 0.34375q-0.578125 0.34375 -0.984375 1.03125q-0.40625 0.671875 -0.625 1.6875q-0.21875 1.0 -0.21875 2.328125z" fill-rule="nonzero"/><path fill="#000000" fill-opacity="0.0" d="m150.58849 263.8281l46.204727 0l0 46.64566l-46.204727 0z" fill-rule="evenodd"/><path fill="#595959" d="m169.97911 293.30807l-8.5625 0l0 -1.6875l3.5 0l0 -9.9375l-3.25 1.765625l-0.671875 -1.53125l4.328125 -2.28125l1.609375 0l0 11.984375l3.046875 0l0 1.6875zm12.148178 -6.796875q0 1.5625 -0.3125 2.84375q-0.3125 1.28125 -0.953125 2.203125q-0.625 0.921875 -1.578125 1.4375q-0.9375 0.5 -2.203125 0.5q-1.09375 0 -2.0 -0.40625q-0.890625 -0.421875 -1.53125 -1.265625q-0.625 -0.859375 -0.96875 -2.171875q-0.34375 -1.328125 -0.34375 -3.140625q0 -1.5625 0.3125 -2.84375q0.3125 -1.296875 0.9375 -2.21875q0.640625 -0.921875 1.578125 -1.421875q0.953125 -0.515625 2.21875 -0.515625q1.09375 0 1.984375 0.421875q0.90625 0.40625 1.53125 1.265625q0.640625 0.859375 0.984375 2.1875q0.34375 1.3125 0.34375 3.125zm-1.828125 0.0625q0 -0.359375 -0.03125 -0.703125q-0.03125 -0.359375 -0.0625 -0.6875l-5.75 4.28125q0.15625 0.546875 0.390625 1.0q0.234375 0.453125 0.578125 0.78125q0.34375 0.328125 0.765625 0.515625q0.4375 0.1875 0.984375 0.1875q0.71875 0 1.296875 -0.34375q0.578125 -0.34375 0.984375 -1.015625q0.40625 -0.6875 0.625 -1.6875q0.21875 -1.015625 0.21875 -2.328125zm-6.234375 -0.125q0 0.3125 0 0.640625q0.015625 0.328125 0.046875 0.625l5.75 -4.265625q-0.15625 -0.53125 -0.390625 -0.953125q-0.234375 -0.4375 -0.578125 -0.75q-0.328125 -0.328125 -0.765625 -0.5q-0.421875 -0.1875 -0.953125 -0.1875q-0.703125 0 -1.28125 0.34375q-0.578125 0.34375 -0.984375 1.03125q-0.40625 0.671875 -0.625 1.6875q-0.21875 1.0 -0.21875 2.328125z" fill-rule="nonzero"/><path fill="#000000" fill-opacity="0.0" d="m150.58849 168.84776l46.204727 0l0 46.645676l-46.204727 0z" fill-rule="evenodd"/><path fill="#595959" d="m170.08849 198.32777l-8.96875 0l0 -1.625l3.515625 -3.5q0.875 -0.859375 1.40625 -1.484375q0.546875 -0.625 0.84375 -1.140625q0.3125 -0.515625 0.40625 -0.96875q0.109375 -0.453125 0.109375 -0.984375q0 -0.5 -0.140625 -0.953125q-0.125 -0.453125 -0.40625 -0.796875q-0.28125 -0.34375 -0.734375 -0.53125q-0.453125 -0.203125 -1.078125 -0.203125q-0.859375 0 -1.578125 0.390625q-0.703125 0.375 -1.296875 0.984375l-1.0 -1.1875q0.78125 -0.8125 1.78125 -1.296875q1.0 -0.5 2.34375 -0.5q0.90625 0 1.640625 0.28125q0.75 0.265625 1.28125 0.78125q0.546875 0.5 0.84375 1.25q0.296875 0.734375 0.296875 1.65625q0 0.78125 -0.203125 1.453125q-0.203125 0.65625 -0.625 1.328125q-0.421875 0.65625 -1.0625 1.359375q-0.640625 0.703125 -1.515625 1.546875l-2.46875 2.40625l6.609375 0l0 1.734375zm12.038803 -6.796875q0 1.5625 -0.3125 2.84375q-0.3125 1.28125 -0.953125 2.203125q-0.625 0.921875 -1.578125 1.4375q-0.9375 0.5 -2.203125 0.5q-1.09375 0 -2.0 -0.40625q-0.890625 -0.421875 -1.53125 -1.265625q-0.625 -0.859375 -0.96875 -2.171875q-0.34375 -1.328125 -0.34375 -3.140625q0 -1.5625 0.3125 -2.84375q0.3125 -1.296875 0.9375 -2.21875q0.640625 -0.921875 1.578125 -1.421875q0.953125 -0.515625 2.21875 -0.515625q1.09375 0 1.984375 0.421875q0.90625 0.40625 1.53125 1.265625q0.640625 0.859375 0.984375 2.1875q0.34375 1.3125 0.34375 3.125zm-1.828125 0.0625q0 -0.359375 -0.03125 -0.703125q-0.03125 -0.359375 -0.0625 -0.6875l-5.75 4.28125q0.15625 0.546875 0.390625 1.0q0.234375 0.453125 0.578125 0.78125q0.34375 0.328125 0.765625 0.515625q0.4375 0.1875 0.984375 0.1875q0.71875 0 1.296875 -0.34375q0.578125 -0.34375 0.984375 -1.015625q0.40625 -0.6875 0.625 -1.6875q0.21875 -1.015625 0.21875 -2.328125zm-6.234375 -0.125q0 0.3125 0 0.640625q0.015625 0.328125 0.046875 0.625l5.75 -4.265625q-0.15625 -0.53125 -0.390625 -0.953125q-0.234375 -0.4375 -0.578125 -0.75q-0.328125 -0.328125 -0.765625 -0.5q-0.421875 -0.1875 -0.953125 -0.1875q-0.703125 0 -1.28125 0.34375q-0.578125 0.34375 -0.984375 1.03125q-0.40625 0.671875 -0.625 1.6875q-0.21875 1.0 -0.21875 2.328125z" fill-rule="nonzero"/><path fill="#000000" fill-opacity="0.0" d="m150.58849 73.86614l46.204727 0l0 46.645668l-46.204727 0z" fill-rule="evenodd"/><path fill="#595959" d="m169.82286 99.20551q0 0.90625 -0.359375 1.6875q-0.359375 0.78125 -1.09375 1.375q-0.734375 0.59375 -1.84375 0.9375q-1.09375 0.328125 -2.5625 0.328125q-0.8125 0 -1.46875 -0.0625q-0.640625 -0.046875 -1.203125 -0.125l0 -1.625q0.65625 0.109375 1.375 0.171875q0.71875 0.0625 1.46875 0.0625q1.015625 0 1.734375 -0.171875q0.734375 -0.1875 1.1875 -0.53125q0.453125 -0.34375 0.65625 -0.828125q0.21875 -0.5 0.21875 -1.109375q0 -0.5625 -0.25 -0.96875q-0.25 -0.421875 -0.703125 -0.703125q-0.453125 -0.28125 -1.09375 -0.421875q-0.625 -0.140625 -1.375 -0.140625l-1.546875 0l0 -1.5l1.578125 0q0.609375 0 1.109375 -0.15625q0.515625 -0.15625 0.875 -0.453125q0.359375 -0.3125 0.546875 -0.75q0.1875 -0.453125 0.1875 -1.015625q0 -1.078125 -0.671875 -1.578125q-0.65625 -0.5 -1.953125 -0.5q-0.6875 0 -1.421875 0.140625q-0.71875 0.125 -1.546875 0.390625l0 -1.578125q0.34375 -0.125 0.75 -0.21875q0.40625 -0.109375 0.796875 -0.171875q0.40625 -0.0625 0.796875 -0.09375q0.40625 -0.046875 0.765625 -0.046875q1.078125 0 1.90625 0.234375q0.828125 0.234375 1.375 0.671875q0.546875 0.4375 0.828125 1.0625q0.28125 0.625 0.28125 1.40625q0 1.15625 -0.59375 1.953125q-0.59375 0.796875 -1.640625 1.265625q0.53125 0.078125 1.046875 0.328125q0.515625 0.25 0.921875 0.640625q0.421875 0.390625 0.671875 0.921875q0.25 0.53125 0.25 1.171875zm12.304428 -2.65625q0 1.5625 -0.3125 2.84375q-0.3125 1.28125 -0.953125 2.203125q-0.625 0.921875 -1.578125 1.4375q-0.9375 0.5 -2.203125 0.5q-1.09375 0 -2.0 -0.40625q-0.890625 -0.421875 -1.53125 -1.265625q-0.625 -0.859375 -0.96875 -2.171875q-0.34375 -1.328125 -0.34375 -3.140625q0 -1.5625 0.3125 -2.84375q0.3125 -1.296875 0.9375 -2.21875q0.640625 -0.921875 1.578125 -1.421875q0.953125 -0.515625 2.21875 -0.515625q1.09375 0 1.984375 0.421875q0.90625 0.40625 1.53125 1.265625q0.640625 0.859375 0.984375 2.1875q0.34375 1.3125 0.34375 3.125zm-1.828125 0.0625q0 -0.359375 -0.03125 -0.703125q-0.03125 -0.359375 -0.0625 -0.6875l-5.75 4.28125q0.15625 0.546875 0.390625 1.0q0.234375 0.453125 0.578125 0.78125q0.34375 0.328125 0.765625 0.515625q0.4375 0.1875 0.984375 0.1875q0.71875 0 1.296875 -0.34375q0.578125 -0.34375 0.984375 -1.015625q0.40625 -0.6875 0.625 -1.6875q0.21875 -1.015625 0.21875 -2.328125zm-6.234375 -0.125q0 0.3125 0 0.640625q0.015625 0.328125 0.046875 0.625l5.75 -4.265625q-0.15625 -0.53125 -0.390625 -0.953125q-0.234375 -0.4375 -0.578125 -0.75q-0.328125 -0.328125 -0.765625 -0.5q-0.421875 -0.1875 -0.953125 -0.1875q-0.703125 0 -1.28125 0.34375q-0.578125 0.34375 -0.984375 1.03125q-0.40625 0.671875 -0.625 1.6875q-0.21875 1.0 -0.21875 2.328125z" fill-rule="nonzero"/><path fill="#000000" fill-opacity="0.0" d="m191.59055 140.3622l194.51968 98.77167" fill-rule="evenodd"/><path stroke="#595959" stroke-width="1.0" stroke-linejoin="round" stroke-linecap="butt" d="m194.96986 142.07812l191.14037 97.05574" fill-rule="evenodd"/><path fill="#595959" stroke="#595959" stroke-width="1.0" stroke-linecap="butt" d="m192.03638 140.58858c0.41131592 -0.8100586 1.4014435 -1.1333008 2.211502 -0.7219696c0.81007385 0.41133118 1.1333008 1.4014587 0.72198486 2.2115173c-0.41133118 0.8100586 -1.4014587 1.1333008 -2.2115173 0.7219696c-0.8100586 -0.41133118 -1.1333008 -1.4014587 -0.7219696 -2.2115173z" fill-rule="nonzero"/><path fill="#000000" fill-opacity="0.0" d="m387.2651 239.12599l92.15747 -49.00789" fill-rule="evenodd"/><path stroke="#595959" stroke-width="1.0" stroke-linejoin="round" stroke-linecap="butt" d="m387.2651 239.12599l88.81122 -47.228394" fill-rule="evenodd"/><path fill="#595959" stroke="#595959" stroke-width="1.0" stroke-linecap="butt" d="m478.9811 190.35287c0.4265747 0.8021393 0.12210083 1.7982025 -0.6800232 2.224762c-0.80215454 0.4265747 -1.7982178 0.12210083 -2.2247925 -0.68003845c-0.4265442 -0.8021393 -0.12210083 -1.7982025 0.6800537 -2.224762c0.802124 -0.4265747 1.7981873 -0.12210083 2.224762 0.68003845z" fill-rule="nonzero"/><path fill="#000000" fill-opacity="0.0" d="m479.41733 286.95013l195.96848 -47.81102" fill-rule="evenodd"/><path stroke="#595959" stroke-width="1.0" stroke-linejoin="round" stroke-linecap="butt" d="m479.41733 286.95013l192.28647 -46.91272" fill-rule="evenodd"/><path fill="#595959" stroke="#595959" stroke-width="1.0" stroke-linecap="butt" d="m674.9001 239.25761c0.21533203 0.8826294 -0.32562256 1.7726898 -1.208252 1.9880219c-0.8826294 0.21534729 -1.772644 -0.32559204 -1.9880371 -1.2082214c-0.21533203 -0.88261414 0.32562256 -1.7726898 1.208252 -1.9880219c0.8826294 -0.21533203 1.7727051 0.3256073 1.9880371 1.2082214z" fill-rule="nonzero"/><path fill="#000000" fill-opacity="0.0" d="m417.35565 417.74176l222.80316 0l0 46.64566l-222.80316 0z" fill-rule="evenodd"/><path fill="#595959" d="m437.54315 446.56302q0 0.625 -0.21875 1.125q-0.203125 0.484375 -0.5625 0.875q-0.359375 0.375 -0.84375 0.640625q-0.484375 0.265625 -1.03125 0.453125q-0.53125 0.171875 -1.109375 0.25q-0.578125 0.09375 -1.125 0.09375q-1.203125 0 -2.203125 -0.109375q-1.0 -0.109375 -1.953125 -0.34375l0 -1.875q1.03125 0.296875 2.046875 0.453125q1.015625 0.140625 2.03125 0.140625q1.453125 0 2.15625 -0.390625q0.703125 -0.40625 0.703125 -1.140625q0 -0.3125 -0.109375 -0.5625q-0.109375 -0.265625 -0.40625 -0.484375q-0.28125 -0.234375 -0.90625 -0.46875q-0.609375 -0.25 -1.671875 -0.578125q-0.796875 -0.234375 -1.484375 -0.53125q-0.671875 -0.296875 -1.171875 -0.703125q-0.484375 -0.40625 -0.765625 -0.953125q-0.28125 -0.5625 -0.28125 -1.3125q0 -0.484375 0.234375 -1.0625q0.234375 -0.59375 0.78125 -1.09375q0.546875 -0.515625 1.484375 -0.84375q0.9375 -0.34375 2.34375 -0.34375q0.6875 0 1.53125 0.078125q0.84375 0.078125 1.765625 0.265625l0 1.8125q-0.96875 -0.234375 -1.828125 -0.34375q-0.859375 -0.109375 -1.484375 -0.109375q-0.765625 0 -1.296875 0.125q-0.515625 0.109375 -0.84375 0.3125q-0.3125 0.203125 -0.453125 0.484375q-0.140625 0.28125 -0.140625 0.59375q0 0.3125 0.125 0.578125q0.125 0.25 0.453125 0.5q0.328125 0.234375 0.921875 0.484375q0.609375 0.234375 1.5625 0.515625q1.046875 0.296875 1.765625 0.640625q0.71875 0.328125 1.15625 0.734375q0.453125 0.40625 0.640625 0.921875q0.1875 0.515625 0.1875 1.171875zm13.0234375 2.78125q-0.796875 0.3125 -1.640625 0.453125q-0.828125 0.15625 -1.71875 0.15625q-2.796875 0 -4.296875 -1.515625q-1.5 -1.515625 -1.5 -4.421875q0 -1.390625 0.421875 -2.53125q0.4375 -1.140625 1.21875 -1.9375q0.796875 -0.8125 1.875 -1.25q1.09375 -0.453125 2.40625 -0.453125q0.921875 0 1.71875 0.140625q0.796875 0.125 1.515625 0.421875l0 1.9375q-0.765625 -0.390625 -1.5625 -0.578125q-0.78125 -0.1875 -1.625 -0.1875q-0.78125 0 -1.484375 0.3125q-0.6875 0.296875 -1.21875 0.859375q-0.53125 0.5625 -0.84375 1.375q-0.296875 0.796875 -0.296875 1.8125q0 2.140625 1.03125 3.203125q1.046875 1.0625 2.890625 1.0625q0.828125 0 1.609375 -0.1875q0.78125 -0.1875 1.5 -0.5625l0 1.890625zm14.3046875 -5.546875q0 1.375 -0.390625 2.515625q-0.390625 1.140625 -1.125 1.96875q-0.71875 0.8125 -1.765625 1.265625q-1.03125 0.453125 -2.359375 0.453125q-1.265625 0 -2.265625 -0.390625q-1.0 -0.40625 -1.703125 -1.15625q-0.703125 -0.765625 -1.078125 -1.890625q-0.359375 -1.125 -0.359375 -2.59375q0 -1.375 0.390625 -2.5q0.390625 -1.140625 1.109375 -1.953125q0.734375 -0.8125 1.765625 -1.265625q1.046875 -0.453125 2.375 -0.453125q1.265625 0 2.265625 0.40625q1.0 0.390625 1.6875 1.140625q0.703125 0.75 1.078125 1.875q0.375 1.125 0.375 2.578125zm-2.09375 0.09375q0 -1.078125 -0.25 -1.890625q-0.234375 -0.828125 -0.6875 -1.359375q-0.4375 -0.546875 -1.078125 -0.828125q-0.625 -0.28125 -1.421875 -0.28125q-0.90625 0 -1.5625 0.359375q-0.640625 0.359375 -1.0625 0.96875q-0.421875 0.59375 -0.609375 1.390625q-0.1875 0.78125 -0.1875 1.640625q0 1.09375 0.234375 1.921875q0.234375 0.8125 0.671875 1.359375q0.453125 0.546875 1.078125 0.828125q0.640625 0.265625 1.4375 0.265625q0.921875 0 1.5625 -0.359375q0.65625 -0.359375 1.0625 -0.953125q0.421875 -0.59375 0.609375 -1.375q0.203125 -0.796875 0.203125 -1.6875zm5.5234375 -5.875l1.859375 0l0.0625 2.171875q1.046875 -1.265625 2.046875 -1.828125q1.015625 -0.5625 2.046875 -0.5625q1.828125 0 2.765625 1.1875q0.953125 1.1875 0.890625 3.515625l-2.0625 0q0.03125 -1.546875 -0.453125 -2.234375q-0.484375 -0.703125 -1.421875 -0.703125q-0.421875 0 -0.84375 0.15625q-0.40625 0.140625 -0.84375 0.46875q-0.4375 0.3125 -0.9375 0.8125q-0.484375 0.5 -1.046875 1.21875l0 7.5625l-2.0625 0l0 -11.765625zm22.648438 5.265625q0 0.421875 -0.015625 0.71875q0 0.296875 -0.03125 0.546875l-8.265625 0q0 1.8125 1.0 2.78125q1.015625 0.96875 2.921875 0.96875q0.515625 0 1.03125 -0.046875q0.515625 -0.046875 0.984375 -0.109375q0.484375 -0.078125 0.921875 -0.15625q0.453125 -0.09375 0.828125 -0.203125l0 1.6875q-0.84375 0.234375 -1.890625 0.375q-1.046875 0.15625 -2.171875 0.15625q-1.515625 0 -2.609375 -0.40625q-1.078125 -0.421875 -1.78125 -1.203125q-0.6875 -0.78125 -1.03125 -1.90625q-0.328125 -1.140625 -0.328125 -2.5625q0 -1.25 0.359375 -2.34375q0.359375 -1.109375 1.03125 -1.953125q0.6875 -0.84375 1.6875 -1.328125q1.0 -0.5 2.265625 -0.5q1.234375 0 2.171875 0.390625q0.953125 0.390625 1.59375 1.109375q0.65625 0.703125 0.984375 1.71875q0.34375 1.0 0.34375 2.265625zm-2.125 -0.296875q0.046875 -0.78125 -0.140625 -1.4375q-0.1875 -0.65625 -0.59375 -1.125q-0.390625 -0.46875 -0.984375 -0.71875q-0.578125 -0.265625 -1.34375 -0.265625q-0.671875 0 -1.21875 0.265625q-0.546875 0.25 -0.953125 0.71875q-0.390625 0.46875 -0.640625 1.125q-0.25 0.65625 -0.3125 1.4375l6.1875 0zm28.0625 6.625q-0.6875 0.1875 -1.4375 0.265625q-0.734375 0.078125 -1.5 0.078125q-2.203125 0 -3.296875 -1.0q-1.09375 -1.015625 -1.09375 -3.09375l0 -6.140625l-3.296875 0l0 -1.703125l3.296875 0l0 -3.234375l2.046875 -0.53125l0 3.765625l5.28125 0l0 1.703125l-5.28125 0l0 5.984375q0 1.265625 0.671875 1.890625q0.671875 0.625 1.984375 0.625q0.5625 0 1.21875 -0.078125q0.671875 -0.09375 1.40625 -0.28125l0 1.75zm7.7265625 -9.90625l-3.484375 0l0 -1.6875l5.546875 0l0 10.0625l3.5 0l0 1.703125l-9.4375 0l0 -1.703125l3.875 0l0 -8.375zm0.703125 -6.625q0.34375 0 0.640625 0.125q0.296875 0.125 0.5 0.34375q0.21875 0.21875 0.34375 0.515625q0.125 0.28125 0.125 0.625q0 0.328125 -0.125 0.625q-0.125 0.28125 -0.34375 0.515625q-0.203125 0.21875 -0.5 0.34375q-0.296875 0.125 -0.640625 0.125q-0.328125 0 -0.625 -0.125q-0.296875 -0.125 -0.515625 -0.34375q-0.21875 -0.234375 -0.34375 -0.515625q-0.109375 -0.296875 -0.109375 -0.625q0 -0.34375 0.109375 -0.625q0.125 -0.296875 0.34375 -0.515625q0.21875 -0.21875 0.515625 -0.34375q0.296875 -0.125 0.625 -0.125zm16.867188 16.703125l0 -8.453125q0 -0.546875 -0.046875 -0.890625q-0.03125 -0.359375 -0.125 -0.5625q-0.078125 -0.203125 -0.21875 -0.28125q-0.140625 -0.09375 -0.328125 -0.09375q-0.234375 0 -0.4375 0.140625q-0.203125 0.140625 -0.4375 0.46875q-0.21875 0.3125 -0.5 0.828125q-0.265625 0.515625 -0.640625 1.28125l0 7.5625l-1.875 0l0 -8.234375q0 -0.640625 -0.046875 -1.03125q-0.03125 -0.40625 -0.125 -0.625q-0.078125 -0.21875 -0.21875 -0.296875q-0.140625 -0.09375 -0.34375 -0.09375q-0.203125 0 -0.390625 0.125q-0.1875 0.109375 -0.421875 0.421875q-0.234375 0.296875 -0.515625 0.828125q-0.28125 0.53125 -0.65625 1.34375l0 7.5625l-1.875 0l0 -11.765625l1.546875 0l0.09375 2.234375q0.3125 -0.671875 0.59375 -1.140625q0.296875 -0.46875 0.59375 -0.75q0.3125 -0.28125 0.65625 -0.421875q0.34375 -0.140625 0.765625 -0.140625q0.953125 0 1.4375 0.625q0.5 0.625 0.5 1.921875q0.28125 -0.609375 0.546875 -1.078125q0.265625 -0.484375 0.578125 -0.796875q0.3125 -0.328125 0.6875 -0.5q0.375 -0.171875 0.859375 -0.171875q2.21875 0 2.21875 3.421875l0 8.5625l-1.875 0zm14.7421875 -6.5q0 0.421875 -0.015625 0.71875q0 0.296875 -0.03125 0.546875l-8.265625 0q0 1.8125 1.0 2.78125q1.015625 0.96875 2.921875 0.96875q0.515625 0 1.03125 -0.046875q0.515625 -0.046875 0.984375 -0.109375q0.484375 -0.078125 0.921875 -0.15625q0.453125 -0.09375 0.828125 -0.203125l0 1.6875q-0.84375 0.234375 -1.890625 0.375q-1.046875 0.15625 -2.171875 0.15625q-1.515625 0 -2.609375 -0.40625q-1.078125 -0.421875 -1.78125 -1.203125q-0.6875 -0.78125 -1.03125 -1.90625q-0.328125 -1.140625 -0.328125 -2.5625q0 -1.25 0.359375 -2.34375q0.359375 -1.109375 1.03125 -1.953125q0.6875 -0.84375 1.6875 -1.328125q1.0 -0.5 2.265625 -0.5q1.234375 0 2.171875 0.390625q0.953125 0.390625 1.59375 1.109375q0.65625 0.703125 0.984375 1.71875q0.34375 1.0 0.34375 2.265625zm-2.125 -0.296875q0.046875 -0.78125 -0.140625 -1.4375q-0.1875 -0.65625 -0.59375 -1.125q-0.390625 -0.46875 -0.984375 -0.71875q-0.578125 -0.265625 -1.34375 -0.265625q-0.671875 0 -1.21875 0.265625q-0.546875 0.25 -0.953125 0.71875q-0.390625 0.46875 -0.640625 1.125q-0.25 0.65625 -0.3125 1.4375l6.1875 0z" fill-rule="nonzero"/><path fill="#000000" fill-opacity="0.0" d="m61.73744 202.50787l111.37007 0l0 69.543304l-111.37007 0z" fill-rule="evenodd"/><path fill="#595959" d="m71.518684 222.78226l2.3125 0l2.890625 7.78125l0.609375 1.890625l0.65625 -1.9375l2.859375 -7.734375l2.234375 0l-4.625 11.765625l-2.34375 0l-4.59375 -11.765625zm21.851562 11.765625l-0.046875 -1.578125q-0.96875 0.9375 -1.953125 1.375q-0.984375 0.421875 -2.078125 0.421875q-1.015625 0 -1.734375 -0.265625q-0.703125 -0.265625 -1.171875 -0.703125q-0.453125 -0.453125 -0.671875 -1.0625q-0.21875 -0.609375 -0.21875 -1.328125q0 -1.765625 1.3125 -2.765625q1.328125 -1.015625 3.90625 -1.015625l2.4375 0l0 -1.03125q0 -1.03125 -0.671875 -1.65625q-0.671875 -0.640625 -2.046875 -0.640625q-0.984375 0 -1.953125 0.234375q-0.96875 0.21875 -2.0 0.625l0 -1.84375q0.390625 -0.140625 0.859375 -0.265625q0.46875 -0.140625 1.0 -0.234375q0.53125 -0.109375 1.09375 -0.171875q0.578125 -0.078125 1.171875 -0.078125q1.0625 0 1.921875 0.234375q0.859375 0.234375 1.4375 0.71875q0.59375 0.484375 0.90625 1.21875q0.328125 0.71875 0.328125 1.703125l0 8.109375l-1.828125 0zm-0.21875 -5.359375l-2.59375 0q-0.765625 0 -1.3125 0.15625q-0.546875 0.15625 -0.90625 0.4375q-0.34375 0.28125 -0.515625 0.671875q-0.171875 0.390625 -0.171875 0.875q0 0.34375 0.09375 0.65625q0.109375 0.3125 0.34375 0.5625q0.234375 0.234375 0.609375 0.375q0.375 0.140625 0.921875 0.140625q0.703125 0 1.609375 -0.421875q0.90625 -0.4375 1.921875 -1.359375l0 -2.09375zm9.8671875 -9.53125l-3.484375 0l0 -1.671875l5.546875 0l0 14.859375l3.5 0l0 1.703125l-9.4375 0l0 -1.703125l3.875 0l0 -13.1875zm18.632812 14.890625l-1.828125 0l-0.0625 -1.90625q-0.53125 0.609375 -1.015625 1.015625q-0.46875 0.40625 -0.9375 0.65625q-0.46875 0.25 -0.9375 0.34375q-0.46875 0.109375 -1.0 0.109375q-1.8125 0 -2.75 -1.0625q-0.921875 -1.078125 -0.921875 -3.234375l0 -7.6875l2.046875 0l0 7.515625q0 2.71875 2.03125 2.71875q0.375 0 0.734375 -0.109375q0.359375 -0.125 0.75 -0.390625q0.390625 -0.28125 0.84375 -0.75q0.453125 -0.46875 1.015625 -1.1875l0 -7.796875l2.03125 0l0 11.765625zm13.679695 -6.5q0 0.421875 -0.015625 0.71875q0 0.296875 -0.03125 0.546875l-8.265633 0q0 1.8125 1.0000076 2.78125q1.015625 0.96875 2.921875 0.96875q0.515625 0 1.03125 -0.046875q0.515625 -0.046875 0.984375 -0.109375q0.484375 -0.078125 0.921875 -0.15625q0.453125 -0.09375 0.828125 -0.203125l0 1.6875q-0.84375 0.234375 -1.890625 0.375q-1.046875 0.15625 -2.171875 0.15625q-1.515625 0 -2.609375 -0.40625q-1.0781326 -0.421875 -1.7812576 -1.203125q-0.6875 -0.78125 -1.03125 -1.90625q-0.328125 -1.140625 -0.328125 -2.5625q0 -1.25 0.359375 -2.34375q0.359375 -1.109375 1.03125 -1.953125q0.6875 -0.84375 1.6875 -1.328125q1.0000076 -0.5 2.2656326 -0.5q1.234375 0 2.171875 0.390625q0.953125 0.390625 1.59375 1.109375q0.65625 0.703125 0.984375 1.71875q0.34375 1.0 0.34375 2.265625zm-2.125 -0.296875q0.046875 -0.78125 -0.140625 -1.4375q-0.1875 -0.65625 -0.59375 -1.125q-0.390625 -0.46875 -0.984375 -0.71875q-0.578125 -0.265625 -1.34375 -0.265625q-0.671875 0 -1.21875 0.265625q-0.546875 0.25 -0.9531326 0.71875q-0.390625 0.46875 -0.640625 1.125q-0.25 0.65625 -0.3125 1.4375l6.1875076 0z" fill-rule="nonzero"/><path fill="#ffffff" d="m473.5796 286.90637l0 0c0 -3.183258 2.580536 -5.763794 5.763794 -5.763794l0 0c1.5286255 0 2.99469 0.6072693 4.075592 1.6881714c1.0809326 1.0809326 1.6881714 2.5469666 1.6881714 4.0756226l0 0c0 3.1832275 -2.580536 5.7637634 -5.7637634 5.7637634l0 0c-3.183258 0 -5.763794 -2.580536 -5.763794 -5.7637634z" fill-rule="evenodd"/><path stroke="#595959" stroke-width="1.0" stroke-linejoin="round" stroke-linecap="butt" d="m473.5796 286.90637l0 0c0 -3.183258 2.580536 -5.763794 5.763794 -5.763794l0 0c1.5286255 0 2.99469 0.6072693 4.075592 1.6881714c1.0809326 1.0809326 1.6881714 2.5469666 1.6881714 4.0756226l0 0c0 3.1832275 -2.580536 5.7637634 -5.7637634 5.7637634l0 0c-3.183258 0 -5.763794 -2.580536 -5.763794 -5.7637634z" fill-rule="evenodd"/><path fill="#000000" d="m667.8444 238.56459l0 0c0 -3.183258 2.5805054 -5.7637787 5.763733 -5.7637787l0 0c1.5286865 0 2.99469 0.607254 4.0756226 1.6881714c1.0809326 1.0809174 1.6881714 2.5469513 1.6881714 4.0756073l0 0c0 3.1832428 -2.5805054 5.7637787 -5.763794 5.7637787l0 0c-3.1832275 0 -5.763733 -2.580536 -5.763733 -5.7637787z" fill-rule="evenodd"/><path stroke="#595959" stroke-width="1.0" stroke-linejoin="round" stroke-linecap="butt" d="m667.8444 238.56459l0 0c0 -3.183258 2.5805054 -5.7637787 5.763733 -5.7637787l0 0c1.5286865 0 2.99469 0.607254 4.0756226 1.6881714c1.0809326 1.0809174 1.6881714 2.5469513 1.6881714 4.0756073l0 0c0 3.1832428 -2.5805054 5.7637787 -5.763794 5.7637787l0 0c-3.1832275 0 -5.763733 -2.580536 -5.763733 -5.7637787z" fill-rule="evenodd"/><path fill="#000000" d="m473.3953 192.72263l0 0c0 -3.1832428 2.580536 -5.7637787 5.763794 -5.7637787l0 0c1.5286255 0 2.9946594 0.607254 4.075592 1.6881714c1.0809326 1.0809174 1.6881714 2.5469513 1.6881714 4.0756073l0 0c0 3.1832428 -2.580536 5.7637787 -5.7637634 5.7637787l0 0c-3.183258 0 -5.763794 -2.580536 -5.763794 -5.7637787z" fill-rule="evenodd"/><path stroke="#595959" stroke-width="1.0" stroke-linejoin="round" stroke-linecap="butt" d="m473.3953 192.72263l0 0c0 -3.1832428 2.580536 -5.7637787 5.763794 -5.7637787l0 0c1.5286255 0 2.9946594 0.607254 4.075592 1.6881714c1.0809326 1.0809174 1.6881714 2.5469513 1.6881714 4.0756073l0 0c0 3.1832428 -2.580536 5.7637787 -5.7637634 5.7637787l0 0c-3.183258 0 -5.763794 -2.580536 -5.763794 -5.7637787z" fill-rule="evenodd"/><path fill="#000000" d="m186.5688 142.55841l0 0c0 -3.1832428 2.580536 -5.7637787 5.7637787 -5.7637787l0 0c1.528656 0 2.99469 0.607254 4.0756073 1.6881714c1.0809174 1.0809174 1.6881714 2.5469513 1.6881714 4.0756073l0 0c0 3.1832428 -2.580536 5.7637787 -5.7637787 5.7637787l0 0c-3.1832428 0 -5.7637787 -2.580536 -5.7637787 -5.7637787z" fill-rule="evenodd"/><path stroke="#595959" stroke-width="1.0" stroke-linejoin="round" stroke-linecap="butt" d="m186.5688 142.55841l0 0c0 -3.1832428 2.580536 -5.7637787 5.7637787 -5.7637787l0 0c1.528656 0 2.99469 0.607254 4.0756073 1.6881714c1.0809174 1.0809174 1.6881714 2.5469513 1.6881714 4.0756073l0 0c0 3.1832428 -2.580536 5.7637787 -5.7637787 5.7637787l0 0c-3.1832428 0 -5.7637787 -2.580536 -5.7637787 -5.7637787z" fill-rule="evenodd"/></g></svg>