<svg version="1.1" viewBox="0.0 0.0 960.0 540.0" fill="none" stroke="none" stroke-linecap="square" stroke-miterlimit="10" xmlns:xlink="http://www.w3.org/1999/xlink" xmlns="http://www.w3.org/2000/svg"><clipPath id="g37ffd9dd95e_0_0.0"><path d="m0 0l960.0 0l0 540.0l-960.0 0l0 -540.0z" clip-rule="nonzero"/></clipPath><g clip-path="url(#g37ffd9dd95e_0_0.0)"><path fill="#ffffff" d="m0 0l960.0 0l0 540.0l-960.0 0z" fill-rule="evenodd"/><path fill="#eeeeee" d="m287.04724 378.25912l0 95.0087l192.91602 -0.8331299l-0.8241577 -190.01736z" fill-rule="evenodd"/><path stroke="#595959" stroke-width="1.0" stroke-linejoin="round" stroke-linecap="butt" d="m287.04724 378.25912l0 95.0087l192.91602 -0.8331299l-0.8241577 -190.01736z" fill-rule="evenodd"/><path fill="#000000" fill-opacity="0.0" d="m192.6063 472.37994l421.6063 0.881897" fill-rule="evenodd"/><path stroke="#595959" stroke-width="1.0" stroke-linejoin="round" stroke-linecap="butt" d="m192.6063 472.37997l415.6063 0.86932373" fill-rule="evenodd"/><path fill="#595959" stroke="#595959" stroke-width="1.0" stroke-linecap="butt" d="m608.20917 474.90103l4.541504 -1.6422424l-4.534607 -1.6612244z" fill-rule="evenodd"/><path fill="#000000" fill-opacity="0.0" d="m192.6063 472.62262l0 -240.94487" fill-rule="evenodd"/><path stroke="#595959" stroke-width="1.0" stroke-linejoin="round" stroke-linecap="butt" d="m192.6063 472.62262l0 -234.94489" fill-rule="evenodd"/><path fill="#595959" stroke="#595959" stroke-width="1.0" stroke-linecap="butt" d="m194.25803 237.67773l-1.6517334 -4.538086l-1.6517334 4.538086z" fill-rule="evenodd"/><path fill="#000000" fill-opacity="0.0" d="m193.87013 282.4167l415.90552 0.881897" fill-rule="evenodd"/><path stroke="#595959" stroke-width="1.0" stroke-linejoin="round" stroke-linecap="butt" stroke-dasharray="1.0,3.0" d="m193.87013 282.4167l415.90552 0.881897" fill-rule="evenodd"/><path fill="#000000" fill-opacity="0.0" d="m193.87013 377.39832l415.90552 0.881897" fill-rule="evenodd"/><path stroke="#595959" stroke-width="1.0" stroke-linejoin="round" stroke-linecap="butt" stroke-dasharray="1.0,3.0" d="m193.87013 377.39832l415.90552 0.881897" fill-rule="evenodd"/><path fill="#000000" fill-opacity="0.0" d="m286.9475 470.9333l0 -237.57481" fill-rule="evenodd"/><path stroke="#595959" stroke-width="1.0" stroke-linejoin="round" stroke-linecap="butt" stroke-dasharray="1.0,3.0" d="m286.9475 470.9333l0 -237.57481" fill-rule="evenodd"/><path fill="#000000" fill-opacity="0.0" d="m574.4042 473.26184l0 -237.57481" fill-rule="evenodd"/><path stroke="#595959" stroke-width="1.0" stroke-linejoin="round" stroke-linecap="butt" stroke-dasharray="1.0,3.0" d="m574.4042 473.26184l0 -237.57481" fill-rule="evenodd"/><path fill="#000000" fill-opacity="0.0" d="m480.0 473.26184l0 -237.57481" fill-rule="evenodd"/><path stroke="#595959" stroke-width="1.0" stroke-linejoin="round" stroke-linecap="butt" stroke-dasharray="1.0,3.0" d="m480.0 473.26184l0 -237.57481" fill-rule="evenodd"/><path fill="#000000" fill-opacity="0.0" d="m384.7743 473.26184l0 -237.57481" fill-rule="evenodd"/><path stroke="#595959" stroke-width="1.0" stroke-linejoin="round" stroke-linecap="butt" stroke-dasharray="1.0,3.0" d="m384.7743 473.26184l0 -237.57481" fill-rule="evenodd"/><path fill="#000000" fill-opacity="0.0" d="m176.85564 478.89175l31.496063 0l0 46.64566l-31.496063 0z" fill-rule="evenodd"/><path fill="#595959" d="m186.74626 500.8405q0 -2.703125 0.546875 -4.34375q0.5625 -1.65625 1.65625 -2.546875q1.109375 -0.90625 2.765625 -0.90625q1.234375 0 2.15625 0.5q0.9375 0.484375 1.53125 1.421875q0.609375 0.9375 0.953125 2.28125q0.34375 1.328125 0.34375 3.59375q0 2.6875 -0.5625 4.34375q-0.546875 1.640625 -1.640625 2.546875q-1.09375 0.90625 -2.78125 0.90625q-2.203125 0 -3.46875 -1.59375q-1.5 -1.90625 -1.5 -6.203125zm1.921875 0q0 3.765625 0.875 5.015625q0.890625 1.234375 2.171875 1.234375q1.296875 0 2.171875 -1.25q0.890625 -1.25 0.890625 -5.0q0 -3.765625 -0.890625 -5.0q-0.875 -1.25 -2.1875 -1.25q-1.296875 0 -2.0625 1.09375q-0.96875 1.40625 -0.96875 5.15625z" fill-rule="nonzero"/><path fill="#000000" fill-opacity="0.0" d="m272.3701 478.89175l31.496063 0l0 46.64566l-31.496063 0z" fill-rule="evenodd"/><path fill="#595959" d="m289.3232 508.37177l-1.875 0l0 -11.9375q-0.6875 0.640625 -1.78125 1.28125q-1.09375 0.640625 -1.96875 0.96875l0 -1.8125q1.5625 -0.734375 2.734375 -1.78125q1.1875 -1.0625 1.671875 -2.046875l1.21875 0l0 15.328125z" fill-rule="nonzero"/><path fill="#000000" fill-opacity="0.0" d="m367.8832 478.89175l31.496063 0l0 46.64566l-31.496063 0z" fill-rule="evenodd"/><path fill="#595959" d="m387.61758 506.5749l0 1.796875l-10.09375 0q-0.015625 -0.671875 0.21875 -1.296875q0.390625 -1.03125 1.234375 -2.03125q0.859375 -1.0 2.453125 -2.3125q2.5 -2.046875 3.375 -3.234375q0.875 -1.203125 0.875 -2.25q0 -1.125 -0.796875 -1.890625q-0.796875 -0.765625 -2.078125 -0.765625q-1.359375 0 -2.171875 0.8125q-0.8125 0.8125 -0.828125 2.25l-1.921875 -0.1875q0.203125 -2.15625 1.484375 -3.28125q1.296875 -1.140625 3.46875 -1.140625q2.203125 0 3.484375 1.21875q1.28125 1.21875 1.28125 3.015625q0 0.921875 -0.375 1.8125q-0.375 0.875 -1.25 1.859375q-0.859375 0.96875 -2.890625 2.6875q-1.6875 1.40625 -2.171875 1.921875q-0.46875 0.5 -0.78125 1.015625l7.484375 0z" fill-rule="nonzero"/><path fill="#000000" fill-opacity="0.0" d="m463.39633 478.89175l31.496063 0l0 46.64566l-31.496063 0z" fill-rule="evenodd"/><path fill="#595959" d="m473.28696 504.3405l1.875 -0.25q0.328125 1.59375 1.09375 2.296875q0.78125 0.703125 1.90625 0.703125q1.3125 0 2.21875 -0.90625q0.921875 -0.921875 0.921875 -2.28125q0 -1.296875 -0.84375 -2.125q-0.84375 -0.84375 -2.140625 -0.84375q-0.53125 0 -1.328125 0.203125l0.203125 -1.640625q0.1875 0.015625 0.3125 0.015625q1.1875 0 2.140625 -0.625q0.96875 -0.625 0.96875 -1.921875q0 -1.03125 -0.703125 -1.703125q-0.6875 -0.671875 -1.796875 -0.671875q-1.09375 0 -1.828125 0.6875q-0.71875 0.6875 -0.9375 2.0625l-1.875 -0.34375q0.34375 -1.875 1.5625 -2.90625q1.21875 -1.046875 3.03125 -1.046875q1.25 0 2.296875 0.546875q1.0625 0.53125 1.609375 1.453125q0.5625 0.921875 0.5625 1.96875q0 0.984375 -0.53125 1.796875q-0.53125 0.8125 -1.5625 1.296875q1.34375 0.3125 2.09375 1.296875q0.75 0.984375 0.75 2.453125q0 2.0 -1.453125 3.390625q-1.453125 1.390625 -3.6875 1.390625q-2.015625 0 -3.34375 -1.1875q-1.328125 -1.203125 -1.515625 -3.109375z" fill-rule="nonzero"/><path fill="#000000" fill-opacity="0.0" d="m558.90814 478.89175l31.496033 0l0 46.64566l-31.496033 0z" fill-rule="evenodd"/><path fill="#595959" d="m574.79877 508.37177l0 -3.65625l-6.625 0l0 -1.71875l6.96875 -9.890625l1.53125 0l0 9.890625l2.0625 0l0 1.71875l-2.0625 0l0 3.65625l-1.875 0zm0 -5.375l0 -6.875l-4.78125 6.875l4.78125 0z" fill-rule="nonzero"/><path fill="#000000" fill-opacity="0.0" d="m157.62466 444.73428l31.496063 0l0 46.64566l-31.496063 0z" fill-rule="evenodd"/><path fill="#595959" d="m167.51529 466.683q0 -2.703125 0.546875 -4.34375q0.5625 -1.65625 1.65625 -2.546875q1.109375 -0.90625 2.765625 -0.90625q1.234375 0 2.15625 0.5q0.9375 0.484375 1.53125 1.421875q0.609375 0.9375 0.953125 2.28125q0.34375 1.328125 0.34375 3.59375q0 2.6875 -0.5625 4.34375q-0.546875 1.640625 -1.640625 2.546875q-1.09375 0.90625 -2.78125 0.90625q-2.203125 0 -3.46875 -1.59375q-1.5 -1.90625 -1.5 -6.203125zm1.921875 0q0 3.765625 0.875 5.015625q0.890625 1.234375 2.171875 1.234375q1.296875 0 2.171875 -1.25q0.890625 -1.25 0.890625 -5.0q0 -3.765625 -0.890625 -5.0q-0.875 -1.25 -2.1875 -1.25q-1.296875 0 -2.0625 1.09375q-0.96875 1.40625 -0.96875 5.15625z" fill-rule="nonzero"/><path fill="#000000" fill-opacity="0.0" d="m157.18391 354.5151l46.204712 0l0 46.64569l-46.204712 0z" fill-rule="evenodd"/><path fill="#595959" d="m174.13704 383.99512l-1.875 0l0 -11.9375q-0.6875 0.640625 -1.78125 1.28125q-1.09375 0.640625 -1.96875 0.96875l0 -1.8125q1.5625 -0.734375 2.734375 -1.78125q1.1875 -1.0625 1.671875 -2.046875l1.21875 0l0 15.328125z" fill-rule="nonzero"/><path fill="#000000" fill-opacity="0.0" d="m156.35948 259.5348l46.204727 0l0 46.64569l-46.204727 0z" fill-rule="evenodd"/><path fill="#595959" d="m176.09386 287.21793l0 1.796875l-10.09375 0q-0.015625 -0.671875 0.21875 -1.296875q0.390625 -1.03125 1.234375 -2.03125q0.859375 -1.0 2.453125 -2.3125q2.5 -2.046875 3.375 -3.234375q0.875 -1.203125 0.875 -2.25q0 -1.125 -0.796875 -1.890625q-0.796875 -0.765625 -2.078125 -0.765625q-1.359375 0 -2.171875 0.8125q-0.8125 0.8125 -0.828125 2.25l-1.921875 -0.1875q0.203125 -2.15625 1.484375 -3.28125q1.296875 -1.140625 3.46875 -1.140625q2.203125 0 3.484375 1.21875q1.28125 1.21875 1.28125 3.015625q0 0.921875 -0.375 1.8125q-0.375 0.875 -1.25 1.859375q-0.859375 0.96875 -2.890625 2.6875q-1.6875 1.40625 -2.171875 1.921875q-0.46875 0.5 -0.78125 1.015625l7.484375 0z" fill-rule="nonzero"/><path fill="#000000" fill-opacity="0.0" d="m626.7598 453.1936l222.80316 0l0 46.64566l-222.80316 0z" fill-rule="evenodd"/><path fill="#595959" d="m646.3223 480.92233q0 0.59375 -0.203125 1.0625q-0.1875 0.453125 -0.53125 0.8125q-0.34375 0.359375 -0.796875 0.625q-0.453125 0.25 -0.96875 0.421875q-0.515625 0.15625 -1.0625 0.234375q-0.546875 0.078125 -1.0625 0.078125q-1.125 0 -2.078125 -0.109375q-0.9375 -0.09375 -1.84375 -0.3125l0 -1.765625q0.96875 0.265625 1.921875 0.421875q0.96875 0.140625 1.921875 0.140625q1.390625 0 2.046875 -0.375q0.671875 -0.375 0.671875 -1.078125q0 -0.296875 -0.109375 -0.53125q-0.109375 -0.25 -0.390625 -0.453125q-0.265625 -0.21875 -0.84375 -0.453125q-0.578125 -0.234375 -1.59375 -0.53125q-0.75 -0.21875 -1.390625 -0.5q-0.625 -0.28125 -1.09375 -0.671875q-0.46875 -0.390625 -0.734375 -0.90625q-0.265625 -0.515625 -0.265625 -1.234375q0 -0.46875 0.21875 -1.015625q0.21875 -0.546875 0.734375 -1.015625q0.515625 -0.484375 1.40625 -0.796875q0.890625 -0.328125 2.203125 -0.328125q0.65625 0 1.453125 0.078125q0.796875 0.078125 1.65625 0.25l0 1.71875q-0.90625 -0.21875 -1.71875 -0.328125q-0.8125 -0.109375 -1.40625 -0.109375q-0.71875 0 -1.21875 0.109375q-0.484375 0.109375 -0.796875 0.3125q-0.296875 0.1875 -0.4375 0.453125q-0.125 0.25 -0.125 0.546875q0 0.3125 0.109375 0.5625q0.125 0.234375 0.4375 0.46875q0.3125 0.21875 0.875 0.453125q0.578125 0.21875 1.484375 0.484375q0.984375 0.28125 1.65625 0.59375q0.671875 0.3125 1.09375 0.703125q0.421875 0.390625 0.59375 0.875q0.1875 0.484375 0.1875 1.109375zm12.300293 2.625q-0.765625 0.28125 -1.5625 0.421875q-0.78125 0.140625 -1.625 0.140625q-2.625 0 -4.046875 -1.421875q-1.421875 -1.4375 -1.421875 -4.171875q0 -1.328125 0.40625 -2.390625q0.40625 -1.078125 1.140625 -1.84375q0.75 -0.765625 1.78125 -1.171875q1.03125 -0.421875 2.265625 -0.421875q0.859375 0 1.609375 0.125q0.765625 0.125 1.453125 0.40625l0 1.828125q-0.71875 -0.375 -1.46875 -0.546875q-0.75 -0.171875 -1.546875 -0.171875q-0.734375 0 -1.40625 0.28125q-0.65625 0.28125 -1.15625 0.8125q-0.484375 0.53125 -0.78125 1.296875q-0.28125 0.765625 -0.28125 1.71875q0 2.015625 0.96875 3.015625q0.984375 1.0 2.71875 1.0q0.78125 0 1.515625 -0.171875q0.75 -0.171875 1.4375 -0.53125l0 1.796875zm13.487732 -5.234375q0 1.296875 -0.375 2.375q-0.359375 1.078125 -1.046875 1.84375q-0.671875 0.765625 -1.65625 1.203125q-0.984375 0.421875 -2.234375 0.421875q-1.203125 0 -2.15625 -0.375q-0.9375 -0.375 -1.59375 -1.09375q-0.65625 -0.71875 -1.015625 -1.78125q-0.34375 -1.0625 -0.34375 -2.4375q0 -1.296875 0.359375 -2.359375q0.375 -1.078125 1.0625 -1.84375q0.6875 -0.765625 1.671875 -1.1875q0.984375 -0.4375 2.234375 -0.4375q1.1875 0 2.125 0.375q0.953125 0.375 1.609375 1.09375q0.65625 0.703125 1.0 1.765625q0.359375 1.0625 0.359375 2.4375zm-1.96875 0.09375q0 -1.03125 -0.234375 -1.796875q-0.21875 -0.78125 -0.640625 -1.296875q-0.421875 -0.515625 -1.03125 -0.765625q-0.59375 -0.265625 -1.328125 -0.265625q-0.875 0 -1.484375 0.34375q-0.609375 0.328125 -1.0 0.90625q-0.390625 0.5625 -0.578125 1.3125q-0.1875 0.734375 -0.1875 1.5625q0 1.015625 0.21875 1.796875q0.234375 0.78125 0.65625 1.296875q0.421875 0.5 1.015625 0.765625q0.59375 0.265625 1.359375 0.265625q0.859375 0 1.46875 -0.34375q0.609375 -0.34375 1.0 -0.90625q0.40625 -0.5625 0.578125 -1.296875q0.1875 -0.75 0.1875 -1.578125zm5.206543 -5.5625l1.765625 0l0.046875 2.046875q0.984375 -1.1875 1.9375 -1.71875q0.96875 -0.53125 1.9375 -0.53125q1.734375 0 2.625 1.125q0.890625 1.109375 0.8125 3.3125l-1.9375 0q0.03125 -1.453125 -0.4375 -2.109375q-0.453125 -0.65625 -1.328125 -0.65625q-0.390625 0 -0.796875 0.140625q-0.390625 0.125 -0.8125 0.4375q-0.40625 0.296875 -0.875 0.78125q-0.453125 0.46875 -0.984375 1.140625l0 7.140625l-1.953125 0l0 -11.109375zm21.393982 4.96875q0 0.40625 -0.015625 0.6875q-0.015625 0.28125 -0.03125 0.515625l-7.796875 0q0 1.703125 0.9375 2.625q0.953125 0.90625 2.75 0.90625q0.484375 0 0.96875 -0.03125q0.5 -0.046875 0.953125 -0.109375q0.453125 -0.0625 0.859375 -0.140625q0.421875 -0.09375 0.765625 -0.1875l0 1.578125q-0.78125 0.21875 -1.78125 0.359375q-0.984375 0.140625 -2.046875 0.140625q-1.421875 0 -2.453125 -0.390625q-1.03125 -0.390625 -1.6875 -1.125q-0.65625 -0.734375 -0.96875 -1.796875q-0.3125 -1.078125 -0.3125 -2.421875q0 -1.171875 0.328125 -2.21875q0.34375 -1.046875 0.984375 -1.828125q0.65625 -0.796875 1.59375 -1.265625q0.9375 -0.46875 2.140625 -0.46875q1.15625 0 2.046875 0.375q0.90625 0.359375 1.515625 1.03125q0.609375 0.671875 0.921875 1.625q0.328125 0.953125 0.328125 2.140625zm-2.0 -0.28125q0.03125 -0.734375 -0.15625 -1.34375q-0.171875 -0.625 -0.546875 -1.0625q-0.359375 -0.4375 -0.921875 -0.6875q-0.546875 -0.25 -1.28125 -0.25q-0.625 0 -1.15625 0.25q-0.515625 0.234375 -0.890625 0.6875q-0.375 0.4375 -0.609375 1.0625q-0.234375 0.609375 -0.28125 1.34375l5.84375 0zm26.475525 6.265625q-0.65625 0.171875 -1.359375 0.234375q-0.6875 0.078125 -1.40625 0.078125q-2.09375 0 -3.125 -0.9375q-1.015625 -0.953125 -1.015625 -2.90625l0 -5.796875l-3.109375 0l0 -1.625l3.109375 0l0 -3.046875l1.921875 -0.5l0 3.546875l4.984375 0l0 1.625l-4.984375 0l0 5.640625q0 1.1875 0.625 1.78125q0.640625 0.59375 1.875 0.59375q0.53125 0 1.15625 -0.078125q0.640625 -0.09375 1.328125 -0.265625l0 1.65625zm7.284668 -9.359375l-3.28125 0l0 -1.59375l5.234375 0l0 9.5l3.3125 0l0 1.609375l-8.90625 0l0 -1.609375l3.640625 0l0 -7.90625zm0.6875 -6.25q0.3125 0 0.59375 0.125q0.28125 0.109375 0.484375 0.328125q0.203125 0.203125 0.3125 0.484375q0.125 0.265625 0.125 0.578125q0 0.3125 -0.125 0.59375q-0.109375 0.265625 -0.3125 0.484375q-0.203125 0.203125 -0.484375 0.328125q-0.28125 0.109375 -0.59375 0.109375q-0.328125 0 -0.609375 -0.109375q-0.265625 -0.125 -0.484375 -0.328125q-0.203125 -0.21875 -0.3125 -0.484375q-0.109375 -0.28125 -0.109375 -0.59375q0 -0.3125 0.109375 -0.578125q0.109375 -0.28125 0.3125 -0.484375q0.21875 -0.21875 0.484375 -0.328125q0.28125 -0.125 0.609375 -0.125zm15.909607 15.765625l0 -7.96875q0 -0.53125 -0.046875 -0.859375q-0.03125 -0.328125 -0.109375 -0.515625q-0.078125 -0.203125 -0.21875 -0.28125q-0.125 -0.078125 -0.3125 -0.078125q-0.21875 0 -0.40625 0.140625q-0.1875 0.125 -0.40625 0.421875q-0.21875 0.296875 -0.484375 0.796875q-0.25 0.484375 -0.59375 1.203125l0 7.140625l-1.765625 0l0 -7.765625q0 -0.609375 -0.046875 -0.984375q-0.03125 -0.375 -0.125 -0.578125q-0.078125 -0.21875 -0.21875 -0.296875q-0.125 -0.078125 -0.3125 -0.078125q-0.1875 0 -0.375 0.109375q-0.171875 0.109375 -0.390625 0.40625q-0.21875 0.28125 -0.484375 0.78125q-0.265625 0.5 -0.625 1.265625l0 7.140625l-1.765625 0l0 -11.109375l1.46875 0l0.09375 2.109375q0.28125 -0.625 0.546875 -1.0625q0.28125 -0.453125 0.5625 -0.71875q0.28125 -0.265625 0.609375 -0.390625q0.328125 -0.140625 0.734375 -0.140625q0.890625 0 1.359375 0.59375q0.46875 0.578125 0.46875 1.8125q0.265625 -0.578125 0.515625 -1.015625q0.25 -0.453125 0.546875 -0.75q0.296875 -0.3125 0.640625 -0.46875q0.359375 -0.171875 0.828125 -0.171875q2.078125 0 2.078125 3.21875l0 8.09375l-1.765625 0zm13.925293 -6.140625q0 0.40625 -0.015625 0.6875q-0.015625 0.28125 -0.03125 0.515625l-7.796875 0q0 1.703125 0.9375 2.625q0.953125 0.90625 2.75 0.90625q0.484375 0 0.96875 -0.03125q0.5 -0.046875 0.953125 -0.109375q0.453125 -0.0625 0.859375 -0.140625q0.421875 -0.09375 0.765625 -0.1875l0 1.578125q-0.78125 0.21875 -1.78125 0.359375q-0.984375 0.140625 -2.046875 0.140625q-1.421875 0 -2.453125 -0.390625q-1.03125 -0.390625 -1.6875 -1.125q-0.65625 -0.734375 -0.96875 -1.796875q-0.3125 -1.078125 -0.3125 -2.421875q0 -1.171875 0.328125 -2.21875q0.34375 -1.046875 0.984375 -1.828125q0.65625 -0.796875 1.59375 -1.265625q0.9375 -0.46875 2.140625 -0.46875q1.15625 0 2.046875 0.375q0.90625 0.359375 1.515625 1.03125q0.609375 0.671875 0.921875 1.625q0.328125 0.953125 0.328125 2.140625zm-2.0 -0.28125q0.03125 -0.734375 -0.15625 -1.34375q-0.171875 -0.625 -0.546875 -1.0625q-0.359375 -0.4375 -0.921875 -0.6875q-0.546875 -0.25 -1.28125 -0.25q-0.625 0 -1.15625 0.25q-0.515625 0.234375 -0.890625 0.6875q-0.375 0.4375 -0.609375 1.0625q-0.234375 0.609375 -0.28125 1.34375l5.84375 0z" fill-rule="nonzero"/><path fill="#000000" fill-opacity="0.0" d="m38.267902 388.22247l142.70866 0l0 69.543304l-142.70866 0z" fill-rule="evenodd"/><path fill="#595959" d="m57.830402 415.9512q0 0.59375 -0.203125 1.0625q-0.1875 0.453125 -0.53125 0.8125q-0.34375 0.359375 -0.796875 0.625q-0.453125 0.25 -0.96875 0.421875q-0.515625 0.15625 -1.0625 0.234375q-0.546875 0.078125 -1.0625 0.078125q-1.125 0 -2.078125 -0.109375q-0.9375 -0.09375 -1.84375 -0.3125l0 -1.765625q0.96875 0.265625 1.921875 0.421875q0.96875 0.140625 1.921875 0.140625q1.390625 0 2.046875 -0.375q0.671875 -0.375 0.671875 -1.078125q0 -0.296875 -0.109375 -0.53125q-0.109375 -0.25 -0.390625 -0.453125q-0.265625 -0.21875 -0.84375 -0.453125q-0.578125 -0.234375 -1.59375 -0.53125q-0.75 -0.21875 -1.390625 -0.5q-0.625 -0.28125 -1.09375 -0.671875q-0.46875 -0.390625 -0.734375 -0.90625q-0.265625 -0.515625 -0.265625 -1.234375q0 -0.46875 0.21875 -1.015625q0.21875 -0.546875 0.734375 -1.015625q0.515625 -0.484375 1.40625 -0.796875q0.890625 -0.328125 2.203125 -0.328125q0.65625 0 1.453125 0.078125q0.796875 0.078125 1.65625 0.25l0 1.71875q-0.90625 -0.21875 -1.71875 -0.328125q-0.8125 -0.109375 -1.40625 -0.109375q-0.71875 0 -1.21875 0.109375q-0.484375 0.109375 -0.796875 0.3125q-0.296875 0.1875 -0.4375 0.453125q-0.125 0.25 -0.125 0.546875q0 0.3125 0.109375 0.5625q0.125 0.234375 0.4375 0.46875q0.3125 0.21875 0.875 0.453125q0.578125 0.21875 1.484375 0.484375q0.984375 0.28125 1.65625 0.59375q0.671875 0.3125 1.09375 0.703125q0.421875 0.390625 0.59375 0.875q0.1875 0.484375 0.1875 1.109375zm7.4408836 -11.015625l-3.2812462 0l0 -1.578125l5.234371 0l0 14.015625l3.3125 0l0 1.609375l-8.906246 0l0 -1.609375l3.6406212 0l0 -12.4375zm18.347137 8.40625q0 1.296875 -0.375 2.375q-0.359375 1.078125 -1.046875 1.84375q-0.671875 0.765625 -1.65625 1.203125q-0.984375 0.421875 -2.234375 0.421875q-1.203125 0 -2.15625 -0.375q-0.9375 -0.375 -1.59375 -1.09375q-0.65625 -0.71875 -1.015625 -1.78125q-0.34375 -1.0625 -0.34375 -2.4375q0 -1.296875 0.359375 -2.359375q0.375 -1.078125 1.0625 -1.84375q0.6875 -0.765625 1.671875 -1.1875q0.984375 -0.4375 2.234375 -0.4375q1.1875 0 2.125 0.375q0.953125 0.375 1.609375 1.09375q0.65625 0.703125 1.0 1.765625q0.359375 1.0625 0.359375 2.4375zm-1.96875 0.09375q0 -1.03125 -0.234375 -1.796875q-0.21875 -0.78125 -0.640625 -1.296875q-0.421875 -0.515625 -1.03125 -0.765625q-0.59375 -0.265625 -1.328125 -0.265625q-0.875 0 -1.484375 0.34375q-0.609375 0.328125 -1.0 0.90625q-0.390625 0.5625 -0.578125 1.3125q-0.1875 0.734375 -0.1875 1.5625q0 1.015625 0.21875 1.796875q0.234375 0.78125 0.65625 1.296875q0.421875 0.5 1.015625 0.765625q0.59375 0.265625 1.359375 0.265625q0.859375 0 1.46875 -0.34375q0.609375 -0.34375 1.0 -0.90625q0.40625 -0.5625 0.578125 -1.296875q0.1875 -0.75 0.1875 -1.578125zm15.050262 -5.5625l-1.625 11.109375l-2.328125 0l-1.609375 -4.640625l-0.3125 -1.140625l-0.375 1.203125l-1.53125 4.578125l-2.265625 0l-1.609375 -11.109375l1.890625 0l0.921875 7.546875l0.203125 1.6875l0.46875 -1.484375l1.625 -4.984375l1.375 0l1.734375 4.921875l0.5 1.46875l0.171875 -1.546875l0.859375 -7.609375l1.90625 0zm2.1596375 0l1.71875 0l0.078125 1.796875q0.484375 -0.578125 0.9375 -0.953125q0.453125 -0.390625 0.890625 -0.625q0.4375 -0.234375 0.890625 -0.328125q0.453125 -0.09375 0.9375 -0.09375q1.71875 0 2.59375 1.015625q0.890625 1.015625 0.890625 3.046875l0 7.25l-1.9375 0l0 -7.09375q0 -1.296875 -0.484375 -1.921875q-0.484375 -0.625 -1.4375 -0.625q-0.359375 0 -0.703125 0.109375q-0.328125 0.09375 -0.703125 0.359375q-0.359375 0.25 -0.796875 0.703125q-0.421875 0.4375 -0.953125 1.09375l0 7.375l-1.921875 0l0 -11.109375zm21.847137 4.96875q0 0.40625 -0.015625 0.6875q-0.015625 0.28125 -0.03125 0.515625l-7.796875 0q0 1.703125 0.9375 2.625q0.953125 0.90625 2.75 0.90625q0.484375 0 0.96875 -0.03125q0.5 -0.046875 0.953125 -0.109375q0.453125 -0.0625 0.859375 -0.140625q0.421875 -0.09375 0.765625 -0.1875l0 1.578125q-0.78125 0.21875 -1.78125 0.359375q-0.984375 0.140625 -2.046875 0.140625q-1.421875 0 -2.453125 -0.390625q-1.03125 -0.390625 -1.6875 -1.125q-0.65625 -0.734375 -0.96875 -1.796875q-0.3125 -1.078125 -0.3125 -2.421875q0 -1.171875 0.328125 -2.21875q0.34375 -1.046875 0.984375 -1.828125q0.65625 -0.796875 1.59375 -1.265625q0.9375 -0.46875 2.140625 -0.46875q1.15625 0 2.046875 0.375q0.90625 0.359375 1.515625 1.03125q0.609375 0.671875 0.921875 1.625q0.328125 0.953125 0.328125 2.140625zm-2.0 -0.28125q0.03125 -0.734375 -0.15625 -1.34375q-0.171875 -0.625 -0.546875 -1.0625q-0.359375 -0.4375 -0.921875 -0.6875q-0.546875 -0.25 -1.28125 -0.25q-0.625 0 -1.15625 0.25q-0.515625 0.234375 -0.890625 0.6875q-0.375 0.4375 -0.609375 1.0625q-0.234375 0.609375 -0.28125 1.34375l5.84375 0zm13.862762 3.390625q0 0.59375 -0.203125 1.0625q-0.1875 0.453125 -0.53125 0.8125q-0.34375 0.359375 -0.796875 0.625q-0.453125 0.25 -0.96875 0.421875q-0.515625 0.15625 -1.0625 0.234375q-0.546875 0.078125 -1.0625 0.078125q-1.125 0 -2.078125 -0.109375q-0.9375 -0.09375 -1.84375 -0.3125l0 -1.765625q0.96875 0.265625 1.921875 0.421875q0.96875 0.140625 1.921875 0.140625q1.390625 0 2.046875 -0.375q0.671875 -0.375 0.671875 -1.078125q0 -0.296875 -0.109375 -0.53125q-0.109375 -0.25 -0.390625 -0.453125q-0.265625 -0.21875 -0.84375 -0.453125q-0.578125 -0.234375 -1.59375 -0.53125q-0.75 -0.21875 -1.390625 -0.5q-0.625 -0.28125 -1.09375 -0.671875q-0.46875 -0.390625 -0.734375 -0.90625q-0.265625 -0.515625 -0.265625 -1.234375q0 -0.46875 0.21875 -1.015625q0.21875 -0.546875 0.734375 -1.015625q0.515625 -0.484375 1.40625 -0.796875q0.890625 -0.328125 2.203125 -0.328125q0.65625 0 1.453125 0.078125q0.796875 0.078125 1.65625 0.25l0 1.71875q-0.90625 -0.21875 -1.71875 -0.328125q-0.8125 -0.109375 -1.40625 -0.109375q-0.71875 0 -1.21875 0.109375q-0.484375 0.109375 -0.796875 0.3125q-0.296875 0.1875 -0.4375 0.453125q-0.125 0.25 -0.125 0.546875q0 0.3125 0.109375 0.5625q0.125 0.234375 0.4375 0.46875q0.3125 0.21875 0.875 0.453125q0.578125 0.21875 1.484375 0.484375q0.984375 0.28125 1.65625 0.59375q0.671875 0.3125 1.09375 0.703125q0.421875 0.390625 0.59375 0.875q0.1875 0.484375 0.1875 1.109375zm12.456512 0q0 0.59375 -0.203125 1.0625q-0.1875 0.453125 -0.53125 0.8125q-0.34375 0.359375 -0.796875 0.625q-0.453125 0.25 -0.96875 0.421875q-0.515625 0.15625 -1.0625 0.234375q-0.546875 0.078125 -1.0625 0.078125q-1.125 0 -2.078125 -0.109375q-0.9375 -0.09375 -1.84375 -0.3125l0 -1.765625q0.96875 0.265625 1.921875 0.421875q0.96875 0.140625 1.921875 0.140625q1.390625 0 2.046875 -0.375q0.671875 -0.375 0.671875 -1.078125q0 -0.296875 -0.109375 -0.53125q-0.109375 -0.25 -0.390625 -0.453125q-0.265625 -0.21875 -0.84375 -0.453125q-0.578125 -0.234375 -1.59375 -0.53125q-0.75 -0.21875 -1.390625 -0.5q-0.625 -0.28125 -1.09375 -0.671875q-0.46875 -0.390625 -0.734375 -0.90625q-0.265625 -0.515625 -0.265625 -1.234375q0 -0.46875 0.21875 -1.015625q0.21875 -0.546875 0.734375 -1.015625q0.515625 -0.484375 1.40625 -0.796875q0.890625 -0.328125 2.203125 -0.328125q0.65625 0 1.453125 0.078125q0.796875 0.078125 1.65625 0.25l0 1.71875q-0.90625 -0.21875 -1.71875 -0.328125q-0.8125 -0.109375 -1.40625 -0.109375q-0.71875 0 -1.21875 0.109375q-0.484375 0.109375 -0.796875 0.3125q-0.296875 0.1875 -0.4375 0.453125q-0.125 0.25 -0.125 0.546875q0 0.3125 0.109375 0.5625q0.125 0.234375 0.4375 0.46875q0.3125 0.21875 0.875 0.453125q0.578125 0.21875 1.484375 0.484375q0.984375 0.28125 1.65625 0.59375q0.671875 0.3125 1.09375 0.703125q0.421875 0.390625 0.59375 0.875q0.1875 0.484375 0.1875 1.109375z" fill-rule="nonzero"/><path fill="#000000" fill-opacity="0.0" d="m286.90027 377.58728l192.91339 -93.98425" fill-rule="evenodd"/><path stroke="#595959" stroke-width="2.0" stroke-linejoin="round" stroke-linecap="butt" d="m286.90027 377.58728l192.91339 -93.98425" fill-rule="evenodd"/><path fill="#000000" fill-opacity="0.0" d="m303.78348 377.8924l306.1417 0l0 79.87402l-306.1417 0z" fill-rule="evenodd"/><path fill="#595959" d="m318.33035 399.13675l-3.28125 0l0 -1.59375l5.234375 0l0 9.5l3.3125 0l0 1.609375l-8.90625 0l0 -1.609375l3.640625 0l0 -7.90625zm0.6875 -6.25q0.3125 0 0.59375 0.125q0.28125 0.109375 0.484375 0.328125q0.203125 0.203125 0.3125 0.484375q0.125 0.265625 0.125 0.578125q0 0.3125 -0.125 0.59375q-0.109375 0.265625 -0.3125 0.484375q-0.203125 0.203125 -0.484375 0.328125q-0.28125 0.109375 -0.59375 0.109375q-0.328125 0 -0.609375 -0.109375q-0.265625 -0.125 -0.484375 -0.328125q-0.203125 -0.21875 -0.3125 -0.484375q-0.109375 -0.28125 -0.109375 -0.59375q0 -0.3125 0.109375 -0.578125q0.109375 -0.28125 0.3125 -0.484375q0.21875 -0.21875 0.484375 -0.328125q0.28125 -0.125 0.609375 -0.125zm7.9877625 4.65625l1.71875 0l0.078125 1.796875q0.484375 -0.578125 0.9375 -0.953125q0.453125 -0.390625 0.890625 -0.625q0.4375 -0.234375 0.890625 -0.328125q0.453125 -0.09375 0.9375 -0.09375q1.71875 0 2.59375 1.015625q0.890625 1.015625 0.890625 3.046875l0 7.25l-1.9375 0l0 -7.09375q0 -1.296875 -0.484375 -1.921875q-0.484375 -0.625 -1.4375 -0.625q-0.359375 0 -0.703125 0.109375q-0.328125 0.09375 -0.703125 0.359375q-0.359375 0.25 -0.796875 0.703125q-0.421875 0.4375 -0.953125 1.09375l0 7.375l-1.921875 0l0 -11.109375zm21.409637 10.953125q-0.65625 0.171875 -1.359375 0.234375q-0.6875 0.078125 -1.40625 0.078125q-2.09375 0 -3.125 -0.9375q-1.015625 -0.953125 -1.015625 -2.90625l0 -5.796875l-3.109375 0l0 -1.625l3.109375 0l0 -3.046875l1.921875 -0.5l0 3.546875l4.984375 0l0 1.625l-4.984375 0l0 5.640625q0 1.1875 0.625 1.78125q0.640625 0.59375 1.875 0.59375q0.53125 0 1.15625 -0.078125q0.640625 -0.09375 1.328125 -0.265625l0 1.65625zm12.894012 -5.984375q0 0.40625 -0.015625 0.6875q-0.015625 0.28125 -0.03125 0.515625l-7.796875 0q0 1.703125 0.9375 2.625q0.953125 0.90625 2.75 0.90625q0.484375 0 0.96875 -0.03125q0.5 -0.046875 0.953125 -0.109375q0.453125 -0.0625 0.859375 -0.140625q0.421875 -0.09375 0.765625 -0.1875l0 1.578125q-0.78125 0.21875 -1.78125 0.359375q-0.984375 0.140625 -2.046875 0.140625q-1.421875 0 -2.453125 -0.390625q-1.03125 -0.390625 -1.6875 -1.125q-0.65625 -0.734375 -0.96875 -1.796875q-0.3125 -1.078125 -0.3125 -2.421875q0 -1.171875 0.328125 -2.21875q0.34375 -1.046875 0.984375 -1.828125q0.65625 -0.796875 1.59375 -1.265625q0.9375 -0.46875 2.140625 -0.46875q1.15625 0 2.046875 0.375q0.90625 0.359375 1.515625 1.03125q0.609375 0.671875 0.921875 1.625q0.328125 0.953125 0.328125 2.140625zm-2.0 -0.28125q0.03125 -0.734375 -0.15625 -1.34375q-0.171875 -0.625 -0.546875 -1.0625q-0.359375 -0.4375 -0.921875 -0.6875q-0.546875 -0.25 -1.28125 -0.25q-0.625 0 -1.15625 0.25q-0.515625 0.234375 -0.890625 0.6875q-0.375 0.4375 -0.609375 1.0625q-0.234375 0.609375 -0.28125 1.34375l5.84375 0zm13.065887 -3.109375q0.3125 0.375 0.484375 0.890625q0.171875 0.515625 0.171875 1.125q0 0.859375 -0.3125 1.578125q-0.3125 0.703125 -0.890625 1.21875q-0.578125 0.5 -1.390625 0.78125q-0.796875 0.28125 -1.75 0.28125q-0.703125 0 -1.3125 -0.140625q-0.609375 -0.15625 -0.953125 -0.375q-0.21875 0.3125 -0.359375 0.59375q-0.140625 0.265625 -0.140625 0.609375q0 0.421875 0.390625 0.703125q0.40625 0.28125 1.078125 0.296875l2.921875 0.109375q0.828125 0.015625 1.53125 0.21875q0.703125 0.1875 1.203125 0.546875q0.5 0.34375 0.78125 0.859375q0.28125 0.515625 0.28125 1.203125q0 0.75 -0.328125 1.40625q-0.3125 0.671875 -0.984375 1.171875q-0.65625 0.5 -1.6875 0.796875q-1.03125 0.296875 -2.453125 0.296875q-1.34375 0 -2.296875 -0.21875q-0.9375 -0.203125 -1.546875 -0.59375q-0.609375 -0.375 -0.890625 -0.90625q-0.265625 -0.515625 -0.265625 -1.15625q0 -0.796875 0.375 -1.40625q0.375 -0.609375 1.15625 -1.171875q-0.28125 -0.140625 -0.5 -0.328125q-0.203125 -0.203125 -0.34375 -0.4375q-0.125 -0.25 -0.203125 -0.515625q-0.0625 -0.265625 -0.0625 -0.515625q0 -0.71875 0.328125 -1.3125q0.34375 -0.609375 0.8125 -1.140625q-0.203125 -0.25 -0.375 -0.484375q-0.15625 -0.25 -0.28125 -0.53125q-0.109375 -0.28125 -0.171875 -0.609375q-0.0625 -0.328125 -0.0625 -0.75q0 -0.859375 0.3125 -1.5625q0.328125 -0.71875 0.890625 -1.21875q0.578125 -0.515625 1.375 -0.796875q0.796875 -0.296875 1.78125 -0.296875q0.40625 0 0.78125 0.0625q0.375 0.046875 0.65625 0.140625l4.03125 0l0 1.578125l-1.78125 0zm-6.671875 11.140625q0 0.78125 0.8125 1.140625q0.8125 0.359375 2.28125 0.359375q0.921875 0 1.546875 -0.171875q0.625 -0.15625 1.0 -0.4375q0.375 -0.265625 0.546875 -0.625q0.171875 -0.34375 0.171875 -0.703125q0 -0.671875 -0.5625 -1.0q-0.546875 -0.3125 -1.6875 -0.375l-2.90625 -0.09375q-0.359375 0.234375 -0.59375 0.46875q-0.234375 0.234375 -0.375 0.46875q-0.125 0.25 -0.1875 0.484375q-0.046875 0.234375 -0.046875 0.484375zm0.578125 -9.09375q0 0.53125 0.171875 0.984375q0.1875 0.4375 0.5 0.75q0.328125 0.3125 0.765625 0.484375q0.4375 0.171875 0.96875 0.171875q0.578125 0 1.015625 -0.1875q0.453125 -0.203125 0.75 -0.53125q0.3125 -0.34375 0.46875 -0.765625q0.15625 -0.4375 0.15625 -0.90625q0 -0.53125 -0.171875 -0.96875q-0.171875 -0.4375 -0.5 -0.75q-0.3125 -0.3125 -0.75 -0.484375q-0.4375 -0.171875 -0.96875 -0.171875q-0.578125 0 -1.03125 0.203125q-0.4375 0.203125 -0.75 0.53125q-0.296875 0.3125 -0.46875 0.75q-0.15625 0.4375 -0.15625 0.890625zm11.003387 -3.625l1.765625 0l0.046875 2.046875q0.984375 -1.1875 1.9375 -1.71875q0.96875 -0.53125 1.9375 -0.53125q1.734375 0 2.625 1.125q0.890625 1.109375 0.8125 3.3125l-1.9375 0q0.03125 -1.453125 -0.4375 -2.109375q-0.453125 -0.65625 -1.328125 -0.65625q-0.390625 0 -0.796875 0.140625q-0.390625 0.125 -0.8125 0.4375q-0.40625 0.296875 -0.875 0.78125q-0.453125 0.46875 -0.984375 1.140625l0 7.140625l-1.953125 0l0 -11.109375zm19.144012 11.109375l-0.046875 -1.5q-0.90625 0.90625 -1.84375 1.3125q-0.9375 0.390625 -1.953125 0.390625q-0.953125 0 -1.640625 -0.234375q-0.671875 -0.25 -1.109375 -0.671875q-0.4375 -0.4375 -0.640625 -1.015625q-0.203125 -0.578125 -0.203125 -1.25q0 -1.671875 1.234375 -2.609375q1.25 -0.953125 3.6875 -0.953125l2.296875 0l0 -0.96875q0 -0.984375 -0.625 -1.578125q-0.625 -0.59375 -1.921875 -0.59375q-0.9375 0 -1.859375 0.21875q-0.90625 0.203125 -1.875 0.59375l0 -1.734375q0.359375 -0.140625 0.796875 -0.265625q0.453125 -0.125 0.953125 -0.21875q0.5 -0.109375 1.03125 -0.171875q0.546875 -0.0625 1.109375 -0.0625q1.0 0 1.8125 0.234375q0.8125 0.21875 1.359375 0.671875q0.5625 0.453125 0.859375 1.140625q0.296875 0.6875 0.296875 1.609375l0 7.65625l-1.71875 0zm-0.21875 -5.0625l-2.4375 0q-0.71875 0 -1.25 0.15625q-0.515625 0.140625 -0.84375 0.40625q-0.328125 0.265625 -0.5 0.640625q-0.15625 0.359375 -0.15625 0.828125q0 0.328125 0.09375 0.625q0.109375 0.28125 0.328125 0.515625q0.234375 0.21875 0.578125 0.359375q0.359375 0.125 0.859375 0.125q0.671875 0 1.53125 -0.40625q0.859375 -0.40625 1.796875 -1.28125l0 -1.96875zm9.315887 -8.984375l-3.28125 0l0 -1.578125l5.234375 0l0 14.015625l3.3125 0l0 1.609375l-8.90625 0l0 -1.609375l3.640625 0l0 -12.4375zm30.350525 6.90625l-9.515625 0l0 -1.625l9.515625 0l0 1.625zm0 3.84375l-9.515625 0l0 -1.625l9.515625 0l0 1.625zm24.80365 -1.09375q0 0.953125 -0.390625 1.796875q-0.390625 0.828125 -1.171875 1.453125q-0.765625 0.625 -1.9375 0.984375q-1.171875 0.359375 -2.734375 0.359375q-0.859375 0 -1.546875 -0.0625q-0.6875 -0.046875 -1.28125 -0.140625l0 -1.71875q0.6875 0.109375 1.453125 0.1875q0.765625 0.0625 1.5625 0.0625q1.078125 0 1.84375 -0.1875q0.765625 -0.203125 1.25 -0.5625q0.5 -0.375 0.71875 -0.890625q0.21875 -0.515625 0.21875 -1.171875q0 -0.59375 -0.265625 -1.03125q-0.265625 -0.453125 -0.75 -0.75q-0.46875 -0.296875 -1.140625 -0.4375q-0.671875 -0.15625 -1.46875 -0.15625l-1.65625 0l0 -1.578125l1.671875 0q0.65625 0 1.1875 -0.171875q0.546875 -0.171875 0.921875 -0.484375q0.390625 -0.328125 0.59375 -0.796875q0.203125 -0.484375 0.203125 -1.078125q0 -1.15625 -0.71875 -1.6875q-0.703125 -0.53125 -2.078125 -0.53125q-0.71875 0 -1.5 0.140625q-0.765625 0.140625 -1.65625 0.4375l0 -1.6875q0.375 -0.125 0.796875 -0.234375q0.421875 -0.109375 0.84375 -0.171875q0.4375 -0.078125 0.859375 -0.109375q0.421875 -0.046875 0.8125 -0.046875q1.140625 0 2.015625 0.25q0.875 0.25 1.453125 0.71875q0.59375 0.453125 0.890625 1.125q0.296875 0.65625 0.296875 1.484375q0 1.25 -0.640625 2.09375q-0.625 0.828125 -1.734375 1.328125q0.5625 0.09375 1.109375 0.359375q0.546875 0.265625 0.984375 0.6875q0.4375 0.40625 0.703125 0.96875q0.28125 0.5625 0.28125 1.25z" fill-rule="nonzero"/><path fill="#595959" d="m321.68973 435.8524l-0.046875 -1.5q-0.90625 0.90625 -1.84375 1.3125q-0.9375 0.390625 -1.953125 0.390625q-0.953125 0 -1.640625 -0.234375q-0.671875 -0.25 -1.109375 -0.671875q-0.4375 -0.4375 -0.640625 -1.015625q-0.203125 -0.578125 -0.203125 -1.25q0 -1.671875 1.234375 -2.609375q1.25 -0.953125 3.6875 -0.953125l2.296875 0l0 -0.96875q0 -0.984375 -0.625 -1.578125q-0.625 -0.59375 -1.921875 -0.59375q-0.9375 0 -1.859375 0.21875q-0.90625 0.203125 -1.875 0.59375l0 -1.734375q0.359375 -0.140625 0.796875 -0.265625q0.453125 -0.125 0.953125 -0.21875q0.5 -0.109375 1.03125 -0.171875q0.546875 -0.0625 1.109375 -0.0625q1.0 0 1.8125 0.234375q0.8125 0.21875 1.359375 0.671875q0.5625 0.453125 0.859375 1.140625q0.296875 0.6875 0.296875 1.609375l0 7.65625l-1.71875 0zm-0.21875 -5.0625l-2.4375 0q-0.71875 0 -1.25 0.15625q-0.515625 0.140625 -0.84375 0.40625q-0.328125 0.265625 -0.5 0.640625q-0.15625 0.359375 -0.15625 0.828125q0 0.328125 0.09375 0.625q0.109375 0.28125 0.328125 0.515625q0.234375 0.21875 0.578125 0.359375q0.359375 0.125 0.859375 0.125q0.671875 0 1.53125 -0.40625q0.859375 -0.40625 1.796875 -1.28125l0 -1.96875zm4.5033875 -6.046875l2.1875 0l2.71875 7.34375l0.59375 1.796875l0.609375 -1.84375l2.6875 -7.296875l2.125 0l-4.359375 11.109375l-2.21875 0l-4.34375 -11.109375zm22.878387 4.96875q0 0.40625 -0.015625 0.6875q-0.015625 0.28125 -0.03125 0.515625l-7.796875 0q0 1.703125 0.9375 2.625q0.953125 0.90625 2.75 0.90625q0.484375 0 0.96875 -0.03125q0.5 -0.046875 0.953125 -0.109375q0.453125 -0.0625 0.859375 -0.140625q0.421875 -0.09375 0.765625 -0.1875l0 1.578125q-0.78125 0.21875 -1.78125 0.359375q-0.984375 0.140625 -2.046875 0.140625q-1.421875 0 -2.453125 -0.390625q-1.03125 -0.390625 -1.6875 -1.125q-0.65625 -0.734375 -0.96875 -1.796875q-0.3125 -1.078125 -0.3125 -2.421875q0 -1.171875 0.328125 -2.21875q0.34375 -1.046875 0.984375 -1.828125q0.65625 -0.796875 1.59375 -1.265625q0.9375 -0.46875 2.140625 -0.46875q1.15625 0 2.046875 0.375q0.90625 0.359375 1.515625 1.03125q0.609375 0.671875 0.921875 1.625q0.328125 0.953125 0.328125 2.140625zm-2.0 -0.28125q0.03125 -0.734375 -0.15625 -1.34375q-0.171875 -0.625 -0.546875 -1.0625q-0.359375 -0.4375 -0.921875 -0.6875q-0.546875 -0.25 -1.28125 -0.25q-0.625 0 -1.15625 0.25q-0.515625 0.234375 -0.890625 0.6875q-0.375 0.4375 -0.609375 1.0625q-0.234375 0.609375 -0.28125 1.34375l5.84375 0zm5.5190125 -4.6875l1.765625 0l0.046875 2.046875q0.984375 -1.1875 1.9375 -1.71875q0.96875 -0.53125 1.9375 -0.53125q1.734375 0 2.625 1.125q0.890625 1.109375 0.8125 3.3125l-1.9375 0q0.03125 -1.453125 -0.4375 -2.109375q-0.453125 -0.65625 -1.328125 -0.65625q-0.390625 0 -0.796875 0.140625q-0.390625 0.125 -0.8125 0.4375q-0.40625 0.296875 -0.875 0.78125q-0.453125 0.46875 -0.984375 1.140625l0 7.140625l-1.953125 0l0 -11.109375zm19.144012 11.109375l-0.046875 -1.5q-0.90625 0.90625 -1.84375 1.3125q-0.9375 0.390625 -1.953125 0.390625q-0.953125 0 -1.640625 -0.234375q-0.671875 -0.25 -1.109375 -0.671875q-0.4375 -0.4375 -0.640625 -1.015625q-0.203125 -0.578125 -0.203125 -1.25q0 -1.671875 1.234375 -2.609375q1.25 -0.953125 3.6875 -0.953125l2.296875 0l0 -0.96875q0 -0.984375 -0.625 -1.578125q-0.625 -0.59375 -1.921875 -0.59375q-0.9375 0 -1.859375 0.21875q-0.90625 0.203125 -1.875 0.59375l0 -1.734375q0.359375 -0.140625 0.796875 -0.265625q0.453125 -0.125 0.953125 -0.21875q0.5 -0.109375 1.03125 -0.171875q0.546875 -0.0625 1.109375 -0.0625q1.0 0 1.8125 0.234375q0.8125 0.21875 1.359375 0.671875q0.5625 0.453125 0.859375 1.140625q0.296875 0.6875 0.296875 1.609375l0 7.65625l-1.71875 0zm-0.21875 -5.0625l-2.4375 0q-0.71875 0 -1.25 0.15625q-0.515625 0.140625 -0.84375 0.40625q-0.328125 0.265625 -0.5 0.640625q-0.15625 0.359375 -0.15625 0.828125q0 0.328125 0.09375 0.625q0.109375 0.28125 0.328125 0.515625q0.234375 0.21875 0.578125 0.359375q0.359375 0.125 0.859375 0.125q0.671875 0 1.53125 -0.40625q0.859375 -0.40625 1.796875 -1.28125l0 -1.96875zm13.534637 -4.46875q0.3125 0.375 0.484375 0.890625q0.171875 0.515625 0.171875 1.125q0 0.859375 -0.3125 1.578125q-0.3125 0.703125 -0.890625 1.21875q-0.578125 0.5 -1.390625 0.78125q-0.796875 0.28125 -1.75 0.28125q-0.703125 0 -1.3125 -0.140625q-0.609375 -0.15625 -0.953125 -0.375q-0.21875 0.3125 -0.359375 0.59375q-0.140625 0.265625 -0.140625 0.609375q0 0.421875 0.390625 0.703125q0.40625 0.28125 1.078125 0.296875l2.921875 0.109375q0.828125 0.015625 1.53125 0.21875q0.703125 0.1875 1.203125 0.546875q0.5 0.34375 0.78125 0.859375q0.28125 0.515625 0.28125 1.203125q0 0.75 -0.328125 1.40625q-0.3125 0.671875 -0.984375 1.171875q-0.65625 0.5 -1.6875 0.796875q-1.03125 0.296875 -2.453125 0.296875q-1.34375 0 -2.296875 -0.21875q-0.9375 -0.203125 -1.546875 -0.59375q-0.609375 -0.375 -0.890625 -0.90625q-0.265625 -0.515625 -0.265625 -1.15625q0 -0.796875 0.375 -1.40625q0.375 -0.609375 1.15625 -1.171875q-0.28125 -0.140625 -0.5 -0.328125q-0.203125 -0.203125 -0.34375 -0.4375q-0.125 -0.25 -0.203125 -0.515625q-0.0625 -0.265625 -0.0625 -0.515625q0 -0.71875 0.328125 -1.3125q0.34375 -0.609375 0.8125 -1.140625q-0.203125 -0.25 -0.375 -0.484375q-0.15625 -0.25 -0.28125 -0.53125q-0.109375 -0.28125 -0.171875 -0.609375q-0.0625 -0.328125 -0.0625 -0.75q0 -0.859375 0.3125 -1.5625q0.328125 -0.71875 0.890625 -1.21875q0.578125 -0.515625 1.375 -0.796875q0.796875 -0.296875 1.78125 -0.296875q0.40625 0 0.78125 0.0625q0.375 0.046875 0.65625 0.140625l4.03125 0l0 1.578125l-1.78125 0zm-6.671875 11.140625q0 0.78125 0.8125 1.140625q0.8125 0.359375 2.28125 0.359375q0.921875 0 1.546875 -0.171875q0.625 -0.15625 1.0 -0.4375q0.375 -0.265625 0.546875 -0.625q0.171875 -0.34375 0.171875 -0.703125q0 -0.671875 -0.5625 -1.0q-0.546875 -0.3125 -1.6875 -0.375l-2.90625 -0.09375q-0.359375 0.234375 -0.59375 0.46875q-0.234375 0.234375 -0.375 0.46875q-0.125 0.25 -0.1875 0.484375q-0.046875 0.234375 -0.046875 0.484375zm0.578125 -9.09375q0 0.53125 0.171875 0.984375q0.1875 0.4375 0.5 0.75q0.328125 0.3125 0.765625 0.484375q0.4375 0.171875 0.96875 0.171875q0.578125 0 1.015625 -0.1875q0.453125 -0.203125 0.75 -0.53125q0.3125 -0.34375 0.46875 -0.765625q0.15625 -0.4375 0.15625 -0.90625q0 -0.53125 -0.171875 -0.96875q-0.171875 -0.4375 -0.5 -0.75q-0.3125 -0.3125 -0.75 -0.484375q-0.4375 -0.171875 -0.96875 -0.171875q-0.578125 0 -1.03125 0.203125q-0.4375 0.203125 -0.75 0.53125q-0.296875 0.3125 -0.46875 0.75q-0.15625 0.4375 -0.15625 0.890625zm19.940887 1.34375q0 0.40625 -0.015625 0.6875q-0.015625 0.28125 -0.03125 0.515625l-7.796875 0q0 1.703125 0.9375 2.625q0.953125 0.90625 2.75 0.90625q0.484375 0 0.96875 -0.03125q0.5 -0.046875 0.953125 -0.109375q0.453125 -0.0625 0.859375 -0.140625q0.421875 -0.09375 0.765625 -0.1875l0 1.578125q-0.78125 0.21875 -1.78125 0.359375q-0.984375 0.140625 -2.046875 0.140625q-1.421875 0 -2.453125 -0.390625q-1.03125 -0.390625 -1.6875 -1.125q-0.65625 -0.734375 -0.96875 -1.796875q-0.3125 -1.078125 -0.3125 -2.421875q0 -1.171875 0.328125 -2.21875q0.34375 -1.046875 0.984375 -1.828125q0.65625 -0.796875 1.59375 -1.265625q0.9375 -0.46875 2.140625 -0.46875q1.15625 0 2.046875 0.375q0.90625 0.359375 1.515625 1.03125q0.609375 0.671875 0.921875 1.625q0.328125 0.953125 0.328125 2.140625zm-2.0 -0.28125q0.03125 -0.734375 -0.15625 -1.34375q-0.171875 -0.625 -0.546875 -1.0625q-0.359375 -0.4375 -0.921875 -0.6875q-0.546875 -0.25 -1.28125 -0.25q-0.625 0 -1.15625 0.25q-0.515625 0.234375 -0.890625 0.6875q-0.375 0.4375 -0.609375 1.0625q-0.234375 0.609375 -0.28125 1.34375l5.84375 0zm26.74115 -0.71875l-9.515625 0l0 -1.625l9.515625 0l0 1.625zm0 3.84375l-9.515625 0l0 -1.625l9.515625 0l0 1.625zm24.9599 3.296875l-9.078125 0l0 -1.796875l3.71875 0l0 -10.546875l-3.46875 1.875l-0.703125 -1.640625l4.59375 -2.421875l1.703125 0l0 12.734375l3.234375 0l0 1.796875zm7.5658875 -3.484375q0.375 0 0.703125 0.140625q0.34375 0.140625 0.59375 0.40625q0.25 0.25 0.390625 0.59375q0.140625 0.328125 0.140625 0.71875q0 0.375 -0.140625 0.703125q-0.140625 0.328125 -0.390625 0.578125q-0.25 0.25 -0.59375 0.390625q-0.328125 0.15625 -0.703125 0.15625q-0.390625 0 -0.71875 -0.15625q-0.328125 -0.140625 -0.578125 -0.390625q-0.25 -0.25 -0.40625 -0.578125q-0.140625 -0.328125 -0.140625 -0.703125q0 -0.390625 0.140625 -0.71875q0.15625 -0.34375 0.40625 -0.59375q0.25 -0.265625 0.578125 -0.40625q0.328125 -0.140625 0.71875 -0.140625zm17.097137 -1.140625q0 1.078125 -0.46875 1.96875q-0.453125 0.875 -1.265625 1.515625q-0.8125 0.625 -1.921875 0.984375q-1.109375 0.359375 -2.390625 0.359375q-0.328125 0 -0.703125 -0.015625q-0.359375 -0.015625 -0.734375 -0.046875q-0.359375 -0.03125 -0.703125 -0.0625q-0.34375 -0.03125 -0.625 -0.078125l0 -1.75q0.59375 0.140625 1.359375 0.21875q0.78125 0.0625 1.5625 0.0625q0.890625 0 1.59375 -0.203125q0.703125 -0.21875 1.203125 -0.609375q0.5 -0.390625 0.765625 -0.953125q0.265625 -0.5625 0.265625 -1.25q0 -1.359375 -0.96875 -1.96875q-0.96875 -0.609375 -2.78125 -0.609375l-2.75 0l0 -7.390625l7.796875 0l0 1.671875l-5.984375 0l0 4.0625l1.265625 0q1.046875 0 2.03125 0.1875q0.984375 0.1875 1.75 0.65625q0.765625 0.46875 1.234375 1.265625q0.46875 0.796875 0.46875 1.984375z" fill-rule="nonzero"/><path fill="#000000" fill-opacity="0.0" d="m191.021 167.67653l421.60632 0.881897" fill-rule="evenodd"/><path stroke="#595959" stroke-width="1.0" stroke-linejoin="round" stroke-linecap="butt" d="m191.021 167.67653l415.60632 0.869339" fill-rule="evenodd"/><path fill="#595959" stroke="#595959" stroke-width="1.0" stroke-linecap="butt" d="m606.62384 170.1976l4.541565 -1.6422424l-4.534668 -1.6612244z" fill-rule="evenodd"/><path fill="#000000" fill-opacity="0.0" d="m191.021 52.936375l421.60632 0.88188934" fill-rule="evenodd"/><path stroke="#595959" stroke-width="1.0" stroke-linejoin="round" stroke-linecap="butt" d="m191.021 52.93638l415.60632 0.869339" fill-rule="evenodd"/><path fill="#595959" stroke="#595959" stroke-width="1.0" stroke-linecap="butt" d="m606.62384 55.457447l4.541565 -1.6422386l-4.534668 -1.6612206z" fill-rule="evenodd"/><path fill="#000000" fill-opacity="0.0" d="m257.5292 168.87665l58.834656 0l0 46.64566l-58.834656 0z" fill-rule="evenodd"/><path fill="#595959" d="m276.9667 199.63664l-8.21875 0l0 -14.453125l8.21875 0l0 1.65625l-6.25 0l0 4.484375l6.015625 0l0 1.65625l-6.015625 0l0 4.96875l6.25 0l0 1.6875zm13.050262 0l-9.078125 0l0 -1.796875l3.71875 0l0 -10.546875l-3.46875 1.875l-0.703125 -1.640625l4.59375 -2.421875l1.703125 0l0 12.734375l3.234375 0l0 1.796875z" fill-rule="nonzero"/><path fill="#000000" fill-opacity="0.0" d="m287.7244 167.35957l0.8189087 -113.76377" fill-rule="evenodd"/><path stroke="#595959" stroke-width="1.0" stroke-linejoin="round" stroke-linecap="butt" d="m287.7244 167.35957l0.7757263 -107.76393" fill-rule="evenodd"/><path fill="#595959" stroke="#595959" stroke-width="1.0" stroke-linecap="butt" d="m290.1518 59.607533l-1.6190186 -4.5498657l-1.6843567 4.5260887z" fill-rule="evenodd"/><path fill="#000000" fill-opacity="0.0" d="m481.46457 167.35957l97.29135 -112.94487" fill-rule="evenodd"/><path stroke="#595959" stroke-width="1.0" stroke-linejoin="round" stroke-linecap="butt" d="m481.46457 167.35957l93.37546 -108.398926" fill-rule="evenodd"/><path fill="#595959" stroke="#595959" stroke-width="1.0" stroke-linecap="butt" d="m576.09143 60.038654l1.7103882 -4.5163345l-4.213257 2.3603249z" fill-rule="evenodd"/><path fill="#000000" fill-opacity="0.0" d="m454.90454 168.87665l58.834656 0l0 46.64566l-58.834656 0z" fill-rule="evenodd"/><path fill="#595959" d="m474.34204 199.63664l-8.21875 0l0 -14.453125l8.21875 0l0 1.65625l-6.25 0l0 4.484375l6.015625 0l0 1.65625l-6.015625 0l0 4.96875l6.25 0l0 1.6875zm13.175262 0l-9.53125 0l0 -1.71875l3.734375 -3.71875q0.921875 -0.90625 1.5 -1.5625q0.578125 -0.671875 0.890625 -1.21875q0.328125 -0.546875 0.4375 -1.03125q0.109375 -0.5 0.109375 -1.0625q0 -0.53125 -0.140625 -1.0q-0.140625 -0.484375 -0.453125 -0.84375q-0.296875 -0.375 -0.78125 -0.578125q-0.46875 -0.21875 -1.125 -0.21875q-0.921875 0 -1.671875 0.40625q-0.75 0.40625 -1.375 1.0625l-1.0625 -1.265625q0.8125 -0.875 1.875 -1.390625q1.078125 -0.515625 2.484375 -0.515625q0.96875 0 1.75 0.296875q0.796875 0.28125 1.375 0.828125q0.578125 0.53125 0.890625 1.328125q0.3125 0.78125 0.3125 1.765625q0 0.828125 -0.21875 1.53125q-0.21875 0.703125 -0.671875 1.40625q-0.453125 0.703125 -1.140625 1.46875q-0.671875 0.75 -1.59375 1.640625l-2.625 2.546875l7.03125 0l0 1.84375z" fill-rule="nonzero"/><path fill="#000000" fill-opacity="0.0" d="m340.0 127.52756l117.82678 0l0 54.771652l-117.82678 0z" fill-rule="evenodd"/><path fill="#595959" d="m348.98438 158.28755l6.21875 -16.21875l2.3125 0l6.640625 16.21875l-15.171875 0zm2.96875 -1.90625l9.015625 0l-3.5 -9.25q-0.796875 -2.078125 -1.15625 -3.359375q-0.296875 1.5 -0.875 3.09375l-3.484375 9.515625z" fill-rule="nonzero"/><path fill="#595959" d="m374.85242 158.1313q-0.65625 0.171875 -1.359375 0.234375q-0.6875 0.078125 -1.40625 0.078125q-2.09375 0 -3.125 -0.9375q-1.015625 -0.953125 -1.015625 -2.90625l0 -5.796875l-3.109375 0l0 -1.625l3.109375 0l0 -3.046875l1.921875 -0.5l0 3.546875l4.984375 0l0 1.625l-4.984375 0l0 5.640625q0 1.1875 0.625 1.78125q0.640625 0.59375 1.875 0.59375q0.53125 0 1.15625 -0.078125q0.640625 -0.09375 1.328125 -0.265625l0 1.65625zm25.17865 -6.984375l-9.515625 0l0 -1.625l9.515625 0l0 1.625zm0 3.84375l-9.515625 0l0 -1.625l9.515625 0l0 1.625zm25.0849 3.296875l-9.53125 0l0 -1.71875l3.734375 -3.71875q0.921875 -0.90625 1.5 -1.5625q0.578125 -0.671875 0.890625 -1.21875q0.328125 -0.546875 0.4375 -1.03125q0.109375 -0.5 0.109375 -1.0625q0 -0.53125 -0.140625 -1.0q-0.140625 -0.484375 -0.453125 -0.84375q-0.296875 -0.375 -0.78125 -0.578125q-0.46875 -0.21875 -1.125 -0.21875q-0.921875 0 -1.671875 0.40625q-0.75 0.40625 -1.375 1.0625l-1.0625 -1.265625q0.8125 -0.875 1.875 -1.390625q1.078125 -0.515625 2.484375 -0.515625q0.96875 0 1.75 0.296875q0.796875 0.28125 1.375 0.828125q0.578125 0.53125 0.890625 1.328125q0.3125 0.78125 0.3125 1.765625q0 0.828125 -0.21875 1.53125q-0.21875 0.703125 -0.671875 1.40625q-0.453125 0.703125 -1.140625 1.46875q-0.671875 0.75 -1.59375 1.640625l-2.625 2.546875l7.03125 0l0 1.84375z" fill-rule="nonzero"/><path fill="#000000" fill-opacity="0.0" d="m349.74802 14.448819l200.75595 0l0 54.771656l-200.75595 0z" fill-rule="evenodd"/><path fill="#595959" d="m358.7324 43.928818l5.859375 -15.265625l2.171875 0l6.25 15.265625l-14.28125 0zm2.796875 -1.796875l8.484375 0l-3.296875 -8.703125q-0.734375 -1.953125 -1.078125 -3.15625q-0.28125 1.40625 -0.828125 2.90625l-3.28125 8.953125z" fill-rule="nonzero"/><path fill="#595959" d="m383.0883 43.788193q-0.609375 0.15625 -1.265625 0.21875q-0.65625 0.0625 -1.34375 0.0625q-1.96875 0 -2.9375 -0.890625q-0.96875 -0.890625 -0.96875 -2.734375l0 -5.453125l-2.921875 0l0 -1.515625l2.921875 0l0 -2.875l1.8125 -0.46875l0 3.34375l4.703125 0l0 1.515625l-4.703125 0l0 5.3125q0 1.125 0.59375 1.6875q0.609375 0.546875 1.78125 0.546875q0.5 0 1.09375 -0.078125q0.59375 -0.078125 1.234375 -0.234375l0 1.5625zm8.695068 -14.578125l-0.296875 4.890625l-1.796875 0l-0.296875 -4.890625l2.390625 0zm26.733856 7.984375l-8.953125 0l0 -1.53125l8.953125 0l0 1.53125zm0 3.625l-8.953125 0l0 -1.53125l8.953125 0l0 1.53125zm23.499481 3.109375l-8.5625 0l0 -1.6875l3.5 0l0 -9.9375l-3.25 1.765625l-0.671875 -1.53125l4.328125 -2.28125l1.609375 0l0 11.984375l3.046875 0l0 1.6875zm7.116913 -3.28125q0.359375 0 0.671875 0.140625q0.3125 0.125 0.546875 0.375q0.234375 0.234375 0.375 0.5625q0.140625 0.3125 0.140625 0.671875q0 0.359375 -0.140625 0.671875q-0.140625 0.3125 -0.375 0.546875q-0.234375 0.234375 -0.546875 0.359375q-0.3125 0.140625 -0.671875 0.140625q-0.359375 0 -0.671875 -0.140625q-0.3125 -0.125 -0.546875 -0.359375q-0.234375 -0.234375 -0.375 -0.546875q-0.140625 -0.3125 -0.140625 -0.671875q0 -0.359375 0.140625 -0.671875q0.140625 -0.328125 0.375 -0.5625q0.234375 -0.25 0.546875 -0.375q0.3125 -0.140625 0.671875 -0.140625zm16.101318 -1.078125q0 1.015625 -0.4375 1.859375q-0.4375 0.828125 -1.203125 1.421875q-0.765625 0.59375 -1.8125 0.9375q-1.03125 0.328125 -2.25 0.328125q-0.296875 0 -0.65625 -0.015625q-0.34375 -0.015625 -0.6875 -0.046875q-0.34375 -0.015625 -0.671875 -0.046875q-0.328125 -0.03125 -0.578125 -0.078125l0 -1.640625q0.5625 0.125 1.28125 0.1875q0.71875 0.0625 1.46875 0.0625q0.828125 0 1.484375 -0.1875q0.671875 -0.203125 1.140625 -0.5625q0.46875 -0.375 0.71875 -0.90625q0.25 -0.53125 0.25 -1.1875q0 -1.265625 -0.90625 -1.84375q-0.90625 -0.578125 -2.625 -0.578125l-2.578125 0l0 -6.953125l7.328125 0l0 1.578125l-5.625 0l0 3.828125l1.1875 0q0.984375 0 1.90625 0.171875q0.9375 0.171875 1.65625 0.625q0.71875 0.4375 1.15625 1.1875q0.453125 0.734375 0.453125 1.859375z" fill-rule="nonzero"/><path fill="#595959" d="m466.78934 43.928818l5.859375 -15.265625l2.171875 0l6.25 15.265625l-14.28125 0zm2.796875 -1.796875l8.484375 0l-3.296875 -8.703125q-0.734375 -1.953125 -1.078125 -3.15625q-0.28125 1.40625 -0.828125 2.90625l-3.28125 8.953125z" fill-rule="nonzero"/><path fill="#595959" d="m491.14523 43.788193q-0.609375 0.15625 -1.265625 0.21875q-0.65625 0.0625 -1.34375 0.0625q-1.96875 0 -2.9375 -0.890625q-0.96875 -0.890625 -0.96875 -2.734375l0 -5.453125l-2.921875 0l0 -1.515625l2.921875 0l0 -2.875l1.8125 -0.46875l0 3.34375l4.703125 0l0 1.515625l-4.703125 0l0 5.3125q0 1.125 0.59375 1.6875q0.609375 0.546875 1.78125 0.546875q0.5 0 1.09375 -0.078125q0.59375 -0.078125 1.234375 -0.234375l0 1.5625zm23.702606 -6.59375l-8.953125 0l0 -1.53125l8.953125 0l0 1.53125zm0 3.625l-8.953125 0l0 -1.53125l8.953125 0l0 1.53125zm23.343262 -1.03125q0 0.90625 -0.359375 1.6875q-0.359375 0.78125 -1.09375 1.375q-0.734375 0.59375 -1.84375 0.9375q-1.09375 0.328125 -2.5625 0.328125q-0.8125 0 -1.46875 -0.0625q-0.640625 -0.046875 -1.203125 -0.125l0 -1.625q0.65625 0.109375 1.375 0.171875q0.71875 0.0625 1.46875 0.0625q1.015625 0 1.734375 -0.171875q0.734375 -0.1875 1.1875 -0.53125q0.453125 -0.34375 0.65625 -0.828125q0.21875 -0.5 0.21875 -1.109375q0 -0.5625 -0.25 -0.96875q-0.25 -0.421875 -0.703125 -0.703125q-0.453125 -0.28125 -1.09375 -0.421875q-0.625 -0.140625 -1.375 -0.140625l-1.546875 0l0 -1.5l1.578125 0q0.609375 0 1.109375 -0.15625q0.515625 -0.15625 0.875 -0.453125q0.359375 -0.3125 0.546875 -0.75q0.1875 -0.453125 0.1875 -1.015625q0 -1.078125 -0.671875 -1.578125q-0.65625 -0.5 -1.953125 -0.5q-0.6875 0 -1.421875 0.140625q-0.71875 0.125 -1.546875 0.390625l0 -1.578125q0.34375 -0.125 0.75 -0.21875q0.40625 -0.109375 0.796875 -0.171875q0.40625 -0.0625 0.796875 -0.09375q0.40625 -0.046875 0.765625 -0.046875q1.078125 0 1.90625 0.234375q0.828125 0.234375 1.375 0.671875q0.546875 0.4375 0.828125 1.0625q0.28125 0.625 0.28125 1.40625q0 1.15625 -0.59375 1.953125q-0.59375 0.796875 -1.640625 1.265625q0.53125 0.078125 1.046875 0.328125q0.515625 0.25 0.921875 0.640625q0.421875 0.390625 0.671875 0.921875q0.25 0.53125 0.25 1.171875z" fill-rule="nonzero"/><path fill="#000000" fill-opacity="0.0" d="m626.7598 87.15422l222.80316 0l0 46.645676l-222.80316 0z" fill-rule="evenodd"/><path fill="#595959" d="m644.6661 117.91422l-0.046875 -1.5q-0.90625 0.90625 -1.84375 1.3125q-0.9375 0.390625 -1.953125 0.390625q-0.953125 0 -1.640625 -0.234375q-0.671875 -0.25 -1.109375 -0.671875q-0.4375 -0.4375 -0.640625 -1.015625q-0.203125 -0.578125 -0.203125 -1.25q0 -1.671875 1.234375 -2.609375q1.25 -0.953125 3.6875 -0.953125l2.296875 0l0 -0.96875q0 -0.984375 -0.625 -1.578125q-0.625 -0.59375 -1.921875 -0.59375q-0.9375 0 -1.859375 0.21875q-0.90625 0.203125 -1.875 0.59375l0 -1.734375q0.359375 -0.140625 0.796875 -0.265625q0.453125 -0.125 0.953125 -0.21875q0.5 -0.109375 1.03125 -0.171875q0.546875 -0.0625 1.109375 -0.0625q1.0 0 1.8125 0.234375q0.8125 0.21875 1.359375 0.671875q0.5625 0.453125 0.859375 1.140625q0.296875 0.6875 0.296875 1.609375l0 7.65625l-1.71875 0zm-0.21875 -5.0625l-2.4375 0q-0.71875 0 -1.25 0.15625q-0.515625 0.140625 -0.84375 0.40625q-0.328125 0.265625 -0.5 0.640625q-0.15625 0.359375 -0.15625 0.828125q0 0.328125 0.09375 0.625q0.109375 0.28125 0.328125 0.515625q0.234375 0.21875 0.578125 0.359375q0.359375 0.125 0.859375 0.125q0.671875 0 1.53125 -0.40625q0.859375 -0.40625 1.796875 -1.28125l0 -1.96875zm4.972168 -0.265625q0 -1.40625 0.390625 -2.5q0.390625 -1.109375 1.09375 -1.859375q0.71875 -0.765625 1.71875 -1.15625q1.0 -0.390625 2.234375 -0.390625q0.53125 0 1.046875 0.0625q0.515625 0.0625 1.0 0.203125l0 -4.65625l1.9375 0l0 15.625l-1.71875 0l-0.0625 -2.109375q-0.8125 1.1875 -1.75 1.75q-0.9375 0.5625 -2.03125 0.5625q-0.953125 0 -1.6875 -0.390625q-0.71875 -0.40625 -1.203125 -1.125q-0.484375 -0.734375 -0.734375 -1.75q-0.234375 -1.015625 -0.234375 -2.265625zm1.96875 -0.109375q0 2.015625 0.59375 3.0q0.59375 0.984375 1.671875 0.984375q0.734375 0 1.546875 -0.640625q0.8125 -0.65625 1.703125 -1.9375l0 -5.15625q-0.46875 -0.234375 -1.046875 -0.34375q-0.578125 -0.109375 -1.140625 -0.109375q-1.5625 0 -2.453125 1.015625q-0.875 1.015625 -0.875 3.1875zm18.581482 -5.671875l0 10.90625q0 1.171875 -0.34375 2.0625q-0.328125 0.90625 -0.953125 1.515625q-0.609375 0.625 -1.515625 0.9375q-0.890625 0.328125 -2.03125 0.328125q-0.8125 0 -1.59375 -0.15625q-0.78125 -0.140625 -1.40625 -0.40625l0 -1.828125q0.34375 0.171875 0.734375 0.3125q0.390625 0.140625 0.796875 0.234375q0.421875 0.109375 0.84375 0.15625q0.421875 0.0625 0.8125 0.0625q1.265625 0 1.984375 -0.796875q0.71875 -0.796875 0.71875 -2.34375l0 -9.390625l-5.4375 0l0 -1.59375l7.390625 0zm-1.171875 -4.65625q0.328125 0 0.59375 0.125q0.28125 0.109375 0.484375 0.328125q0.21875 0.203125 0.328125 0.484375q0.109375 0.265625 0.109375 0.578125q0 0.328125 -0.109375 0.59375q-0.109375 0.265625 -0.328125 0.484375q-0.203125 0.203125 -0.484375 0.328125q-0.265625 0.109375 -0.59375 0.109375q-0.3125 0 -0.59375 -0.109375q-0.28125 -0.125 -0.484375 -0.328125q-0.203125 -0.21875 -0.328125 -0.484375q-0.109375 -0.265625 -0.109375 -0.59375q0 -0.3125 0.109375 -0.578125q0.125 -0.28125 0.328125 -0.484375q0.203125 -0.21875 0.484375 -0.328125q0.28125 -0.125 0.59375 -0.125zm15.034668 15.765625l-1.734375 0l-0.0625 -1.796875q-0.5 0.578125 -0.953125 0.96875q-0.4375 0.375 -0.890625 0.609375q-0.4375 0.234375 -0.890625 0.328125q-0.4375 0.09375 -0.9375 0.09375q-1.71875 0 -2.59375 -1.0q-0.875 -1.015625 -0.875 -3.046875l0 -7.265625l1.921875 0l0 7.109375q0 2.546875 1.9375 2.546875q0.34375 0 0.6875 -0.09375q0.34375 -0.109375 0.703125 -0.359375q0.375 -0.265625 0.796875 -0.703125q0.421875 -0.453125 0.953125 -1.125l0 -7.375l1.9375 0l0 11.109375zm12.315857 -3.03125q0 0.59375 -0.203125 1.0625q-0.1875 0.453125 -0.53125 0.8125q-0.34375 0.359375 -0.796875 0.625q-0.453125 0.25 -0.96875 0.421875q-0.515625 0.15625 -1.0625 0.234375q-0.546875 0.078125 -1.0625 0.078125q-1.125 0 -2.078125 -0.109375q-0.9375 -0.09375 -1.84375 -0.3125l0 -1.765625q0.96875 0.265625 1.921875 0.421875q0.96875 0.140625 1.921875 0.140625q1.390625 0 2.046875 -0.375q0.671875 -0.375 0.671875 -1.078125q0 -0.296875 -0.109375 -0.53125q-0.109375 -0.25 -0.390625 -0.453125q-0.265625 -0.21875 -0.84375 -0.453125q-0.578125 -0.234375 -1.59375 -0.53125q-0.75 -0.21875 -1.390625 -0.5q-0.625 -0.28125 -1.09375 -0.671875q-0.46875 -0.390625 -0.734375 -0.90625q-0.265625 -0.515625 -0.265625 -1.234375q0 -0.46875 0.21875 -1.015625q0.21875 -0.546875 0.734375 -1.015625q0.515625 -0.484375 1.40625 -0.796875q0.890625 -0.328125 2.203125 -0.328125q0.65625 0 1.453125 0.078125q0.796875 0.078125 1.65625 0.25l0 1.71875q-0.90625 -0.21875 -1.71875 -0.328125q-0.8125 -0.109375 -1.40625 -0.109375q-0.71875 0 -1.21875 0.109375q-0.484375 0.109375 -0.796875 0.3125q-0.296875 0.1875 -0.4375 0.453125q-0.125 0.25 -0.125 0.546875q0 0.3125 0.109375 0.5625q0.125 0.234375 0.4375 0.46875q0.3125 0.21875 0.875 0.453125q0.578125 0.21875 1.484375 0.484375q0.984375 0.28125 1.65625 0.59375q0.671875 0.3125 1.09375 0.703125q0.421875 0.390625 0.59375 0.875q0.1875 0.484375 0.1875 1.109375zm12.612793 2.875q-0.65625 0.171875 -1.359375 0.234375q-0.6875 0.078125 -1.40625 0.078125q-2.09375 0 -3.125 -0.9375q-1.015625 -0.953125 -1.015625 -2.90625l0 -5.796875l-3.109375 0l0 -1.625l3.109375 0l0 -3.046875l1.921875 -0.5l0 3.546875l4.984375 0l0 1.625l-4.984375 0l0 5.640625q0 1.1875 0.625 1.78125q0.640625 0.59375 1.875 0.59375q0.53125 0 1.15625 -0.078125q0.640625 -0.09375 1.328125 -0.265625l0 1.65625zm12.893982 -5.984375q0 0.40625 -0.015625 0.6875q-0.015625 0.28125 -0.03125 0.515625l-7.796875 0q0 1.703125 0.9375 2.625q0.953125 0.90625 2.75 0.90625q0.484375 0 0.96875 -0.03125q0.5 -0.046875 0.953125 -0.109375q0.453125 -0.0625 0.859375 -0.140625q0.421875 -0.09375 0.765625 -0.1875l0 1.578125q-0.78125 0.21875 -1.78125 0.359375q-0.984375 0.140625 -2.046875 0.140625q-1.421875 0 -2.453125 -0.390625q-1.03125 -0.390625 -1.6875 -1.125q-0.65625 -0.734375 -0.96875 -1.796875q-0.3125 -1.078125 -0.3125 -2.421875q0 -1.171875 0.328125 -2.21875q0.34375 -1.046875 0.984375 -1.828125q0.65625 -0.796875 1.59375 -1.265625q0.9375 -0.46875 2.140625 -0.46875q1.15625 0 2.046875 0.375q0.90625 0.359375 1.515625 1.03125q0.609375 0.671875 0.921875 1.625q0.328125 0.953125 0.328125 2.140625zm-2.0 -0.28125q0.03125 -0.734375 -0.15625 -1.34375q-0.171875 -0.625 -0.546875 -1.0625q-0.359375 -0.4375 -0.921875 -0.6875q-0.546875 -0.25 -1.28125 -0.25q-0.625 0 -1.15625 0.25q-0.515625 0.234375 -0.890625 0.6875q-0.375 0.4375 -0.609375 1.0625q-0.234375 0.609375 -0.28125 1.34375l5.84375 0zm4.503418 1.09375q0 -1.40625 0.390625 -2.5q0.390625 -1.109375 1.09375 -1.859375q0.71875 -0.765625 1.71875 -1.15625q1.0 -0.390625 2.234375 -0.390625q0.53125 0 1.046875 0.0625q0.515625 0.0625 1.0 0.203125l0 -4.65625l1.9375 0l0 15.625l-1.71875 0l-0.0625 -2.109375q-0.8125 1.1875 -1.75 1.75q-0.9375 0.5625 -2.03125 0.5625q-0.953125 0 -1.6875 -0.390625q-0.71875 -0.40625 -1.203125 -1.125q-0.484375 -0.734375 -0.734375 -1.75q-0.234375 -1.015625 -0.234375 -2.265625zm1.96875 -0.109375q0 2.015625 0.59375 3.0q0.59375 0.984375 1.671875 0.984375q0.734375 0 1.546875 -0.640625q0.8125 -0.65625 1.703125 -1.9375l0 -5.15625q-0.46875 -0.234375 -1.046875 -0.34375q-0.578125 -0.109375 -1.140625 -0.109375q-1.5625 0 -2.453125 1.015625q-0.875 1.015625 -0.875 3.1875zm32.4599 5.28125q-0.65625 0.171875 -1.359375 0.234375q-0.6875 0.078125 -1.40625 0.078125q-2.09375 0 -3.125 -0.9375q-1.015625 -0.953125 -1.015625 -2.90625l0 -5.796875l-3.109375 0l0 -1.625l3.109375 0l0 -3.046875l1.921875 -0.5l0 3.546875l4.984375 0l0 1.625l-4.984375 0l0 5.640625q0 1.1875 0.625 1.78125q0.640625 0.59375 1.875 0.59375q0.53125 0 1.15625 -0.078125q0.640625 -0.09375 1.328125 -0.265625l0 1.65625zm7.284607 -9.359375l-3.28125 0l0 -1.59375l5.234375 0l0 9.5l3.3125 0l0 1.609375l-8.90625 0l0 -1.609375l3.640625 0l0 -7.90625zm0.6875 -6.25q0.3125 0 0.59375 0.125q0.28125 0.109375 0.484375 0.328125q0.203125 0.203125 0.3125 0.484375q0.125 0.265625 0.125 0.578125q0 0.3125 -0.125 0.59375q-0.109375 0.265625 -0.3125 0.484375q-0.203125 0.203125 -0.484375 0.328125q-0.28125 0.109375 -0.59375 0.109375q-0.328125 0 -0.609375 -0.109375q-0.265625 -0.125 -0.484375 -0.328125q-0.203125 -0.21875 -0.3125 -0.484375q-0.109375 -0.28125 -0.109375 -0.59375q0 -0.3125 0.109375 -0.578125q0.109375 -0.28125 0.3125 -0.484375q0.21875 -0.21875 0.484375 -0.328125q0.28125 -0.125 0.609375 -0.125zm15.909668 15.765625l0 -7.96875q0 -0.53125 -0.046875 -0.859375q-0.03125 -0.328125 -0.109375 -0.515625q-0.078125 -0.203125 -0.21875 -0.28125q-0.125 -0.078125 -0.3125 -0.078125q-0.21875 0 -0.40625 0.140625q-0.1875 0.125 -0.40625 0.421875q-0.21875 0.296875 -0.484375 0.796875q-0.25 0.484375 -0.59375 1.203125l0 7.140625l-1.765625 0l0 -7.765625q0 -0.609375 -0.046875 -0.984375q-0.03125 -0.375 -0.125 -0.578125q-0.078125 -0.21875 -0.21875 -0.296875q-0.125 -0.078125 -0.3125 -0.078125q-0.1875 0 -0.375 0.109375q-0.171875 0.109375 -0.390625 0.40625q-0.21875 0.28125 -0.484375 0.78125q-0.265625 0.5 -0.625 1.265625l0 7.140625l-1.765625 0l0 -11.109375l1.46875 0l0.09375 2.109375q0.28125 -0.625 0.546875 -1.0625q0.28125 -0.453125 0.5625 -0.71875q0.28125 -0.265625 0.609375 -0.390625q0.328125 -0.140625 0.734375 -0.140625q0.890625 0 1.359375 0.59375q0.46875 0.578125 0.46875 1.8125q0.265625 -0.578125 0.515625 -1.015625q0.25 -0.453125 0.546875 -0.75q0.296875 -0.3125 0.640625 -0.46875q0.359375 -0.171875 0.828125 -0.171875q2.078125 0 2.078125 3.21875l0 8.09375l-1.765625 0zm13.925232 -6.140625q0 0.40625 -0.015625 0.6875q-0.015625 0.28125 -0.03125 0.515625l-7.796875 0q0 1.703125 0.9375 2.625q0.953125 0.90625 2.75 0.90625q0.484375 0 0.96875 -0.03125q0.5 -0.046875 0.953125 -0.109375q0.453125 -0.0625 0.859375 -0.140625q0.421875 -0.09375 0.765625 -0.1875l0 1.578125q-0.78125 0.21875 -1.78125 0.359375q-0.984375 0.140625 -2.046875 0.140625q-1.421875 0 -2.453125 -0.390625q-1.03125 -0.390625 -1.6875 -1.125q-0.65625 -0.734375 -0.96875 -1.796875q-0.3125 -1.078125 -0.3125 -2.421875q0 -1.171875 0.328125 -2.21875q0.34375 -1.046875 0.984375 -1.828125q0.65625 -0.796875 1.59375 -1.265625q0.9375 -0.46875 2.140625 -0.46875q1.15625 0 2.046875 0.375q0.90625 0.359375 1.515625 1.03125q0.609375 0.671875 0.921875 1.625q0.328125 0.953125 0.328125 2.140625zm-2.0 -0.28125q0.03125 -0.734375 -0.15625 -1.34375q-0.171875 -0.625 -0.546875 -1.0625q-0.359375 -0.4375 -0.921875 -0.6875q-0.546875 -0.25 -1.28125 -0.25q-0.625 0 -1.15625 0.25q-0.515625 0.234375 -0.890625 0.6875q-0.375 0.4375 -0.609375 1.0625q-0.234375 0.609375 -0.28125 1.34375l5.84375 0z" fill-rule="nonzero"/></g></svg>